<svg xmlns="http://www.w3.org/2000/svg" xmlns:xlink="http://www.w3.org/1999/xlink" width="1366" zoomAndPan="magnify" viewBox="0 0 1024.5 576" height="768" preserveAspectRatio="xMidYMid meet" version="1.0"><defs><g/><clipPath id="297ab07f9c"><path d="M 15.394531 200.980469 L 1008.589844 200.980469 L 1008.589844 325.371094 L 15.394531 325.371094 Z M 15.394531 200.980469 " clip-rule="nonzero"/></clipPath><clipPath id="feb6458382"><path d="M 75.367188 200.980469 L 948.632812 200.980469 C 964.539062 200.980469 979.792969 207.296875 991.039062 218.546875 C 1002.285156 229.792969 1008.605469 245.046875 1008.605469 260.949219 L 1008.605469 265.402344 C 1008.605469 281.308594 1002.285156 296.5625 991.039062 307.808594 C 979.792969 319.054688 964.539062 325.371094 948.632812 325.371094 L 75.367188 325.371094 C 59.460938 325.371094 44.207031 319.054688 32.960938 307.808594 C 21.714844 296.5625 15.394531 281.308594 15.394531 265.402344 L 15.394531 260.949219 C 15.394531 245.046875 21.714844 229.792969 32.960938 218.546875 C 44.207031 207.296875 59.460938 200.980469 75.367188 200.980469 Z M 75.367188 200.980469 " clip-rule="nonzero"/></clipPath><radialGradient gradientTransform="matrix(1, 0, 0, 1, 15.390994, 200.980289)" gradientUnits="userSpaceOnUse" r="500.485205" cx="496.605235" id="c2a8eb65dd" cy="62.19622" fx="496.605235" fy="62.19622"><stop stop-opacity="1" stop-color="rgb(0.0839233%, 0%, 0.114441%)" offset="0"/><stop stop-opacity="1" stop-color="rgb(0.253296%, 0%, 0.343323%)" offset="0.00390625"/><stop stop-opacity="1" stop-color="rgb(0.424194%, 0%, 0.57373%)" offset="0.0078125"/><stop stop-opacity="1" stop-color="rgb(0.593567%, 0%, 0.802612%)" offset="0.0117188"/><stop stop-opacity="1" stop-color="rgb(0.762939%, 0%, 1.03302%)" offset="0.015625"/><stop stop-opacity="1" stop-color="rgb(0.933838%, 0%, 1.261902%)" offset="0.0195312"/><stop stop-opacity="1" stop-color="rgb(1.10321%, 0%, 1.49231%)" offset="0.0234375"/><stop stop-opacity="1" stop-color="rgb(1.272583%, 0%, 1.721191%)" offset="0.0273438"/><stop stop-opacity="1" stop-color="rgb(1.443481%, 0%, 1.951599%)" offset="0.03125"/><stop stop-opacity="1" stop-color="rgb(1.612854%, 0%, 2.180481%)" offset="0.0351562"/><stop stop-opacity="1" stop-color="rgb(1.782227%, 0%, 2.410889%)" offset="0.0390625"/><stop stop-opacity="1" stop-color="rgb(1.953125%, 0%, 2.639771%)" offset="0.0429688"/><stop stop-opacity="1" stop-color="rgb(2.122498%, 0%, 2.870178%)" offset="0.046875"/><stop stop-opacity="1" stop-color="rgb(2.293396%, 0%, 3.09906%)" offset="0.0507812"/><stop stop-opacity="1" stop-color="rgb(2.462769%, 0%, 3.329468%)" offset="0.0546875"/><stop stop-opacity="1" stop-color="rgb(2.632141%, 0%, 3.55835%)" offset="0.0585938"/><stop stop-opacity="1" stop-color="rgb(2.80304%, 0%, 3.788757%)" offset="0.0625"/><stop stop-opacity="1" stop-color="rgb(2.972412%, 0%, 4.017639%)" offset="0.0664062"/><stop stop-opacity="1" stop-color="rgb(3.141785%, 0%, 4.248047%)" offset="0.0703125"/><stop stop-opacity="1" stop-color="rgb(3.312683%, 0%, 4.478455%)" offset="0.0742188"/><stop stop-opacity="1" stop-color="rgb(3.482056%, 0%, 4.707336%)" offset="0.078125"/><stop stop-opacity="1" stop-color="rgb(3.651428%, 0%, 4.937744%)" offset="0.0820312"/><stop stop-opacity="1" stop-color="rgb(3.822327%, 0%, 5.166626%)" offset="0.0859375"/><stop stop-opacity="1" stop-color="rgb(3.991699%, 0%, 5.397034%)" offset="0.0898438"/><stop stop-opacity="1" stop-color="rgb(4.162598%, 0%, 5.625916%)" offset="0.09375"/><stop stop-opacity="1" stop-color="rgb(4.33197%, 0%, 5.856323%)" offset="0.0976562"/><stop stop-opacity="1" stop-color="rgb(4.501343%, 0%, 6.085205%)" offset="0.101562"/><stop stop-opacity="1" stop-color="rgb(4.672241%, 0%, 6.315613%)" offset="0.105469"/><stop stop-opacity="1" stop-color="rgb(4.841614%, 0%, 6.544495%)" offset="0.109375"/><stop stop-opacity="1" stop-color="rgb(5.010986%, 0%, 6.774902%)" offset="0.113281"/><stop stop-opacity="1" stop-color="rgb(5.181885%, 0%, 7.003784%)" offset="0.117188"/><stop stop-opacity="1" stop-color="rgb(5.351257%, 0%, 7.234192%)" offset="0.121094"/><stop stop-opacity="1" stop-color="rgb(5.52063%, 0%, 7.463074%)" offset="0.125"/><stop stop-opacity="1" stop-color="rgb(5.691528%, 0%, 7.693481%)" offset="0.128906"/><stop stop-opacity="1" stop-color="rgb(5.860901%, 0%, 7.922363%)" offset="0.132812"/><stop stop-opacity="1" stop-color="rgb(6.030273%, 0%, 8.152771%)" offset="0.136719"/><stop stop-opacity="1" stop-color="rgb(6.201172%, 0%, 8.383179%)" offset="0.140625"/><stop stop-opacity="1" stop-color="rgb(6.370544%, 0%, 8.612061%)" offset="0.144531"/><stop stop-opacity="1" stop-color="rgb(6.541443%, 0%, 8.842468%)" offset="0.148438"/><stop stop-opacity="1" stop-color="rgb(6.710815%, 0%, 9.07135%)" offset="0.152344"/><stop stop-opacity="1" stop-color="rgb(6.880188%, 0%, 9.301758%)" offset="0.15625"/><stop stop-opacity="1" stop-color="rgb(7.051086%, 0%, 9.53064%)" offset="0.160156"/><stop stop-opacity="1" stop-color="rgb(7.220459%, 0%, 9.761047%)" offset="0.164062"/><stop stop-opacity="1" stop-color="rgb(7.389832%, 0%, 9.989929%)" offset="0.167969"/><stop stop-opacity="1" stop-color="rgb(7.56073%, 0%, 10.220337%)" offset="0.171875"/><stop stop-opacity="1" stop-color="rgb(7.730103%, 0%, 10.449219%)" offset="0.175781"/><stop stop-opacity="1" stop-color="rgb(7.899475%, 0%, 10.679626%)" offset="0.179688"/><stop stop-opacity="1" stop-color="rgb(8.070374%, 0%, 10.908508%)" offset="0.183594"/><stop stop-opacity="1" stop-color="rgb(8.239746%, 0%, 11.138916%)" offset="0.1875"/><stop stop-opacity="1" stop-color="rgb(8.410645%, 0%, 11.367798%)" offset="0.191406"/><stop stop-opacity="1" stop-color="rgb(8.580017%, 0%, 11.598206%)" offset="0.195312"/><stop stop-opacity="1" stop-color="rgb(8.74939%, 0%, 11.827087%)" offset="0.199219"/><stop stop-opacity="1" stop-color="rgb(8.920288%, 0%, 12.057495%)" offset="0.203125"/><stop stop-opacity="1" stop-color="rgb(9.089661%, 0%, 12.286377%)" offset="0.207031"/><stop stop-opacity="1" stop-color="rgb(9.259033%, 0%, 12.516785%)" offset="0.210938"/><stop stop-opacity="1" stop-color="rgb(9.429932%, 0%, 12.747192%)" offset="0.214844"/><stop stop-opacity="1" stop-color="rgb(9.599304%, 0%, 12.976074%)" offset="0.21875"/><stop stop-opacity="1" stop-color="rgb(9.768677%, 0%, 13.206482%)" offset="0.222656"/><stop stop-opacity="1" stop-color="rgb(9.939575%, 0%, 13.435364%)" offset="0.226562"/><stop stop-opacity="1" stop-color="rgb(10.108948%, 0%, 13.665771%)" offset="0.230469"/><stop stop-opacity="1" stop-color="rgb(10.27832%, 0%, 13.894653%)" offset="0.234375"/><stop stop-opacity="1" stop-color="rgb(10.449219%, 0%, 14.125061%)" offset="0.238281"/><stop stop-opacity="1" stop-color="rgb(10.618591%, 0%, 14.353943%)" offset="0.242188"/><stop stop-opacity="1" stop-color="rgb(10.78949%, 0%, 14.584351%)" offset="0.246094"/><stop stop-opacity="1" stop-color="rgb(10.958862%, 0%, 14.813232%)" offset="0.25"/><stop stop-opacity="1" stop-color="rgb(11.128235%, 0%, 15.04364%)" offset="0.253906"/><stop stop-opacity="1" stop-color="rgb(11.299133%, 0%, 15.272522%)" offset="0.257812"/><stop stop-opacity="1" stop-color="rgb(11.468506%, 0%, 15.50293%)" offset="0.261719"/><stop stop-opacity="1" stop-color="rgb(11.637878%, 0%, 15.731812%)" offset="0.265625"/><stop stop-opacity="1" stop-color="rgb(11.808777%, 0%, 15.962219%)" offset="0.269531"/><stop stop-opacity="1" stop-color="rgb(11.978149%, 0%, 16.191101%)" offset="0.273438"/><stop stop-opacity="1" stop-color="rgb(12.147522%, 0%, 16.421509%)" offset="0.277344"/><stop stop-opacity="1" stop-color="rgb(12.31842%, 0%, 16.651917%)" offset="0.28125"/><stop stop-opacity="1" stop-color="rgb(12.487793%, 0%, 16.880798%)" offset="0.285156"/><stop stop-opacity="1" stop-color="rgb(12.658691%, 0%, 17.111206%)" offset="0.289062"/><stop stop-opacity="1" stop-color="rgb(12.828064%, 0%, 17.340088%)" offset="0.292969"/><stop stop-opacity="1" stop-color="rgb(12.997437%, 0%, 17.570496%)" offset="0.296875"/><stop stop-opacity="1" stop-color="rgb(13.168335%, 0%, 17.799377%)" offset="0.300781"/><stop stop-opacity="1" stop-color="rgb(13.337708%, 0%, 18.029785%)" offset="0.304688"/><stop stop-opacity="1" stop-color="rgb(13.50708%, 0%, 18.258667%)" offset="0.308594"/><stop stop-opacity="1" stop-color="rgb(13.677979%, 0%, 18.489075%)" offset="0.3125"/><stop stop-opacity="1" stop-color="rgb(13.847351%, 0%, 18.717957%)" offset="0.316406"/><stop stop-opacity="1" stop-color="rgb(14.016724%, 0%, 18.948364%)" offset="0.320312"/><stop stop-opacity="1" stop-color="rgb(14.187622%, 0%, 19.177246%)" offset="0.324219"/><stop stop-opacity="1" stop-color="rgb(14.356995%, 0%, 19.407654%)" offset="0.328125"/><stop stop-opacity="1" stop-color="rgb(14.526367%, 0%, 19.636536%)" offset="0.332031"/><stop stop-opacity="1" stop-color="rgb(14.697266%, 0%, 19.866943%)" offset="0.335938"/><stop stop-opacity="1" stop-color="rgb(14.866638%, 0%, 20.095825%)" offset="0.339844"/><stop stop-opacity="1" stop-color="rgb(15.037537%, 0%, 20.326233%)" offset="0.34375"/><stop stop-opacity="1" stop-color="rgb(15.206909%, 0%, 20.555115%)" offset="0.347656"/><stop stop-opacity="1" stop-color="rgb(15.376282%, 0%, 20.785522%)" offset="0.351562"/><stop stop-opacity="1" stop-color="rgb(15.54718%, 0%, 21.01593%)" offset="0.355469"/><stop stop-opacity="1" stop-color="rgb(15.716553%, 0%, 21.244812%)" offset="0.359375"/><stop stop-opacity="1" stop-color="rgb(15.885925%, 0%, 21.47522%)" offset="0.363281"/><stop stop-opacity="1" stop-color="rgb(16.056824%, 0%, 21.704102%)" offset="0.367188"/><stop stop-opacity="1" stop-color="rgb(16.226196%, 0%, 21.934509%)" offset="0.371094"/><stop stop-opacity="1" stop-color="rgb(16.395569%, 0%, 22.163391%)" offset="0.375"/><stop stop-opacity="1" stop-color="rgb(16.566467%, 0%, 22.393799%)" offset="0.378906"/><stop stop-opacity="1" stop-color="rgb(16.73584%, 0%, 22.622681%)" offset="0.382812"/><stop stop-opacity="1" stop-color="rgb(16.906738%, 0%, 22.853088%)" offset="0.386719"/><stop stop-opacity="1" stop-color="rgb(17.076111%, 0%, 23.08197%)" offset="0.390625"/><stop stop-opacity="1" stop-color="rgb(17.245483%, 0%, 23.312378%)" offset="0.394531"/><stop stop-opacity="1" stop-color="rgb(17.416382%, 0%, 23.54126%)" offset="0.398438"/><stop stop-opacity="1" stop-color="rgb(17.585754%, 0%, 23.771667%)" offset="0.402344"/><stop stop-opacity="1" stop-color="rgb(17.755127%, 0%, 24.000549%)" offset="0.40625"/><stop stop-opacity="1" stop-color="rgb(17.926025%, 0%, 24.230957%)" offset="0.410156"/><stop stop-opacity="1" stop-color="rgb(18.095398%, 0%, 24.459839%)" offset="0.414062"/><stop stop-opacity="1" stop-color="rgb(18.264771%, 0%, 24.690247%)" offset="0.417969"/><stop stop-opacity="1" stop-color="rgb(18.435669%, 0%, 24.920654%)" offset="0.421875"/><stop stop-opacity="1" stop-color="rgb(18.605042%, 0%, 25.149536%)" offset="0.425781"/><stop stop-opacity="1" stop-color="rgb(18.774414%, 0%, 25.379944%)" offset="0.429688"/><stop stop-opacity="1" stop-color="rgb(18.945312%, 0%, 25.608826%)" offset="0.433594"/><stop stop-opacity="1" stop-color="rgb(19.114685%, 0%, 25.839233%)" offset="0.4375"/><stop stop-opacity="1" stop-color="rgb(19.285583%, 0%, 26.068115%)" offset="0.441406"/><stop stop-opacity="1" stop-color="rgb(19.454956%, 0%, 26.298523%)" offset="0.445312"/><stop stop-opacity="1" stop-color="rgb(19.624329%, 0%, 26.527405%)" offset="0.449219"/><stop stop-opacity="1" stop-color="rgb(19.795227%, 0%, 26.757812%)" offset="0.453125"/><stop stop-opacity="1" stop-color="rgb(19.9646%, 0%, 26.986694%)" offset="0.457031"/><stop stop-opacity="1" stop-color="rgb(20.133972%, 0%, 27.217102%)" offset="0.460938"/><stop stop-opacity="1" stop-color="rgb(20.304871%, 0%, 27.445984%)" offset="0.464844"/><stop stop-opacity="1" stop-color="rgb(20.474243%, 0%, 27.676392%)" offset="0.46875"/><stop stop-opacity="1" stop-color="rgb(20.643616%, 0%, 27.905273%)" offset="0.472656"/><stop stop-opacity="1" stop-color="rgb(20.814514%, 0%, 28.135681%)" offset="0.476562"/><stop stop-opacity="1" stop-color="rgb(20.983887%, 0%, 28.364563%)" offset="0.480469"/><stop stop-opacity="1" stop-color="rgb(21.154785%, 0%, 28.594971%)" offset="0.484375"/><stop stop-opacity="1" stop-color="rgb(21.324158%, 0%, 28.825378%)" offset="0.488281"/><stop stop-opacity="1" stop-color="rgb(21.49353%, 0%, 29.05426%)" offset="0.492188"/><stop stop-opacity="1" stop-color="rgb(21.664429%, 0%, 29.284668%)" offset="0.496094"/><stop stop-opacity="1" stop-color="rgb(21.833801%, 0%, 29.51355%)" offset="0.5"/><stop stop-opacity="1" stop-color="rgb(22.003174%, 0%, 29.743958%)" offset="0.503906"/><stop stop-opacity="1" stop-color="rgb(22.174072%, 0%, 29.972839%)" offset="0.507812"/><stop stop-opacity="1" stop-color="rgb(22.343445%, 0%, 30.203247%)" offset="0.511719"/><stop stop-opacity="1" stop-color="rgb(22.512817%, 0%, 30.432129%)" offset="0.515625"/><stop stop-opacity="1" stop-color="rgb(22.683716%, 0%, 30.662537%)" offset="0.519531"/><stop stop-opacity="1" stop-color="rgb(22.853088%, 0%, 30.891418%)" offset="0.523438"/><stop stop-opacity="1" stop-color="rgb(23.022461%, 0%, 31.121826%)" offset="0.527344"/><stop stop-opacity="1" stop-color="rgb(23.193359%, 0%, 31.350708%)" offset="0.53125"/><stop stop-opacity="1" stop-color="rgb(23.362732%, 0%, 31.581116%)" offset="0.535156"/><stop stop-opacity="1" stop-color="rgb(23.53363%, 0%, 31.809998%)" offset="0.539062"/><stop stop-opacity="1" stop-color="rgb(23.703003%, 0%, 32.040405%)" offset="0.542969"/><stop stop-opacity="1" stop-color="rgb(23.872375%, 0%, 32.269287%)" offset="0.546875"/><stop stop-opacity="1" stop-color="rgb(24.043274%, 0%, 32.499695%)" offset="0.550781"/><stop stop-opacity="1" stop-color="rgb(24.212646%, 0%, 32.728577%)" offset="0.554688"/><stop stop-opacity="1" stop-color="rgb(24.382019%, 0%, 32.958984%)" offset="0.558594"/><stop stop-opacity="1" stop-color="rgb(24.552917%, 0%, 33.189392%)" offset="0.5625"/><stop stop-opacity="1" stop-color="rgb(24.72229%, 0%, 33.418274%)" offset="0.566406"/><stop stop-opacity="1" stop-color="rgb(24.891663%, 0%, 33.648682%)" offset="0.570312"/><stop stop-opacity="1" stop-color="rgb(25.062561%, 0%, 33.877563%)" offset="0.574219"/><stop stop-opacity="1" stop-color="rgb(25.231934%, 0%, 34.107971%)" offset="0.578125"/><stop stop-opacity="1" stop-color="rgb(25.402832%, 0%, 34.336853%)" offset="0.582031"/><stop stop-opacity="1" stop-color="rgb(25.572205%, 0%, 34.567261%)" offset="0.585938"/><stop stop-opacity="1" stop-color="rgb(25.741577%, 0%, 34.796143%)" offset="0.589844"/><stop stop-opacity="1" stop-color="rgb(25.912476%, 0%, 35.02655%)" offset="0.59375"/><stop stop-opacity="1" stop-color="rgb(26.081848%, 0%, 35.255432%)" offset="0.597656"/><stop stop-opacity="1" stop-color="rgb(26.251221%, 0%, 35.48584%)" offset="0.601562"/><stop stop-opacity="1" stop-color="rgb(26.422119%, 0%, 35.714722%)" offset="0.605469"/><stop stop-opacity="1" stop-color="rgb(26.591492%, 0%, 35.945129%)" offset="0.609375"/><stop stop-opacity="1" stop-color="rgb(26.760864%, 0%, 36.174011%)" offset="0.613281"/><stop stop-opacity="1" stop-color="rgb(26.931763%, 0%, 36.404419%)" offset="0.617188"/><stop stop-opacity="1" stop-color="rgb(27.101135%, 0%, 36.633301%)" offset="0.621094"/><stop stop-opacity="1" stop-color="rgb(27.270508%, 0%, 36.863708%)" offset="0.625"/><stop stop-opacity="1" stop-color="rgb(27.441406%, 0%, 37.094116%)" offset="0.628906"/><stop stop-opacity="1" stop-color="rgb(27.610779%, 0%, 37.322998%)" offset="0.632812"/><stop stop-opacity="1" stop-color="rgb(27.781677%, 0%, 37.553406%)" offset="0.636719"/><stop stop-opacity="1" stop-color="rgb(27.95105%, 0%, 37.782288%)" offset="0.640625"/><stop stop-opacity="1" stop-color="rgb(28.120422%, 0%, 38.012695%)" offset="0.644531"/><stop stop-opacity="1" stop-color="rgb(28.291321%, 0%, 38.241577%)" offset="0.648438"/><stop stop-opacity="1" stop-color="rgb(28.460693%, 0%, 38.471985%)" offset="0.652344"/><stop stop-opacity="1" stop-color="rgb(28.630066%, 0%, 38.700867%)" offset="0.65625"/><stop stop-opacity="1" stop-color="rgb(28.800964%, 0%, 38.931274%)" offset="0.660156"/><stop stop-opacity="1" stop-color="rgb(28.970337%, 0%, 39.160156%)" offset="0.664062"/><stop stop-opacity="1" stop-color="rgb(29.139709%, 0%, 39.390564%)" offset="0.667969"/><stop stop-opacity="1" stop-color="rgb(29.310608%, 0%, 39.619446%)" offset="0.671875"/><stop stop-opacity="1" stop-color="rgb(29.47998%, 0%, 39.849854%)" offset="0.675781"/><stop stop-opacity="1" stop-color="rgb(29.650879%, 0%, 40.078735%)" offset="0.679688"/><stop stop-opacity="1" stop-color="rgb(29.820251%, 0%, 40.309143%)" offset="0.683594"/><stop stop-opacity="1" stop-color="rgb(29.989624%, 0%, 40.538025%)" offset="0.6875"/><stop stop-opacity="1" stop-color="rgb(30.160522%, 0%, 40.768433%)" offset="0.691406"/><stop stop-opacity="1" stop-color="rgb(30.329895%, 0%, 40.997314%)" offset="0.695312"/><stop stop-opacity="1" stop-color="rgb(30.499268%, 0%, 41.227722%)" offset="0.699219"/><stop stop-opacity="1" stop-color="rgb(30.670166%, 0%, 41.45813%)" offset="0.703125"/><stop stop-opacity="1" stop-color="rgb(30.839539%, 0%, 41.687012%)" offset="0.707031"/><stop stop-opacity="1" stop-color="rgb(31.008911%, 0%, 41.917419%)" offset="0.710938"/><stop stop-opacity="1" stop-color="rgb(31.17981%, 0%, 42.146301%)" offset="0.714844"/><stop stop-opacity="1" stop-color="rgb(31.349182%, 0%, 42.376709%)" offset="0.71875"/><stop stop-opacity="1" stop-color="rgb(31.518555%, 0%, 42.605591%)" offset="0.722656"/><stop stop-opacity="1" stop-color="rgb(31.689453%, 0%, 42.835999%)" offset="0.726562"/><stop stop-opacity="1" stop-color="rgb(31.858826%, 0%, 43.06488%)" offset="0.730469"/><stop stop-opacity="1" stop-color="rgb(32.029724%, 0%, 43.295288%)" offset="0.734375"/><stop stop-opacity="1" stop-color="rgb(32.199097%, 0%, 43.52417%)" offset="0.738281"/><stop stop-opacity="1" stop-color="rgb(32.368469%, 0%, 43.754578%)" offset="0.742188"/><stop stop-opacity="1" stop-color="rgb(32.539368%, 0%, 43.983459%)" offset="0.746094"/><stop stop-opacity="1" stop-color="rgb(32.70874%, 0%, 44.213867%)" offset="0.75"/><stop stop-opacity="1" stop-color="rgb(32.878113%, 0%, 44.442749%)" offset="0.753906"/><stop stop-opacity="1" stop-color="rgb(33.049011%, 0%, 44.673157%)" offset="0.757812"/><stop stop-opacity="1" stop-color="rgb(33.218384%, 0%, 44.902039%)" offset="0.761719"/><stop stop-opacity="1" stop-color="rgb(33.387756%, 0%, 45.132446%)" offset="0.765625"/><stop stop-opacity="1" stop-color="rgb(33.558655%, 0%, 45.362854%)" offset="0.769531"/><stop stop-opacity="1" stop-color="rgb(33.728027%, 0%, 45.591736%)" offset="0.773438"/><stop stop-opacity="1" stop-color="rgb(33.898926%, 0%, 45.822144%)" offset="0.777344"/><stop stop-opacity="1" stop-color="rgb(34.068298%, 0%, 46.051025%)" offset="0.78125"/><stop stop-opacity="1" stop-color="rgb(34.237671%, 0%, 46.281433%)" offset="0.785156"/><stop stop-opacity="1" stop-color="rgb(34.408569%, 0%, 46.510315%)" offset="0.789062"/><stop stop-opacity="1" stop-color="rgb(34.577942%, 0%, 46.740723%)" offset="0.792969"/><stop stop-opacity="1" stop-color="rgb(34.747314%, 0%, 46.969604%)" offset="0.796875"/><stop stop-opacity="1" stop-color="rgb(34.918213%, 0%, 47.200012%)" offset="0.800781"/><stop stop-opacity="1" stop-color="rgb(35.087585%, 0%, 47.428894%)" offset="0.804688"/><stop stop-opacity="1" stop-color="rgb(35.256958%, 0%, 47.659302%)" offset="0.808594"/><stop stop-opacity="1" stop-color="rgb(35.427856%, 0%, 47.888184%)" offset="0.8125"/><stop stop-opacity="1" stop-color="rgb(35.597229%, 0%, 48.118591%)" offset="0.816406"/><stop stop-opacity="1" stop-color="rgb(35.766602%, 0%, 48.347473%)" offset="0.820312"/><stop stop-opacity="1" stop-color="rgb(35.9375%, 0%, 48.577881%)" offset="0.824219"/><stop stop-opacity="1" stop-color="rgb(36.106873%, 0%, 48.806763%)" offset="0.828125"/><stop stop-opacity="1" stop-color="rgb(36.277771%, 0%, 49.03717%)" offset="0.832031"/><stop stop-opacity="1" stop-color="rgb(36.447144%, 0%, 49.266052%)" offset="0.835938"/><stop stop-opacity="1" stop-color="rgb(36.616516%, 0%, 49.49646%)" offset="0.839844"/><stop stop-opacity="1" stop-color="rgb(36.787415%, 0%, 49.726868%)" offset="0.84375"/><stop stop-opacity="1" stop-color="rgb(36.956787%, 0%, 49.95575%)" offset="0.847656"/><stop stop-opacity="1" stop-color="rgb(37.12616%, 0%, 50.186157%)" offset="0.851562"/><stop stop-opacity="1" stop-color="rgb(37.297058%, 0%, 50.415039%)" offset="0.855469"/><stop stop-opacity="1" stop-color="rgb(37.466431%, 0%, 50.645447%)" offset="0.859375"/><stop stop-opacity="1" stop-color="rgb(37.635803%, 0%, 50.874329%)" offset="0.863281"/><stop stop-opacity="1" stop-color="rgb(37.806702%, 0%, 51.104736%)" offset="0.867188"/><stop stop-opacity="1" stop-color="rgb(37.976074%, 0%, 51.333618%)" offset="0.871094"/><stop stop-opacity="1" stop-color="rgb(38.146973%, 0%, 51.564026%)" offset="0.875"/><stop stop-opacity="1" stop-color="rgb(38.316345%, 0%, 51.792908%)" offset="0.878906"/><stop stop-opacity="1" stop-color="rgb(38.485718%, 0%, 52.023315%)" offset="0.882812"/><stop stop-opacity="1" stop-color="rgb(38.656616%, 0%, 52.252197%)" offset="0.886719"/><stop stop-opacity="1" stop-color="rgb(38.825989%, 0%, 52.482605%)" offset="0.890625"/><stop stop-opacity="1" stop-color="rgb(38.995361%, 0%, 52.711487%)" offset="0.894531"/><stop stop-opacity="1" stop-color="rgb(39.16626%, 0%, 52.941895%)" offset="0.898438"/><stop stop-opacity="1" stop-color="rgb(39.335632%, 0%, 53.170776%)" offset="0.902344"/><stop stop-opacity="1" stop-color="rgb(39.505005%, 0%, 53.401184%)" offset="0.90625"/><stop stop-opacity="1" stop-color="rgb(39.675903%, 0%, 53.631592%)" offset="0.910156"/><stop stop-opacity="1" stop-color="rgb(39.845276%, 0%, 53.860474%)" offset="0.914062"/><stop stop-opacity="1" stop-color="rgb(40.014648%, 0%, 54.090881%)" offset="0.917969"/><stop stop-opacity="1" stop-color="rgb(40.185547%, 0%, 54.319763%)" offset="0.921875"/><stop stop-opacity="1" stop-color="rgb(40.354919%, 0%, 54.550171%)" offset="0.925781"/><stop stop-opacity="1" stop-color="rgb(40.525818%, 0%, 54.779053%)" offset="0.929688"/><stop stop-opacity="1" stop-color="rgb(40.69519%, 0%, 55.00946%)" offset="0.933594"/><stop stop-opacity="1" stop-color="rgb(40.864563%, 0%, 55.238342%)" offset="0.9375"/><stop stop-opacity="1" stop-color="rgb(41.035461%, 0%, 55.46875%)" offset="0.941406"/><stop stop-opacity="1" stop-color="rgb(41.204834%, 0%, 55.697632%)" offset="0.945312"/><stop stop-opacity="1" stop-color="rgb(41.374207%, 0%, 55.92804%)" offset="0.949219"/><stop stop-opacity="1" stop-color="rgb(41.545105%, 0%, 56.156921%)" offset="0.953125"/><stop stop-opacity="1" stop-color="rgb(41.714478%, 0%, 56.387329%)" offset="0.957031"/><stop stop-opacity="1" stop-color="rgb(41.88385%, 0%, 56.616211%)" offset="0.960938"/><stop stop-opacity="1" stop-color="rgb(42.054749%, 0%, 56.846619%)" offset="0.964844"/><stop stop-opacity="1" stop-color="rgb(42.224121%, 0%, 57.0755%)" offset="0.96875"/><stop stop-opacity="1" stop-color="rgb(42.39502%, 0%, 57.305908%)" offset="0.972656"/><stop stop-opacity="1" stop-color="rgb(42.564392%, 0%, 57.536316%)" offset="0.976562"/><stop stop-opacity="1" stop-color="rgb(42.733765%, 0%, 57.765198%)" offset="0.980469"/><stop stop-opacity="1" stop-color="rgb(42.904663%, 0%, 57.995605%)" offset="0.984375"/><stop stop-opacity="1" stop-color="rgb(43.074036%, 0%, 58.224487%)" offset="0.988281"/><stop stop-opacity="1" stop-color="rgb(43.243408%, 0%, 58.454895%)" offset="0.992188"/><stop stop-opacity="1" stop-color="rgb(43.414307%, 0%, 58.683777%)" offset="0.996094"/><stop stop-opacity="1" stop-color="rgb(43.499756%, 0%, 58.799744%)" offset="1"/></radialGradient></defs><g clip-path="url(#297ab07f9c)"><g clip-path="url(#feb6458382)"><path fill="url(#c2a8eb65dd)" d="M 15.394531 200.980469 L 15.394531 325.371094 L 1008.589844 325.371094 L 1008.589844 200.980469 Z M 15.394531 200.980469 " fill-rule="nonzero"/></g></g><g fill="#ffffff" fill-opacity="1"><g transform="translate(188.098584, 290.181397)"><g><path d="M 10 0 L 10 -19.9375 L 0.359375 -60.515625 L 12.328125 -60.515625 L 15.71875 -40.015625 L 19.09375 -60.515625 L 31.0625 -60.515625 L 21.421875 -19.9375 L 21.421875 0 Z M 10 0 "/></g></g></g><g fill="#ffffff" fill-opacity="1"><g transform="translate(219.509213, 290.181397)"><g><path d="M 2.671875 0 L 2.671875 -60.515625 L 26.90625 -60.515625 L 26.90625 -48.828125 L 15 -48.828125 L 15 -37.0625 L 26.421875 -37.0625 L 26.421875 -25.640625 L 15 -25.640625 L 15 -11.765625 L 27.6875 -11.765625 L 27.6875 0 Z M 2.671875 0 "/></g></g></g><g fill="#ffffff" fill-opacity="1"><g transform="translate(248.525315, 290.181397)"><g><path d="M 17.046875 0.5625 C 11.554688 0.5625 7.585938 -0.796875 5.140625 -3.515625 C 2.703125 -6.242188 1.484375 -10.640625 1.484375 -16.703125 L 1.484375 -22.609375 L 13.390625 -22.609375 L 13.390625 -15.078125 C 13.390625 -12.066406 14.351562 -10.5625 16.28125 -10.5625 C 17.351562 -10.5625 18.097656 -10.878906 18.515625 -11.515625 C 18.941406 -12.148438 19.15625 -13.21875 19.15625 -14.71875 C 19.15625 -16.695312 18.921875 -18.332031 18.453125 -19.625 C 17.984375 -20.914062 17.382812 -21.992188 16.65625 -22.859375 C 15.925781 -23.734375 14.625 -25.082031 12.75 -26.90625 L 7.53125 -32.125 C 3.5 -36.070312 1.484375 -40.441406 1.484375 -45.234375 C 1.484375 -50.398438 2.664062 -54.332031 5.03125 -57.03125 C 7.40625 -59.726562 10.867188 -61.078125 15.421875 -61.078125 C 20.878906 -61.078125 24.800781 -59.632812 27.1875 -56.75 C 29.582031 -53.863281 30.78125 -49.34375 30.78125 -43.1875 L 18.453125 -43.1875 L 18.390625 -47.34375 C 18.390625 -48.144531 18.164062 -48.78125 17.71875 -49.25 C 17.269531 -49.71875 16.648438 -49.953125 15.859375 -49.953125 C 14.910156 -49.953125 14.203125 -49.691406 13.734375 -49.171875 C 13.265625 -48.660156 13.03125 -47.957031 13.03125 -47.0625 C 13.03125 -45.09375 14.160156 -43.050781 16.421875 -40.9375 L 23.453125 -34.171875 C 25.097656 -32.578125 26.460938 -31.0625 27.546875 -29.625 C 28.628906 -28.195312 29.5 -26.503906 30.15625 -24.546875 C 30.8125 -22.597656 31.140625 -20.285156 31.140625 -17.609375 C 31.140625 -11.648438 30.046875 -7.128906 27.859375 -4.046875 C 25.679688 -0.972656 22.078125 0.5625 17.046875 0.5625 Z M 17.046875 0.5625 "/></g></g></g><g fill="#ffffff" fill-opacity="1"><g transform="translate(280.992357, 290.181397)"><g><path d="M 4.296875 -16.484375 L 1.90625 -60.515625 L 14.234375 -60.515625 L 11.765625 -16.484375 Z M 1.90625 0 L 1.90625 -10.28125 L 14.234375 -10.28125 L 14.234375 0 Z M 1.90625 0 "/></g></g></g><g fill="#ffffff" fill-opacity="1"><g transform="translate(297.120222, 290.181397)"><g/></g></g><g fill="#ffffff" fill-opacity="1"><g transform="translate(313.60025, 290.181397)"><g><path d="M 2.671875 -60.515625 L 19.09375 -60.515625 C 23.507812 -60.515625 26.710938 -59.429688 28.703125 -57.265625 C 30.703125 -55.109375 31.703125 -51.585938 31.703125 -46.703125 L 31.703125 -44.03125 C 31.703125 -38.257812 29.632812 -34.804688 25.5 -33.671875 C 28.039062 -33.015625 29.828125 -31.488281 30.859375 -29.09375 C 31.890625 -26.695312 32.40625 -23.53125 32.40625 -19.59375 C 32.40625 -13.15625 31.441406 -8.28125 29.515625 -4.96875 C 27.585938 -1.65625 24.113281 0 19.09375 0 L 2.671875 0 Z M 16.984375 -37.765625 C 18.015625 -37.765625 18.71875 -38.148438 19.09375 -38.921875 C 19.46875 -39.703125 19.65625 -40.796875 19.65625 -42.203125 L 19.65625 -48.265625 C 19.65625 -50.234375 18.785156 -51.21875 17.046875 -51.21875 L 14.515625 -51.21875 L 14.515625 -37.765625 Z M 15.71875 -10.640625 C 18.863281 -10.640625 20.4375 -12.140625 20.4375 -15.140625 L 20.4375 -22.6875 C 20.4375 -24.519531 20.164062 -25.90625 19.625 -26.84375 C 19.082031 -27.78125 18.128906 -28.25 16.765625 -28.25 L 14.515625 -28.25 L 14.515625 -10.703125 Z M 15.71875 -10.640625 "/></g></g></g><g fill="#ffffff" fill-opacity="1"><g transform="translate(347.334981, 290.181397)"><g><path d="M 17.125 0.5625 C 12.238281 0.5625 8.523438 -0.925781 5.984375 -3.90625 C 3.453125 -6.894531 2.1875 -11.085938 2.1875 -16.484375 L 2.1875 -45.296875 C 2.1875 -50.515625 3.453125 -54.445312 5.984375 -57.09375 C 8.523438 -59.75 12.238281 -61.078125 17.125 -61.078125 C 22.007812 -61.078125 25.71875 -59.75 28.25 -57.09375 C 30.789062 -54.445312 32.0625 -50.515625 32.0625 -45.296875 L 32.0625 -16.484375 C 32.0625 -11.035156 30.789062 -6.832031 28.25 -3.875 C 25.71875 -0.914062 22.007812 0.5625 17.125 0.5625 Z M 17.125 -10.5625 C 18.195312 -10.5625 18.921875 -11.03125 19.296875 -11.96875 C 19.679688 -12.914062 19.875 -14.234375 19.875 -15.921875 L 19.875 -45.515625 C 19.875 -46.828125 19.695312 -47.894531 19.34375 -48.71875 C 18.988281 -49.539062 18.269531 -49.953125 17.1875 -49.953125 C 15.164062 -49.953125 14.15625 -48.425781 14.15625 -45.375 L 14.15625 -15.859375 C 14.15625 -14.117188 14.363281 -12.800781 14.78125 -11.90625 C 15.207031 -11.007812 15.988281 -10.5625 17.125 -10.5625 Z M 17.125 -10.5625 "/></g></g></g><g fill="#ffffff" fill-opacity="1"><g transform="translate(381.562688, 290.181397)"><g><path d="M 17.125 0.5625 C 12.238281 0.5625 8.523438 -0.925781 5.984375 -3.90625 C 3.453125 -6.894531 2.1875 -11.085938 2.1875 -16.484375 L 2.1875 -45.296875 C 2.1875 -50.515625 3.453125 -54.445312 5.984375 -57.09375 C 8.523438 -59.75 12.238281 -61.078125 17.125 -61.078125 C 22.007812 -61.078125 25.71875 -59.75 28.25 -57.09375 C 30.789062 -54.445312 32.0625 -50.515625 32.0625 -45.296875 L 32.0625 -16.484375 C 32.0625 -11.035156 30.789062 -6.832031 28.25 -3.875 C 25.71875 -0.914062 22.007812 0.5625 17.125 0.5625 Z M 17.125 -10.5625 C 18.195312 -10.5625 18.921875 -11.03125 19.296875 -11.96875 C 19.679688 -12.914062 19.875 -14.234375 19.875 -15.921875 L 19.875 -45.515625 C 19.875 -46.828125 19.695312 -47.894531 19.34375 -48.71875 C 18.988281 -49.539062 18.269531 -49.953125 17.1875 -49.953125 C 15.164062 -49.953125 14.15625 -48.425781 14.15625 -45.375 L 14.15625 -15.859375 C 14.15625 -14.117188 14.363281 -12.800781 14.78125 -11.90625 C 15.207031 -11.007812 15.988281 -10.5625 17.125 -10.5625 Z M 17.125 -10.5625 "/></g></g></g><g fill="#ffffff" fill-opacity="1"><g transform="translate(415.790395, 290.181397)"><g><path d="M 2.671875 0 L 2.671875 -60.515625 L 14.65625 -60.515625 L 14.65625 -36.28125 L 20.296875 -60.515625 L 32.484375 -60.515625 L 25.71875 -32.828125 L 33.890625 0 L 21.34375 0 L 14.71875 -29.3125 L 14.71875 0 Z M 2.671875 0 "/></g></g></g><g fill="#ffffff" fill-opacity="1"><g transform="translate(449.032151, 290.181397)"><g/></g></g><g fill="#ffffff" fill-opacity="1"><g transform="translate(465.512179, 290.181397)"><g><path d="M 2.671875 0 L 2.671875 -60.515625 L 21.140625 -60.515625 L 26.203125 -23.609375 L 31.28125 -60.515625 L 49.875 -60.515625 L 49.875 0 L 38.8125 0 L 38.8125 -43.609375 L 31.84375 0 L 21 0 L 13.59375 -43.609375 L 13.59375 0 Z M 2.671875 0 "/></g></g></g><g fill="#ffffff" fill-opacity="1"><g transform="translate(518.051041, 290.181397)"><g><path d="M 10 0 L 10 -19.9375 L 0.359375 -60.515625 L 12.328125 -60.515625 L 15.71875 -40.015625 L 19.09375 -60.515625 L 31.0625 -60.515625 L 21.421875 -19.9375 L 21.421875 0 Z M 10 0 "/></g></g></g><g fill="#ffffff" fill-opacity="1"><g transform="translate(549.46167, 290.181397)"><g/></g></g><g fill="#ffffff" fill-opacity="1"><g transform="translate(565.941698, 290.181397)"><g><path d="M 17.046875 0.5625 C 11.554688 0.5625 7.585938 -0.796875 5.140625 -3.515625 C 2.703125 -6.242188 1.484375 -10.640625 1.484375 -16.703125 L 1.484375 -22.609375 L 13.390625 -22.609375 L 13.390625 -15.078125 C 13.390625 -12.066406 14.351562 -10.5625 16.28125 -10.5625 C 17.351562 -10.5625 18.097656 -10.878906 18.515625 -11.515625 C 18.941406 -12.148438 19.15625 -13.21875 19.15625 -14.71875 C 19.15625 -16.695312 18.921875 -18.332031 18.453125 -19.625 C 17.984375 -20.914062 17.382812 -21.992188 16.65625 -22.859375 C 15.925781 -23.734375 14.625 -25.082031 12.75 -26.90625 L 7.53125 -32.125 C 3.5 -36.070312 1.484375 -40.441406 1.484375 -45.234375 C 1.484375 -50.398438 2.664062 -54.332031 5.03125 -57.03125 C 7.40625 -59.726562 10.867188 -61.078125 15.421875 -61.078125 C 20.878906 -61.078125 24.800781 -59.632812 27.1875 -56.75 C 29.582031 -53.863281 30.78125 -49.34375 30.78125 -43.1875 L 18.453125 -43.1875 L 18.390625 -47.34375 C 18.390625 -48.144531 18.164062 -48.78125 17.71875 -49.25 C 17.269531 -49.71875 16.648438 -49.953125 15.859375 -49.953125 C 14.910156 -49.953125 14.203125 -49.691406 13.734375 -49.171875 C 13.265625 -48.660156 13.03125 -47.957031 13.03125 -47.0625 C 13.03125 -45.09375 14.160156 -43.050781 16.421875 -40.9375 L 23.453125 -34.171875 C 25.097656 -32.578125 26.460938 -31.0625 27.546875 -29.625 C 28.628906 -28.195312 29.5 -26.503906 30.15625 -24.546875 C 30.8125 -22.597656 31.140625 -20.285156 31.140625 -17.609375 C 31.140625 -11.648438 30.046875 -7.128906 27.859375 -4.046875 C 25.679688 -0.972656 22.078125 0.5625 17.046875 0.5625 Z M 17.046875 0.5625 "/></g></g></g><g fill="#ffffff" fill-opacity="1"><g transform="translate(598.40874, 290.181397)"><g><path d="M 2.671875 0 L 2.671875 -60.515625 L 14.796875 -60.515625 L 14.796875 -10.28125 L 27.265625 -10.28125 L 27.265625 0 Z M 2.671875 0 "/></g></g></g><g fill="#ffffff" fill-opacity="1"><g transform="translate(626.368429, 290.181397)"><g><path d="M 17.125 0.5625 C 12.238281 0.5625 8.523438 -0.925781 5.984375 -3.90625 C 3.453125 -6.894531 2.1875 -11.085938 2.1875 -16.484375 L 2.1875 -45.296875 C 2.1875 -50.515625 3.453125 -54.445312 5.984375 -57.09375 C 8.523438 -59.75 12.238281 -61.078125 17.125 -61.078125 C 22.007812 -61.078125 25.71875 -59.75 28.25 -57.09375 C 30.789062 -54.445312 32.0625 -50.515625 32.0625 -45.296875 L 32.0625 -16.484375 C 32.0625 -11.035156 30.789062 -6.832031 28.25 -3.875 C 25.71875 -0.914062 22.007812 0.5625 17.125 0.5625 Z M 17.125 -10.5625 C 18.195312 -10.5625 18.921875 -11.03125 19.296875 -11.96875 C 19.679688 -12.914062 19.875 -14.234375 19.875 -15.921875 L 19.875 -45.515625 C 19.875 -46.828125 19.695312 -47.894531 19.34375 -48.71875 C 18.988281 -49.539062 18.269531 -49.953125 17.1875 -49.953125 C 15.164062 -49.953125 14.15625 -48.425781 14.15625 -45.375 L 14.15625 -15.859375 C 14.15625 -14.117188 14.363281 -12.800781 14.78125 -11.90625 C 15.207031 -11.007812 15.988281 -10.5625 17.125 -10.5625 Z M 17.125 -10.5625 "/></g></g></g><g fill="#ffffff" fill-opacity="1"><g transform="translate(660.596135, 290.181397)"><g><path d="M 7.890625 0 L 7.890625 -48.890625 L 0.703125 -48.890625 L 0.703125 -60.515625 L 27.1875 -60.515625 L 27.1875 -48.890625 L 20.015625 -48.890625 L 20.015625 0 Z M 7.890625 0 "/></g></g></g><g fill="#ffffff" fill-opacity="1"><g transform="translate(688.485399, 290.181397)"><g/></g></g><g fill="#ffffff" fill-opacity="1"><g transform="translate(704.965427, 290.181397)"><g><path d="M 2.671875 0 L 2.671875 -60.515625 L 15.140625 -60.515625 L 20.71875 -31.5625 L 20.71875 -60.515625 L 32.40625 -60.515625 L 32.40625 0 L 20.578125 0 L 14.515625 -30.296875 L 14.515625 0 Z M 2.671875 0 "/></g></g></g><g fill="#ffffff" fill-opacity="1"><g transform="translate(740.038272, 290.181397)"><g><path d="M 17.125 0.5625 C 12.238281 0.5625 8.523438 -0.925781 5.984375 -3.90625 C 3.453125 -6.894531 2.1875 -11.085938 2.1875 -16.484375 L 2.1875 -45.296875 C 2.1875 -50.515625 3.453125 -54.445312 5.984375 -57.09375 C 8.523438 -59.75 12.238281 -61.078125 17.125 -61.078125 C 22.007812 -61.078125 25.71875 -59.75 28.25 -57.09375 C 30.789062 -54.445312 32.0625 -50.515625 32.0625 -45.296875 L 32.0625 -16.484375 C 32.0625 -11.035156 30.789062 -6.832031 28.25 -3.875 C 25.71875 -0.914062 22.007812 0.5625 17.125 0.5625 Z M 17.125 -10.5625 C 18.195312 -10.5625 18.921875 -11.03125 19.296875 -11.96875 C 19.679688 -12.914062 19.875 -14.234375 19.875 -15.921875 L 19.875 -45.515625 C 19.875 -46.828125 19.695312 -47.894531 19.34375 -48.71875 C 18.988281 -49.539062 18.269531 -49.953125 17.1875 -49.953125 C 15.164062 -49.953125 14.15625 -48.425781 14.15625 -45.375 L 14.15625 -15.859375 C 14.15625 -14.117188 14.363281 -12.800781 14.78125 -11.90625 C 15.207031 -11.007812 15.988281 -10.5625 17.125 -10.5625 Z M 17.125 -10.5625 "/></g></g></g><g fill="#ffffff" fill-opacity="1"><g transform="translate(774.265979, 290.181397)"><g><path d="M 7.390625 0 L 0.921875 -60.515625 L 12.75 -60.515625 L 16.140625 -22.328125 L 19.515625 -60.515625 L 30.78125 -60.515625 L 34.03125 -22.328125 L 37.265625 -60.515625 L 49.25 -60.515625 L 42.625 0 L 28.109375 0 L 25.078125 -29.171875 L 22.1875 0 Z M 7.390625 0 "/></g></g></g><g fill="#ffffff" fill-opacity="1"><g transform="translate(159.563162, 356.944141)"><g><path d="M 3.671875 -2.234375 L 13.109375 -2.234375 L 12.640625 0 L 0.703125 0 L 4.640625 -18.609375 L 7.15625 -18.609375 Z M 3.671875 -2.234375 "/></g></g></g><g fill="#ffffff" fill-opacity="1"><g transform="translate(173.96799, 356.944141)"><g><path d="M 2.59375 0 L 0.3125 0 L 3.203125 -13.5625 L 5.484375 -13.5625 Z M 3.71875 -16.03125 L 4.265625 -18.609375 L 6.546875 -18.609375 L 6 -16.03125 Z M 3.71875 -16.03125 "/></g></g></g><g fill="#ffffff" fill-opacity="1"><g transform="translate(179.659098, 356.944141)"><g><path d="M 3.203125 -13.5625 L 5.359375 -13.5625 L 4.953125 -11.640625 L 5 -11.640625 C 6.363281 -13.179688 7.90625 -13.953125 9.625 -13.953125 C 11.269531 -13.953125 12.296875 -13.21875 12.703125 -11.75 C 14.117188 -13.21875 15.65625 -13.953125 17.3125 -13.953125 C 18.320312 -13.953125 19.140625 -13.65625 19.765625 -13.0625 C 20.390625 -12.46875 20.703125 -11.671875 20.703125 -10.671875 C 20.703125 -10.253906 20.65625 -9.820312 20.5625 -9.375 L 18.5625 0 L 16.296875 0 L 18.15625 -8.765625 C 18.25 -9.191406 18.296875 -9.59375 18.296875 -9.96875 C 18.296875 -10.570312 18.140625 -11.039062 17.828125 -11.375 C 17.515625 -11.71875 17.0625 -11.890625 16.46875 -11.890625 C 15.519531 -11.890625 14.648438 -11.539062 13.859375 -10.84375 C 13.066406 -10.144531 12.5625 -9.285156 12.34375 -8.265625 L 10.578125 0 L 8.296875 0 L 10.296875 -9.375 C 10.359375 -9.664062 10.390625 -9.925781 10.390625 -10.15625 C 10.390625 -10.71875 10.238281 -11.144531 9.9375 -11.4375 C 9.644531 -11.738281 9.226562 -11.890625 8.6875 -11.890625 C 7.507812 -11.890625 6.523438 -11.445312 5.734375 -10.5625 C 4.941406 -9.6875 4.421875 -8.628906 4.171875 -7.390625 L 2.59375 0 L 0.3125 0 Z M 3.203125 -13.5625 "/></g></g></g><g fill="#ffffff" fill-opacity="1"><g transform="translate(201.146194, 356.944141)"><g><path d="M 2.59375 0 L 0.3125 0 L 3.203125 -13.5625 L 5.484375 -13.5625 Z M 3.71875 -16.03125 L 4.265625 -18.609375 L 6.546875 -18.609375 L 6 -16.03125 Z M 3.71875 -16.03125 "/></g></g></g><g fill="#ffffff" fill-opacity="1"><g transform="translate(206.837303, 356.944141)"><g><path d="M 5.546875 -11.671875 L 3.671875 -2.84375 C 3.640625 -2.726562 3.625 -2.617188 3.625 -2.515625 C 3.625 -2.273438 3.707031 -2.09375 3.875 -1.96875 C 4.050781 -1.84375 4.34375 -1.78125 4.75 -1.78125 L 5.625 -1.78125 L 5.234375 0 C 4.523438 0.113281 3.941406 0.171875 3.484375 0.171875 C 2.722656 0.171875 2.15625 0.0195312 1.78125 -0.28125 C 1.414062 -0.582031 1.234375 -1.039062 1.234375 -1.65625 C 1.234375 -1.945312 1.273438 -2.300781 1.359375 -2.71875 L 3.265625 -11.671875 L 1.4375 -11.671875 L 1.828125 -13.5625 L 3.671875 -13.5625 L 4.46875 -17.34375 L 6.75 -17.34375 L 5.953125 -13.5625 L 8.125 -13.5625 L 7.71875 -11.671875 Z M 5.546875 -11.671875 "/></g></g></g><g fill="#ffffff" fill-opacity="1"><g transform="translate(214.020746, 356.944141)"><g><path d="M 12.71875 -4.25 C 12.164062 -2.820312 11.289062 -1.6875 10.09375 -0.84375 C 8.90625 -0.0078125 7.488281 0.40625 5.84375 0.40625 C 4.28125 0.40625 3.046875 -0.0351562 2.140625 -0.921875 C 1.234375 -1.816406 0.78125 -3.007812 0.78125 -4.5 C 0.78125 -6.9375 1.539062 -9.117188 3.0625 -11.046875 C 4.582031 -12.984375 6.523438 -13.953125 8.890625 -13.953125 C 10.390625 -13.953125 11.550781 -13.515625 12.375 -12.640625 C 13.195312 -11.765625 13.609375 -10.492188 13.609375 -8.828125 C 13.609375 -7.941406 13.492188 -7.007812 13.265625 -6.03125 L 3.359375 -6.03125 C 3.242188 -5.632812 3.1875 -5.191406 3.1875 -4.703125 C 3.1875 -3.722656 3.441406 -2.957031 3.953125 -2.40625 C 4.460938 -1.851562 5.210938 -1.578125 6.203125 -1.578125 C 7.148438 -1.578125 8.007812 -1.816406 8.78125 -2.296875 C 9.550781 -2.785156 10.09375 -3.4375 10.40625 -4.25 Z M 11.296875 -7.859375 C 11.347656 -8.273438 11.375 -8.625 11.375 -8.90625 C 11.375 -9.894531 11.125 -10.640625 10.625 -11.140625 C 10.125 -11.640625 9.40625 -11.890625 8.46875 -11.890625 C 7.394531 -11.890625 6.441406 -11.546875 5.609375 -10.859375 C 4.785156 -10.171875 4.164062 -9.171875 3.75 -7.859375 Z M 11.296875 -7.859375 "/></g></g></g><g fill="#ffffff" fill-opacity="1"><g transform="translate(228.374986, 356.944141)"><g><path d="M 11.671875 0 L 9.515625 0 L 9.90625 -1.859375 L 9.859375 -1.859375 C 8.640625 -0.359375 7.175781 0.390625 5.46875 0.390625 C 4.03125 0.390625 2.910156 -0.0859375 2.109375 -1.046875 C 1.304688 -2.015625 0.90625 -3.289062 0.90625 -4.875 C 0.90625 -7.34375 1.601562 -9.472656 3 -11.265625 C 4.40625 -13.054688 6.125 -13.953125 8.15625 -13.953125 C 9.894531 -13.953125 11.117188 -13.179688 11.828125 -11.640625 L 11.890625 -11.765625 L 13.34375 -18.609375 L 15.625 -18.609375 Z M 3.21875 -4.96875 C 3.21875 -3.976562 3.453125 -3.164062 3.921875 -2.53125 C 4.390625 -1.894531 5.0625 -1.578125 5.9375 -1.578125 C 7.488281 -1.578125 8.710938 -2.265625 9.609375 -3.640625 C 10.503906 -5.023438 10.953125 -6.632812 10.953125 -8.46875 C 10.953125 -9.65625 10.71875 -10.523438 10.25 -11.078125 C 9.789062 -11.628906 9.117188 -11.90625 8.234375 -11.90625 C 6.703125 -11.90625 5.484375 -11.207031 4.578125 -9.8125 C 3.671875 -8.425781 3.21875 -6.8125 3.21875 -4.96875 Z M 3.21875 -4.96875 "/></g></g></g><g fill="#ffffff" fill-opacity="1"><g transform="translate(243.133928, 356.944141)"><g/></g></g><g fill="#ffffff" fill-opacity="1"><g transform="translate(249.457382, 356.944141)"><g><path d="M 10.09375 -9.703125 C 10.125 -9.867188 10.140625 -10.046875 10.140625 -10.234375 C 10.140625 -10.796875 9.910156 -11.222656 9.453125 -11.515625 C 9.003906 -11.816406 8.335938 -11.96875 7.453125 -11.96875 C 6.566406 -11.96875 5.804688 -11.765625 5.171875 -11.359375 C 4.546875 -10.960938 4.234375 -10.453125 4.234375 -9.828125 C 4.234375 -9.398438 4.363281 -9.078125 4.625 -8.859375 C 4.882812 -8.640625 5.242188 -8.472656 5.703125 -8.359375 L 8.34375 -7.671875 C 9.46875 -7.378906 10.28125 -6.972656 10.78125 -6.453125 C 11.28125 -5.941406 11.53125 -5.289062 11.53125 -4.5 C 11.53125 -3 10.914062 -1.8125 9.6875 -0.9375 C 8.457031 -0.0625 6.972656 0.375 5.234375 0.375 C 3.703125 0.375 2.476562 0.0625 1.5625 -0.5625 C 0.644531 -1.1875 0.1875 -2.0625 0.1875 -3.1875 C 0.1875 -3.582031 0.242188 -3.972656 0.359375 -4.359375 L 2.546875 -4.359375 C 2.503906 -4.117188 2.484375 -3.898438 2.484375 -3.703125 C 2.484375 -3.054688 2.742188 -2.539062 3.265625 -2.15625 C 3.785156 -1.78125 4.535156 -1.59375 5.515625 -1.59375 C 6.578125 -1.59375 7.4375 -1.78125 8.09375 -2.15625 C 8.757812 -2.53125 9.09375 -3.097656 9.09375 -3.859375 C 9.09375 -4.304688 8.945312 -4.664062 8.65625 -4.9375 C 8.375 -5.21875 7.925781 -5.4375 7.3125 -5.59375 L 4.328125 -6.359375 C 3.578125 -6.554688 2.984375 -6.898438 2.546875 -7.390625 C 2.109375 -7.890625 1.890625 -8.507812 1.890625 -9.25 C 1.890625 -10.65625 2.46875 -11.789062 3.625 -12.65625 C 4.78125 -13.519531 6.210938 -13.953125 7.921875 -13.953125 C 9.222656 -13.953125 10.285156 -13.644531 11.109375 -13.03125 C 11.941406 -12.425781 12.359375 -11.601562 12.359375 -10.5625 C 12.359375 -10.269531 12.320312 -9.984375 12.25 -9.703125 Z M 10.09375 -9.703125 "/></g></g></g><g fill="#ffffff" fill-opacity="1"><g transform="translate(262.407815, 356.944141)"><g><path d="M 12.71875 -4.25 C 12.164062 -2.820312 11.289062 -1.6875 10.09375 -0.84375 C 8.90625 -0.0078125 7.488281 0.40625 5.84375 0.40625 C 4.28125 0.40625 3.046875 -0.0351562 2.140625 -0.921875 C 1.234375 -1.816406 0.78125 -3.007812 0.78125 -4.5 C 0.78125 -6.9375 1.539062 -9.117188 3.0625 -11.046875 C 4.582031 -12.984375 6.523438 -13.953125 8.890625 -13.953125 C 10.390625 -13.953125 11.550781 -13.515625 12.375 -12.640625 C 13.195312 -11.765625 13.609375 -10.492188 13.609375 -8.828125 C 13.609375 -7.941406 13.492188 -7.007812 13.265625 -6.03125 L 3.359375 -6.03125 C 3.242188 -5.632812 3.1875 -5.191406 3.1875 -4.703125 C 3.1875 -3.722656 3.441406 -2.957031 3.953125 -2.40625 C 4.460938 -1.851562 5.210938 -1.578125 6.203125 -1.578125 C 7.148438 -1.578125 8.007812 -1.816406 8.78125 -2.296875 C 9.550781 -2.785156 10.09375 -3.4375 10.40625 -4.25 Z M 11.296875 -7.859375 C 11.347656 -8.273438 11.375 -8.625 11.375 -8.90625 C 11.375 -9.894531 11.125 -10.640625 10.625 -11.140625 C 10.125 -11.640625 9.40625 -11.890625 8.46875 -11.890625 C 7.394531 -11.890625 6.441406 -11.546875 5.609375 -10.859375 C 4.785156 -10.171875 4.164062 -9.171875 3.75 -7.859375 Z M 11.296875 -7.859375 "/></g></g></g><g fill="#ffffff" fill-opacity="1"><g transform="translate(276.762055, 356.944141)"><g><path d="M 2.234375 -9.421875 C 2.578125 -10.890625 3.269531 -12.007812 4.3125 -12.78125 C 5.363281 -13.5625 6.789062 -13.953125 8.59375 -13.953125 C 9.851562 -13.953125 10.921875 -13.6875 11.796875 -13.15625 C 12.671875 -12.632812 13.109375 -11.90625 13.109375 -10.96875 C 13.109375 -10.707031 13.082031 -10.4375 13.03125 -10.15625 L 11.359375 -2.359375 C 11.335938 -2.253906 11.328125 -2.164062 11.328125 -2.09375 C 11.328125 -1.738281 11.53125 -1.5625 11.9375 -1.5625 C 12.132812 -1.5625 12.390625 -1.59375 12.703125 -1.65625 L 12.359375 0 C 11.867188 0.164062 11.414062 0.25 11 0.25 C 9.6875 0.25 9.03125 -0.25 9.03125 -1.25 C 9.03125 -1.382812 9.050781 -1.570312 9.09375 -1.8125 C 7.726562 -0.34375 5.972656 0.390625 3.828125 0.390625 C 2.734375 0.390625 1.851562 0.113281 1.1875 -0.4375 C 0.53125 -0.988281 0.203125 -1.796875 0.203125 -2.859375 C 0.203125 -4.078125 0.628906 -5.148438 1.484375 -6.078125 C 2.347656 -7.015625 3.585938 -7.578125 5.203125 -7.765625 L 8.90625 -8.1875 C 9.675781 -8.269531 10.179688 -8.53125 10.421875 -8.96875 C 10.660156 -9.40625 10.78125 -9.859375 10.78125 -10.328125 C 10.78125 -10.890625 10.554688 -11.316406 10.109375 -11.609375 C 9.671875 -11.898438 9.046875 -12.046875 8.234375 -12.046875 C 6.128906 -12.046875 4.835938 -11.171875 4.359375 -9.421875 Z M 10.03125 -6.921875 C 9.6875 -6.609375 8.375 -6.320312 6.09375 -6.0625 C 4.9375 -5.925781 4.078125 -5.617188 3.515625 -5.140625 C 2.953125 -4.671875 2.671875 -4.003906 2.671875 -3.140625 C 2.671875 -2.585938 2.84375 -2.175781 3.1875 -1.90625 C 3.539062 -1.632812 4.023438 -1.5 4.640625 -1.5 C 5.773438 -1.5 6.832031 -1.804688 7.8125 -2.421875 C 8.789062 -3.035156 9.375 -3.796875 9.5625 -4.703125 Z M 10.03125 -6.921875 "/></g></g></g><g fill="#ffffff" fill-opacity="1"><g transform="translate(291.002473, 356.944141)"><g><path d="M 5.546875 -11.671875 L 3.671875 -2.84375 C 3.640625 -2.726562 3.625 -2.617188 3.625 -2.515625 C 3.625 -2.273438 3.707031 -2.09375 3.875 -1.96875 C 4.050781 -1.84375 4.34375 -1.78125 4.75 -1.78125 L 5.625 -1.78125 L 5.234375 0 C 4.523438 0.113281 3.941406 0.171875 3.484375 0.171875 C 2.722656 0.171875 2.15625 0.0195312 1.78125 -0.28125 C 1.414062 -0.582031 1.234375 -1.039062 1.234375 -1.65625 C 1.234375 -1.945312 1.273438 -2.300781 1.359375 -2.71875 L 3.265625 -11.671875 L 1.4375 -11.671875 L 1.828125 -13.5625 L 3.671875 -13.5625 L 4.46875 -17.34375 L 6.75 -17.34375 L 5.953125 -13.5625 L 8.125 -13.5625 L 7.71875 -11.671875 Z M 5.546875 -11.671875 "/></g></g></g><g fill="#ffffff" fill-opacity="1"><g transform="translate(298.185917, 356.944141)"><g><path d="M 10.09375 -9.703125 C 10.125 -9.867188 10.140625 -10.046875 10.140625 -10.234375 C 10.140625 -10.796875 9.910156 -11.222656 9.453125 -11.515625 C 9.003906 -11.816406 8.335938 -11.96875 7.453125 -11.96875 C 6.566406 -11.96875 5.804688 -11.765625 5.171875 -11.359375 C 4.546875 -10.960938 4.234375 -10.453125 4.234375 -9.828125 C 4.234375 -9.398438 4.363281 -9.078125 4.625 -8.859375 C 4.882812 -8.640625 5.242188 -8.472656 5.703125 -8.359375 L 8.34375 -7.671875 C 9.46875 -7.378906 10.28125 -6.972656 10.78125 -6.453125 C 11.28125 -5.941406 11.53125 -5.289062 11.53125 -4.5 C 11.53125 -3 10.914062 -1.8125 9.6875 -0.9375 C 8.457031 -0.0625 6.972656 0.375 5.234375 0.375 C 3.703125 0.375 2.476562 0.0625 1.5625 -0.5625 C 0.644531 -1.1875 0.1875 -2.0625 0.1875 -3.1875 C 0.1875 -3.582031 0.242188 -3.972656 0.359375 -4.359375 L 2.546875 -4.359375 C 2.503906 -4.117188 2.484375 -3.898438 2.484375 -3.703125 C 2.484375 -3.054688 2.742188 -2.539062 3.265625 -2.15625 C 3.785156 -1.78125 4.535156 -1.59375 5.515625 -1.59375 C 6.578125 -1.59375 7.4375 -1.78125 8.09375 -2.15625 C 8.757812 -2.53125 9.09375 -3.097656 9.09375 -3.859375 C 9.09375 -4.304688 8.945312 -4.664062 8.65625 -4.9375 C 8.375 -5.21875 7.925781 -5.4375 7.3125 -5.59375 L 4.328125 -6.359375 C 3.578125 -6.554688 2.984375 -6.898438 2.546875 -7.390625 C 2.109375 -7.890625 1.890625 -8.507812 1.890625 -9.25 C 1.890625 -10.65625 2.46875 -11.789062 3.625 -12.65625 C 4.78125 -13.519531 6.210938 -13.953125 7.921875 -13.953125 C 9.222656 -13.953125 10.285156 -13.644531 11.109375 -13.03125 C 11.941406 -12.425781 12.359375 -11.601562 12.359375 -10.5625 C 12.359375 -10.269531 12.320312 -9.984375 12.25 -9.703125 Z M 10.09375 -9.703125 "/></g></g></g><g fill="#ffffff" fill-opacity="1"><g transform="translate(311.13635, 356.944141)"><g/></g></g><g fill="#ffffff" fill-opacity="1"><g transform="translate(317.459804, 356.944141)"><g><path d="M 2.234375 -9.421875 C 2.578125 -10.890625 3.269531 -12.007812 4.3125 -12.78125 C 5.363281 -13.5625 6.789062 -13.953125 8.59375 -13.953125 C 9.851562 -13.953125 10.921875 -13.6875 11.796875 -13.15625 C 12.671875 -12.632812 13.109375 -11.90625 13.109375 -10.96875 C 13.109375 -10.707031 13.082031 -10.4375 13.03125 -10.15625 L 11.359375 -2.359375 C 11.335938 -2.253906 11.328125 -2.164062 11.328125 -2.09375 C 11.328125 -1.738281 11.53125 -1.5625 11.9375 -1.5625 C 12.132812 -1.5625 12.390625 -1.59375 12.703125 -1.65625 L 12.359375 0 C 11.867188 0.164062 11.414062 0.25 11 0.25 C 9.6875 0.25 9.03125 -0.25 9.03125 -1.25 C 9.03125 -1.382812 9.050781 -1.570312 9.09375 -1.8125 C 7.726562 -0.34375 5.972656 0.390625 3.828125 0.390625 C 2.734375 0.390625 1.851562 0.113281 1.1875 -0.4375 C 0.53125 -0.988281 0.203125 -1.796875 0.203125 -2.859375 C 0.203125 -4.078125 0.628906 -5.148438 1.484375 -6.078125 C 2.347656 -7.015625 3.585938 -7.578125 5.203125 -7.765625 L 8.90625 -8.1875 C 9.675781 -8.269531 10.179688 -8.53125 10.421875 -8.96875 C 10.660156 -9.40625 10.78125 -9.859375 10.78125 -10.328125 C 10.78125 -10.890625 10.554688 -11.316406 10.109375 -11.609375 C 9.671875 -11.898438 9.046875 -12.046875 8.234375 -12.046875 C 6.128906 -12.046875 4.835938 -11.171875 4.359375 -9.421875 Z M 10.03125 -6.921875 C 9.6875 -6.609375 8.375 -6.320312 6.09375 -6.0625 C 4.9375 -5.925781 4.078125 -5.617188 3.515625 -5.140625 C 2.953125 -4.671875 2.671875 -4.003906 2.671875 -3.140625 C 2.671875 -2.585938 2.84375 -2.175781 3.1875 -1.90625 C 3.539062 -1.632812 4.023438 -1.5 4.640625 -1.5 C 5.773438 -1.5 6.832031 -1.804688 7.8125 -2.421875 C 8.789062 -3.035156 9.375 -3.796875 9.5625 -4.703125 Z M 10.03125 -6.921875 "/></g></g></g><g fill="#ffffff" fill-opacity="1"><g transform="translate(331.700222, 356.944141)"><g><path d="M 11.59375 -13.5625 L 14.203125 -13.5625 L 6.15625 0 L 3.71875 0 L 1.640625 -13.5625 L 4.265625 -13.5625 L 5.453125 -2.515625 L 5.5 -2.515625 Z M 11.59375 -13.5625 "/></g></g></g><g fill="#ffffff" fill-opacity="1"><g transform="translate(344.536833, 356.944141)"><g><path d="M 2.234375 -9.421875 C 2.578125 -10.890625 3.269531 -12.007812 4.3125 -12.78125 C 5.363281 -13.5625 6.789062 -13.953125 8.59375 -13.953125 C 9.851562 -13.953125 10.921875 -13.6875 11.796875 -13.15625 C 12.671875 -12.632812 13.109375 -11.90625 13.109375 -10.96875 C 13.109375 -10.707031 13.082031 -10.4375 13.03125 -10.15625 L 11.359375 -2.359375 C 11.335938 -2.253906 11.328125 -2.164062 11.328125 -2.09375 C 11.328125 -1.738281 11.53125 -1.5625 11.9375 -1.5625 C 12.132812 -1.5625 12.390625 -1.59375 12.703125 -1.65625 L 12.359375 0 C 11.867188 0.164062 11.414062 0.25 11 0.25 C 9.6875 0.25 9.03125 -0.25 9.03125 -1.25 C 9.03125 -1.382812 9.050781 -1.570312 9.09375 -1.8125 C 7.726562 -0.34375 5.972656 0.390625 3.828125 0.390625 C 2.734375 0.390625 1.851562 0.113281 1.1875 -0.4375 C 0.53125 -0.988281 0.203125 -1.796875 0.203125 -2.859375 C 0.203125 -4.078125 0.628906 -5.148438 1.484375 -6.078125 C 2.347656 -7.015625 3.585938 -7.578125 5.203125 -7.765625 L 8.90625 -8.1875 C 9.675781 -8.269531 10.179688 -8.53125 10.421875 -8.96875 C 10.660156 -9.40625 10.78125 -9.859375 10.78125 -10.328125 C 10.78125 -10.890625 10.554688 -11.316406 10.109375 -11.609375 C 9.671875 -11.898438 9.046875 -12.046875 8.234375 -12.046875 C 6.128906 -12.046875 4.835938 -11.171875 4.359375 -9.421875 Z M 10.03125 -6.921875 C 9.6875 -6.609375 8.375 -6.320312 6.09375 -6.0625 C 4.9375 -5.925781 4.078125 -5.617188 3.515625 -5.140625 C 2.953125 -4.671875 2.671875 -4.003906 2.671875 -3.140625 C 2.671875 -2.585938 2.84375 -2.175781 3.1875 -1.90625 C 3.539062 -1.632812 4.023438 -1.5 4.640625 -1.5 C 5.773438 -1.5 6.832031 -1.804688 7.8125 -2.421875 C 8.789062 -3.035156 9.375 -3.796875 9.5625 -4.703125 Z M 10.03125 -6.921875 "/></g></g></g><g fill="#ffffff" fill-opacity="1"><g transform="translate(358.777251, 356.944141)"><g><path d="M 2.59375 0 L 0.3125 0 L 3.203125 -13.5625 L 5.484375 -13.5625 Z M 3.71875 -16.03125 L 4.265625 -18.609375 L 6.546875 -18.609375 L 6 -16.03125 Z M 3.71875 -16.03125 "/></g></g></g><g fill="#ffffff" fill-opacity="1"><g transform="translate(364.46836, 356.944141)"><g><path d="M 2.59375 0 L 0.3125 0 L 4.265625 -18.609375 L 6.546875 -18.609375 Z M 2.59375 0 "/></g></g></g><g fill="#ffffff" fill-opacity="1"><g transform="translate(370.159468, 356.944141)"><g><path d="M 2.234375 -9.421875 C 2.578125 -10.890625 3.269531 -12.007812 4.3125 -12.78125 C 5.363281 -13.5625 6.789062 -13.953125 8.59375 -13.953125 C 9.851562 -13.953125 10.921875 -13.6875 11.796875 -13.15625 C 12.671875 -12.632812 13.109375 -11.90625 13.109375 -10.96875 C 13.109375 -10.707031 13.082031 -10.4375 13.03125 -10.15625 L 11.359375 -2.359375 C 11.335938 -2.253906 11.328125 -2.164062 11.328125 -2.09375 C 11.328125 -1.738281 11.53125 -1.5625 11.9375 -1.5625 C 12.132812 -1.5625 12.390625 -1.59375 12.703125 -1.65625 L 12.359375 0 C 11.867188 0.164062 11.414062 0.25 11 0.25 C 9.6875 0.25 9.03125 -0.25 9.03125 -1.25 C 9.03125 -1.382812 9.050781 -1.570312 9.09375 -1.8125 C 7.726562 -0.34375 5.972656 0.390625 3.828125 0.390625 C 2.734375 0.390625 1.851562 0.113281 1.1875 -0.4375 C 0.53125 -0.988281 0.203125 -1.796875 0.203125 -2.859375 C 0.203125 -4.078125 0.628906 -5.148438 1.484375 -6.078125 C 2.347656 -7.015625 3.585938 -7.578125 5.203125 -7.765625 L 8.90625 -8.1875 C 9.675781 -8.269531 10.179688 -8.53125 10.421875 -8.96875 C 10.660156 -9.40625 10.78125 -9.859375 10.78125 -10.328125 C 10.78125 -10.890625 10.554688 -11.316406 10.109375 -11.609375 C 9.671875 -11.898438 9.046875 -12.046875 8.234375 -12.046875 C 6.128906 -12.046875 4.835938 -11.171875 4.359375 -9.421875 Z M 10.03125 -6.921875 C 9.6875 -6.609375 8.375 -6.320312 6.09375 -6.0625 C 4.9375 -5.925781 4.078125 -5.617188 3.515625 -5.140625 C 2.953125 -4.671875 2.671875 -4.003906 2.671875 -3.140625 C 2.671875 -2.585938 2.84375 -2.175781 3.1875 -1.90625 C 3.539062 -1.632812 4.023438 -1.5 4.640625 -1.5 C 5.773438 -1.5 6.832031 -1.804688 7.8125 -2.421875 C 8.789062 -3.035156 9.375 -3.796875 9.5625 -4.703125 Z M 10.03125 -6.921875 "/></g></g></g><g fill="#ffffff" fill-opacity="1"><g transform="translate(384.399887, 356.944141)"><g><path d="M 0.3125 0 L 4.265625 -18.609375 L 6.546875 -18.609375 L 5.109375 -11.84375 L 5.171875 -11.84375 C 6.429688 -13.25 7.863281 -13.953125 9.46875 -13.953125 C 10.863281 -13.953125 11.960938 -13.5 12.765625 -12.59375 C 13.566406 -11.6875 13.96875 -10.5 13.96875 -9.03125 C 13.96875 -6.6875 13.242188 -4.53125 11.796875 -2.5625 C 10.347656 -0.59375 8.535156 0.390625 6.359375 0.390625 C 4.691406 0.390625 3.535156 -0.320312 2.890625 -1.75 L 2.828125 -1.75 L 2.46875 0 Z M 11.5625 -8.78125 C 11.5625 -9.78125 11.320312 -10.546875 10.84375 -11.078125 C 10.363281 -11.617188 9.679688 -11.890625 8.796875 -11.890625 C 7.265625 -11.890625 6.023438 -11.132812 5.078125 -9.625 C 4.140625 -8.113281 3.671875 -6.5 3.671875 -4.78125 C 3.671875 -3.800781 3.929688 -3.019531 4.453125 -2.4375 C 4.972656 -1.863281 5.660156 -1.578125 6.515625 -1.578125 C 7.972656 -1.578125 9.175781 -2.320312 10.125 -3.8125 C 11.082031 -5.3125 11.5625 -6.96875 11.5625 -8.78125 Z M 11.5625 -8.78125 "/></g></g></g><g fill="#ffffff" fill-opacity="1"><g transform="translate(399.032359, 356.944141)"><g><path d="M 2.59375 0 L 0.3125 0 L 4.265625 -18.609375 L 6.546875 -18.609375 Z M 2.59375 0 "/></g></g></g><g fill="#ffffff" fill-opacity="1"><g transform="translate(404.723467, 356.944141)"><g><path d="M 12.71875 -4.25 C 12.164062 -2.820312 11.289062 -1.6875 10.09375 -0.84375 C 8.90625 -0.0078125 7.488281 0.40625 5.84375 0.40625 C 4.28125 0.40625 3.046875 -0.0351562 2.140625 -0.921875 C 1.234375 -1.816406 0.78125 -3.007812 0.78125 -4.5 C 0.78125 -6.9375 1.539062 -9.117188 3.0625 -11.046875 C 4.582031 -12.984375 6.523438 -13.953125 8.890625 -13.953125 C 10.390625 -13.953125 11.550781 -13.515625 12.375 -12.640625 C 13.195312 -11.765625 13.609375 -10.492188 13.609375 -8.828125 C 13.609375 -7.941406 13.492188 -7.007812 13.265625 -6.03125 L 3.359375 -6.03125 C 3.242188 -5.632812 3.1875 -5.191406 3.1875 -4.703125 C 3.1875 -3.722656 3.441406 -2.957031 3.953125 -2.40625 C 4.460938 -1.851562 5.210938 -1.578125 6.203125 -1.578125 C 7.148438 -1.578125 8.007812 -1.816406 8.78125 -2.296875 C 9.550781 -2.785156 10.09375 -3.4375 10.40625 -4.25 Z M 11.296875 -7.859375 C 11.347656 -8.273438 11.375 -8.625 11.375 -8.90625 C 11.375 -9.894531 11.125 -10.640625 10.625 -11.140625 C 10.125 -11.640625 9.40625 -11.890625 8.46875 -11.890625 C 7.394531 -11.890625 6.441406 -11.546875 5.609375 -10.859375 C 4.785156 -10.171875 4.164062 -9.171875 3.75 -7.859375 Z M 11.296875 -7.859375 "/></g></g></g><g fill="#ffffff" fill-opacity="1"><g transform="translate(419.077707, 356.944141)"><g><path d="M 1.4375 -2.75 L 4.140625 -2.75 L 3.59375 -0.203125 C 3.320312 1.078125 2.847656 2.046875 2.171875 2.703125 C 1.492188 3.359375 0.785156 3.726562 0.046875 3.8125 L 0.296875 2.625 C 1.242188 2.507812 1.890625 1.632812 2.234375 0 L 0.859375 0 Z M 1.4375 -2.75 "/></g></g></g><g fill="#ffffff" fill-opacity="1"><g transform="translate(426.273798, 356.944141)"><g/></g></g><g fill="#ffffff" fill-opacity="1"><g transform="translate(432.597252, 356.944141)"><g><path d="M 10.09375 -9.703125 C 10.125 -9.867188 10.140625 -10.046875 10.140625 -10.234375 C 10.140625 -10.796875 9.910156 -11.222656 9.453125 -11.515625 C 9.003906 -11.816406 8.335938 -11.96875 7.453125 -11.96875 C 6.566406 -11.96875 5.804688 -11.765625 5.171875 -11.359375 C 4.546875 -10.960938 4.234375 -10.453125 4.234375 -9.828125 C 4.234375 -9.398438 4.363281 -9.078125 4.625 -8.859375 C 4.882812 -8.640625 5.242188 -8.472656 5.703125 -8.359375 L 8.34375 -7.671875 C 9.46875 -7.378906 10.28125 -6.972656 10.78125 -6.453125 C 11.28125 -5.941406 11.53125 -5.289062 11.53125 -4.5 C 11.53125 -3 10.914062 -1.8125 9.6875 -0.9375 C 8.457031 -0.0625 6.972656 0.375 5.234375 0.375 C 3.703125 0.375 2.476562 0.0625 1.5625 -0.5625 C 0.644531 -1.1875 0.1875 -2.0625 0.1875 -3.1875 C 0.1875 -3.582031 0.242188 -3.972656 0.359375 -4.359375 L 2.546875 -4.359375 C 2.503906 -4.117188 2.484375 -3.898438 2.484375 -3.703125 C 2.484375 -3.054688 2.742188 -2.539062 3.265625 -2.15625 C 3.785156 -1.78125 4.535156 -1.59375 5.515625 -1.59375 C 6.578125 -1.59375 7.4375 -1.78125 8.09375 -2.15625 C 8.757812 -2.53125 9.09375 -3.097656 9.09375 -3.859375 C 9.09375 -4.304688 8.945312 -4.664062 8.65625 -4.9375 C 8.375 -5.21875 7.925781 -5.4375 7.3125 -5.59375 L 4.328125 -6.359375 C 3.578125 -6.554688 2.984375 -6.898438 2.546875 -7.390625 C 2.109375 -7.890625 1.890625 -8.507812 1.890625 -9.25 C 1.890625 -10.65625 2.46875 -11.789062 3.625 -12.65625 C 4.78125 -13.519531 6.210938 -13.953125 7.921875 -13.953125 C 9.222656 -13.953125 10.285156 -13.644531 11.109375 -13.03125 C 11.941406 -12.425781 12.359375 -11.601562 12.359375 -10.5625 C 12.359375 -10.269531 12.320312 -9.984375 12.25 -9.703125 Z M 10.09375 -9.703125 "/></g></g></g><g fill="#ffffff" fill-opacity="1"><g transform="translate(445.547685, 356.944141)"><g><path d="M 8.46875 -11.96875 C 6.9375 -11.96875 5.671875 -11.265625 4.671875 -9.859375 C 3.671875 -8.460938 3.171875 -6.859375 3.171875 -5.046875 C 3.171875 -4.054688 3.429688 -3.234375 3.953125 -2.578125 C 4.484375 -1.921875 5.203125 -1.59375 6.109375 -1.59375 C 7.640625 -1.59375 8.90625 -2.289062 9.90625 -3.6875 C 10.914062 -5.082031 11.421875 -6.6875 11.421875 -8.5 C 11.421875 -9.488281 11.15625 -10.3125 10.625 -10.96875 C 10.09375 -11.632812 9.375 -11.96875 8.46875 -11.96875 Z M 8.84375 -13.9375 C 10.394531 -13.9375 11.609375 -13.445312 12.484375 -12.46875 C 13.359375 -11.5 13.796875 -10.25 13.796875 -8.71875 C 13.796875 -6.375 13.046875 -4.269531 11.546875 -2.40625 C 10.046875 -0.550781 8.109375 0.375 5.734375 0.375 C 4.179688 0.375 2.96875 -0.109375 2.09375 -1.078125 C 1.21875 -2.054688 0.78125 -3.304688 0.78125 -4.828125 C 0.78125 -7.179688 1.53125 -9.285156 3.03125 -11.140625 C 4.539062 -13.003906 6.476562 -13.9375 8.84375 -13.9375 Z M 8.84375 -13.9375 "/></g></g></g><g fill="#ffffff" fill-opacity="1"><g transform="translate(460.028394, 356.944141)"><g/></g></g><g fill="#ffffff" fill-opacity="1"><g transform="translate(466.351848, 356.944141)"><g><path d="M 0.3125 0 L 4.265625 -18.609375 L 6.546875 -18.609375 L 5.109375 -11.84375 L 5.171875 -11.84375 C 6.429688 -13.25 7.863281 -13.953125 9.46875 -13.953125 C 10.863281 -13.953125 11.960938 -13.5 12.765625 -12.59375 C 13.566406 -11.6875 13.96875 -10.5 13.96875 -9.03125 C 13.96875 -6.6875 13.242188 -4.53125 11.796875 -2.5625 C 10.347656 -0.59375 8.535156 0.390625 6.359375 0.390625 C 4.691406 0.390625 3.535156 -0.320312 2.890625 -1.75 L 2.828125 -1.75 L 2.46875 0 Z M 11.5625 -8.78125 C 11.5625 -9.78125 11.320312 -10.546875 10.84375 -11.078125 C 10.363281 -11.617188 9.679688 -11.890625 8.796875 -11.890625 C 7.265625 -11.890625 6.023438 -11.132812 5.078125 -9.625 C 4.140625 -8.113281 3.671875 -6.5 3.671875 -4.78125 C 3.671875 -3.800781 3.929688 -3.019531 4.453125 -2.4375 C 4.972656 -1.863281 5.660156 -1.578125 6.515625 -1.578125 C 7.972656 -1.578125 9.175781 -2.320312 10.125 -3.8125 C 11.082031 -5.3125 11.5625 -6.96875 11.5625 -8.78125 Z M 11.5625 -8.78125 "/></g></g></g><g fill="#ffffff" fill-opacity="1"><g transform="translate(480.98432, 356.944141)"><g><path d="M 8.46875 -11.96875 C 6.9375 -11.96875 5.671875 -11.265625 4.671875 -9.859375 C 3.671875 -8.460938 3.171875 -6.859375 3.171875 -5.046875 C 3.171875 -4.054688 3.429688 -3.234375 3.953125 -2.578125 C 4.484375 -1.921875 5.203125 -1.59375 6.109375 -1.59375 C 7.640625 -1.59375 8.90625 -2.289062 9.90625 -3.6875 C 10.914062 -5.082031 11.421875 -6.6875 11.421875 -8.5 C 11.421875 -9.488281 11.15625 -10.3125 10.625 -10.96875 C 10.09375 -11.632812 9.375 -11.96875 8.46875 -11.96875 Z M 8.84375 -13.9375 C 10.394531 -13.9375 11.609375 -13.445312 12.484375 -12.46875 C 13.359375 -11.5 13.796875 -10.25 13.796875 -8.71875 C 13.796875 -6.375 13.046875 -4.269531 11.546875 -2.40625 C 10.046875 -0.550781 8.109375 0.375 5.734375 0.375 C 4.179688 0.375 2.96875 -0.109375 2.09375 -1.078125 C 1.21875 -2.054688 0.78125 -3.304688 0.78125 -4.828125 C 0.78125 -7.179688 1.53125 -9.285156 3.03125 -11.140625 C 4.539062 -13.003906 6.476562 -13.9375 8.84375 -13.9375 Z M 8.84375 -13.9375 "/></g></g></g><g fill="#ffffff" fill-opacity="1"><g transform="translate(495.46503, 356.944141)"><g><path d="M 8.46875 -11.96875 C 6.9375 -11.96875 5.671875 -11.265625 4.671875 -9.859375 C 3.671875 -8.460938 3.171875 -6.859375 3.171875 -5.046875 C 3.171875 -4.054688 3.429688 -3.234375 3.953125 -2.578125 C 4.484375 -1.921875 5.203125 -1.59375 6.109375 -1.59375 C 7.640625 -1.59375 8.90625 -2.289062 9.90625 -3.6875 C 10.914062 -5.082031 11.421875 -6.6875 11.421875 -8.5 C 11.421875 -9.488281 11.15625 -10.3125 10.625 -10.96875 C 10.09375 -11.632812 9.375 -11.96875 8.46875 -11.96875 Z M 8.84375 -13.9375 C 10.394531 -13.9375 11.609375 -13.445312 12.484375 -12.46875 C 13.359375 -11.5 13.796875 -10.25 13.796875 -8.71875 C 13.796875 -6.375 13.046875 -4.269531 11.546875 -2.40625 C 10.046875 -0.550781 8.109375 0.375 5.734375 0.375 C 4.179688 0.375 2.96875 -0.109375 2.09375 -1.078125 C 1.21875 -2.054688 0.78125 -3.304688 0.78125 -4.828125 C 0.78125 -7.179688 1.53125 -9.285156 3.03125 -11.140625 C 4.539062 -13.003906 6.476562 -13.9375 8.84375 -13.9375 Z M 8.84375 -13.9375 "/></g></g></g><g fill="#ffffff" fill-opacity="1"><g transform="translate(509.945739, 356.944141)"><g><path d="M 8.828125 0 L 5.890625 -6.78125 L 3.546875 -4.84375 L 2.515625 0 L 0.3125 0 L 4.265625 -18.609375 L 6.46875 -18.609375 L 4.171875 -7.828125 L 11.109375 -13.5625 L 14.140625 -13.5625 L 7.8125 -8.359375 L 11.5625 0 Z M 8.828125 0 "/></g></g></g><g fill="#ffffff" fill-opacity="1"><g transform="translate(522.896172, 356.944141)"><g/></g></g><g fill="#ffffff" fill-opacity="1"><g transform="translate(529.219626, 356.944141)"><g><path d="M 11.5625 -13.5625 L 14.09375 -13.5625 L 5.65625 1.09375 C 4.519531 3.070312 3.597656 4.304688 2.890625 4.796875 C 2.179688 5.296875 1.394531 5.546875 0.53125 5.546875 C -0.0195312 5.546875 -0.550781 5.476562 -1.0625 5.34375 L -0.625 3.296875 C -0.09375 3.429688 0.367188 3.5 0.765625 3.5 C 1.210938 3.5 1.609375 3.351562 1.953125 3.0625 C 2.296875 2.769531 2.742188 2.148438 3.296875 1.203125 L 3.78125 0.375 L 1.71875 -13.5625 L 4.25 -13.5625 L 5.5625 -2.515625 L 5.609375 -2.515625 Z M 11.5625 -13.5625 "/></g></g></g><g fill="#ffffff" fill-opacity="1"><g transform="translate(542.068884, 356.944141)"><g><path d="M 8.46875 -11.96875 C 6.9375 -11.96875 5.671875 -11.265625 4.671875 -9.859375 C 3.671875 -8.460938 3.171875 -6.859375 3.171875 -5.046875 C 3.171875 -4.054688 3.429688 -3.234375 3.953125 -2.578125 C 4.484375 -1.921875 5.203125 -1.59375 6.109375 -1.59375 C 7.640625 -1.59375 8.90625 -2.289062 9.90625 -3.6875 C 10.914062 -5.082031 11.421875 -6.6875 11.421875 -8.5 C 11.421875 -9.488281 11.15625 -10.3125 10.625 -10.96875 C 10.09375 -11.632812 9.375 -11.96875 8.46875 -11.96875 Z M 8.84375 -13.9375 C 10.394531 -13.9375 11.609375 -13.445312 12.484375 -12.46875 C 13.359375 -11.5 13.796875 -10.25 13.796875 -8.71875 C 13.796875 -6.375 13.046875 -4.269531 11.546875 -2.40625 C 10.046875 -0.550781 8.109375 0.375 5.734375 0.375 C 4.179688 0.375 2.96875 -0.109375 2.09375 -1.078125 C 1.21875 -2.054688 0.78125 -3.304688 0.78125 -4.828125 C 0.78125 -7.179688 1.53125 -9.285156 3.03125 -11.140625 C 4.539062 -13.003906 6.476562 -13.9375 8.84375 -13.9375 Z M 8.84375 -13.9375 "/></g></g></g><g fill="#ffffff" fill-opacity="1"><g transform="translate(556.549594, 356.944141)"><g><path d="M 8.953125 0 L 9.359375 -1.96875 L 9.328125 -2.03125 C 8.109375 -0.414062 6.5 0.390625 4.5 0.390625 C 3.382812 0.390625 2.5 0.109375 1.84375 -0.453125 C 1.195312 -1.015625 0.875 -1.785156 0.875 -2.765625 C 0.875 -3.054688 0.914062 -3.40625 1 -3.8125 L 3.078125 -13.5625 L 5.359375 -13.5625 L 3.4375 -4.5625 C 3.351562 -4.144531 3.3125 -3.785156 3.3125 -3.484375 C 3.3125 -2.828125 3.503906 -2.34375 3.890625 -2.03125 C 4.273438 -1.726562 4.769531 -1.578125 5.375 -1.578125 C 6.539062 -1.578125 7.539062 -1.972656 8.375 -2.765625 C 9.21875 -3.554688 9.796875 -4.664062 10.109375 -6.09375 L 11.703125 -13.5625 L 13.984375 -13.5625 L 11.09375 0 Z M 8.953125 0 "/></g></g></g><g fill="#ffffff" fill-opacity="1"><g transform="translate(570.739424, 356.944141)"><g><path d="M 2.59375 0 L 0.3125 0 L 3.203125 -13.5625 L 5.359375 -13.5625 L 4.875 -11.296875 L 4.921875 -11.296875 C 6.285156 -13.066406 7.742188 -13.953125 9.296875 -13.953125 C 9.535156 -13.953125 9.726562 -13.925781 9.875 -13.875 L 9.359375 -11.484375 C 9.085938 -11.492188 8.800781 -11.5 8.5 -11.5 C 7.488281 -11.5 6.582031 -11.148438 5.78125 -10.453125 C 4.976562 -9.753906 4.472656 -8.898438 4.265625 -7.890625 Z M 2.59375 0 "/></g></g></g><g fill="#ffffff" fill-opacity="1"><g transform="translate(579.111677, 356.944141)"><g/></g></g><g fill="#ffffff" fill-opacity="1"><g transform="translate(585.435131, 356.944141)"><g><path d="M 10.09375 -9.703125 C 10.125 -9.867188 10.140625 -10.046875 10.140625 -10.234375 C 10.140625 -10.796875 9.910156 -11.222656 9.453125 -11.515625 C 9.003906 -11.816406 8.335938 -11.96875 7.453125 -11.96875 C 6.566406 -11.96875 5.804688 -11.765625 5.171875 -11.359375 C 4.546875 -10.960938 4.234375 -10.453125 4.234375 -9.828125 C 4.234375 -9.398438 4.363281 -9.078125 4.625 -8.859375 C 4.882812 -8.640625 5.242188 -8.472656 5.703125 -8.359375 L 8.34375 -7.671875 C 9.46875 -7.378906 10.28125 -6.972656 10.78125 -6.453125 C 11.28125 -5.941406 11.53125 -5.289062 11.53125 -4.5 C 11.53125 -3 10.914062 -1.8125 9.6875 -0.9375 C 8.457031 -0.0625 6.972656 0.375 5.234375 0.375 C 3.703125 0.375 2.476562 0.0625 1.5625 -0.5625 C 0.644531 -1.1875 0.1875 -2.0625 0.1875 -3.1875 C 0.1875 -3.582031 0.242188 -3.972656 0.359375 -4.359375 L 2.546875 -4.359375 C 2.503906 -4.117188 2.484375 -3.898438 2.484375 -3.703125 C 2.484375 -3.054688 2.742188 -2.539062 3.265625 -2.15625 C 3.785156 -1.78125 4.535156 -1.59375 5.515625 -1.59375 C 6.578125 -1.59375 7.4375 -1.78125 8.09375 -2.15625 C 8.757812 -2.53125 9.09375 -3.097656 9.09375 -3.859375 C 9.09375 -4.304688 8.945312 -4.664062 8.65625 -4.9375 C 8.375 -5.21875 7.925781 -5.4375 7.3125 -5.59375 L 4.328125 -6.359375 C 3.578125 -6.554688 2.984375 -6.898438 2.546875 -7.390625 C 2.109375 -7.890625 1.890625 -8.507812 1.890625 -9.25 C 1.890625 -10.65625 2.46875 -11.789062 3.625 -12.65625 C 4.78125 -13.519531 6.210938 -13.953125 7.921875 -13.953125 C 9.222656 -13.953125 10.285156 -13.644531 11.109375 -13.03125 C 11.941406 -12.425781 12.359375 -11.601562 12.359375 -10.5625 C 12.359375 -10.269531 12.320312 -9.984375 12.25 -9.703125 Z M 10.09375 -9.703125 "/></g></g></g><g fill="#ffffff" fill-opacity="1"><g transform="translate(598.385564, 356.944141)"><g><path d="M 2.59375 0 L 0.3125 0 L 4.265625 -18.609375 L 6.546875 -18.609375 Z M 2.59375 0 "/></g></g></g><g fill="#ffffff" fill-opacity="1"><g transform="translate(604.076673, 356.944141)"><g><path d="M 8.46875 -11.96875 C 6.9375 -11.96875 5.671875 -11.265625 4.671875 -9.859375 C 3.671875 -8.460938 3.171875 -6.859375 3.171875 -5.046875 C 3.171875 -4.054688 3.429688 -3.234375 3.953125 -2.578125 C 4.484375 -1.921875 5.203125 -1.59375 6.109375 -1.59375 C 7.640625 -1.59375 8.90625 -2.289062 9.90625 -3.6875 C 10.914062 -5.082031 11.421875 -6.6875 11.421875 -8.5 C 11.421875 -9.488281 11.15625 -10.3125 10.625 -10.96875 C 10.09375 -11.632812 9.375 -11.96875 8.46875 -11.96875 Z M 8.84375 -13.9375 C 10.394531 -13.9375 11.609375 -13.445312 12.484375 -12.46875 C 13.359375 -11.5 13.796875 -10.25 13.796875 -8.71875 C 13.796875 -6.375 13.046875 -4.269531 11.546875 -2.40625 C 10.046875 -0.550781 8.109375 0.375 5.734375 0.375 C 4.179688 0.375 2.96875 -0.109375 2.09375 -1.078125 C 1.21875 -2.054688 0.78125 -3.304688 0.78125 -4.828125 C 0.78125 -7.179688 1.53125 -9.285156 3.03125 -11.140625 C 4.539062 -13.003906 6.476562 -13.9375 8.84375 -13.9375 Z M 8.84375 -13.9375 "/></g></g></g><g fill="#ffffff" fill-opacity="1"><g transform="translate(618.557382, 356.944141)"><g><path d="M 5.546875 -11.671875 L 3.671875 -2.84375 C 3.640625 -2.726562 3.625 -2.617188 3.625 -2.515625 C 3.625 -2.273438 3.707031 -2.09375 3.875 -1.96875 C 4.050781 -1.84375 4.34375 -1.78125 4.75 -1.78125 L 5.625 -1.78125 L 5.234375 0 C 4.523438 0.113281 3.941406 0.171875 3.484375 0.171875 C 2.722656 0.171875 2.15625 0.0195312 1.78125 -0.28125 C 1.414062 -0.582031 1.234375 -1.039062 1.234375 -1.65625 C 1.234375 -1.945312 1.273438 -2.300781 1.359375 -2.71875 L 3.265625 -11.671875 L 1.4375 -11.671875 L 1.828125 -13.5625 L 3.671875 -13.5625 L 4.46875 -17.34375 L 6.75 -17.34375 L 5.953125 -13.5625 L 8.125 -13.5625 L 7.71875 -11.671875 Z M 5.546875 -11.671875 "/></g></g></g><g fill="#ffffff" fill-opacity="1"><g transform="translate(625.740826, 356.944141)"><g/></g></g><g fill="#ffffff" fill-opacity="1"><g transform="translate(632.064279, 356.944141)"><g><path d="M 0.3125 0 L 4.265625 -18.609375 L 6.546875 -18.609375 L 5.109375 -11.84375 L 5.171875 -11.84375 C 6.429688 -13.25 7.863281 -13.953125 9.46875 -13.953125 C 10.863281 -13.953125 11.960938 -13.5 12.765625 -12.59375 C 13.566406 -11.6875 13.96875 -10.5 13.96875 -9.03125 C 13.96875 -6.6875 13.242188 -4.53125 11.796875 -2.5625 C 10.347656 -0.59375 8.535156 0.390625 6.359375 0.390625 C 4.691406 0.390625 3.535156 -0.320312 2.890625 -1.75 L 2.828125 -1.75 L 2.46875 0 Z M 11.5625 -8.78125 C 11.5625 -9.78125 11.320312 -10.546875 10.84375 -11.078125 C 10.363281 -11.617188 9.679688 -11.890625 8.796875 -11.890625 C 7.265625 -11.890625 6.023438 -11.132812 5.078125 -9.625 C 4.140625 -8.113281 3.671875 -6.5 3.671875 -4.78125 C 3.671875 -3.800781 3.929688 -3.019531 4.453125 -2.4375 C 4.972656 -1.863281 5.660156 -1.578125 6.515625 -1.578125 C 7.972656 -1.578125 9.175781 -2.320312 10.125 -3.8125 C 11.082031 -5.3125 11.5625 -6.96875 11.5625 -8.78125 Z M 11.5625 -8.78125 "/></g></g></g><g fill="#ffffff" fill-opacity="1"><g transform="translate(646.696752, 356.944141)"><g><path d="M 12.71875 -4.25 C 12.164062 -2.820312 11.289062 -1.6875 10.09375 -0.84375 C 8.90625 -0.0078125 7.488281 0.40625 5.84375 0.40625 C 4.28125 0.40625 3.046875 -0.0351562 2.140625 -0.921875 C 1.234375 -1.816406 0.78125 -3.007812 0.78125 -4.5 C 0.78125 -6.9375 1.539062 -9.117188 3.0625 -11.046875 C 4.582031 -12.984375 6.523438 -13.953125 8.890625 -13.953125 C 10.390625 -13.953125 11.550781 -13.515625 12.375 -12.640625 C 13.195312 -11.765625 13.609375 -10.492188 13.609375 -8.828125 C 13.609375 -7.941406 13.492188 -7.007812 13.265625 -6.03125 L 3.359375 -6.03125 C 3.242188 -5.632812 3.1875 -5.191406 3.1875 -4.703125 C 3.1875 -3.722656 3.441406 -2.957031 3.953125 -2.40625 C 4.460938 -1.851562 5.210938 -1.578125 6.203125 -1.578125 C 7.148438 -1.578125 8.007812 -1.816406 8.78125 -2.296875 C 9.550781 -2.785156 10.09375 -3.4375 10.40625 -4.25 Z M 11.296875 -7.859375 C 11.347656 -8.273438 11.375 -8.625 11.375 -8.90625 C 11.375 -9.894531 11.125 -10.640625 10.625 -11.140625 C 10.125 -11.640625 9.40625 -11.890625 8.46875 -11.890625 C 7.394531 -11.890625 6.441406 -11.546875 5.609375 -10.859375 C 4.785156 -10.171875 4.164062 -9.171875 3.75 -7.859375 Z M 11.296875 -7.859375 "/></g></g></g><g fill="#ffffff" fill-opacity="1"><g transform="translate(661.050992, 356.944141)"><g><path d="M 5.546875 -11.671875 L 3.0625 0 L 0.78125 0 L 3.265625 -11.671875 L 1.40625 -11.671875 L 1.8125 -13.5625 L 3.671875 -13.5625 L 4.171875 -15.890625 C 4.378906 -16.910156 4.84375 -17.660156 5.5625 -18.140625 C 6.28125 -18.628906 7.203125 -18.875 8.328125 -18.875 C 8.660156 -18.875 9.003906 -18.859375 9.359375 -18.828125 L 8.921875 -16.78125 C 8.640625 -16.8125 8.328125 -16.828125 7.984375 -16.828125 C 7.523438 -16.828125 7.160156 -16.722656 6.890625 -16.515625 C 6.628906 -16.304688 6.445312 -15.929688 6.34375 -15.390625 L 5.953125 -13.5625 L 8.234375 -13.5625 L 7.828125 -11.671875 Z M 5.546875 -11.671875 "/></g></g></g><g fill="#ffffff" fill-opacity="1"><g transform="translate(668.234435, 356.944141)"><g><path d="M 8.46875 -11.96875 C 6.9375 -11.96875 5.671875 -11.265625 4.671875 -9.859375 C 3.671875 -8.460938 3.171875 -6.859375 3.171875 -5.046875 C 3.171875 -4.054688 3.429688 -3.234375 3.953125 -2.578125 C 4.484375 -1.921875 5.203125 -1.59375 6.109375 -1.59375 C 7.640625 -1.59375 8.90625 -2.289062 9.90625 -3.6875 C 10.914062 -5.082031 11.421875 -6.6875 11.421875 -8.5 C 11.421875 -9.488281 11.15625 -10.3125 10.625 -10.96875 C 10.09375 -11.632812 9.375 -11.96875 8.46875 -11.96875 Z M 8.84375 -13.9375 C 10.394531 -13.9375 11.609375 -13.445312 12.484375 -12.46875 C 13.359375 -11.5 13.796875 -10.25 13.796875 -8.71875 C 13.796875 -6.375 13.046875 -4.269531 11.546875 -2.40625 C 10.046875 -0.550781 8.109375 0.375 5.734375 0.375 C 4.179688 0.375 2.96875 -0.109375 2.09375 -1.078125 C 1.21875 -2.054688 0.78125 -3.304688 0.78125 -4.828125 C 0.78125 -7.179688 1.53125 -9.285156 3.03125 -11.140625 C 4.539062 -13.003906 6.476562 -13.9375 8.84375 -13.9375 Z M 8.84375 -13.9375 "/></g></g></g><g fill="#ffffff" fill-opacity="1"><g transform="translate(682.715145, 356.944141)"><g><path d="M 2.59375 0 L 0.3125 0 L 3.203125 -13.5625 L 5.359375 -13.5625 L 4.875 -11.296875 L 4.921875 -11.296875 C 6.285156 -13.066406 7.742188 -13.953125 9.296875 -13.953125 C 9.535156 -13.953125 9.726562 -13.925781 9.875 -13.875 L 9.359375 -11.484375 C 9.085938 -11.492188 8.800781 -11.5 8.5 -11.5 C 7.488281 -11.5 6.582031 -11.148438 5.78125 -10.453125 C 4.976562 -9.753906 4.472656 -8.898438 4.265625 -7.890625 Z M 2.59375 0 "/></g></g></g><g fill="#ffffff" fill-opacity="1"><g transform="translate(691.087397, 356.944141)"><g><path d="M 12.71875 -4.25 C 12.164062 -2.820312 11.289062 -1.6875 10.09375 -0.84375 C 8.90625 -0.0078125 7.488281 0.40625 5.84375 0.40625 C 4.28125 0.40625 3.046875 -0.0351562 2.140625 -0.921875 C 1.234375 -1.816406 0.78125 -3.007812 0.78125 -4.5 C 0.78125 -6.9375 1.539062 -9.117188 3.0625 -11.046875 C 4.582031 -12.984375 6.523438 -13.953125 8.890625 -13.953125 C 10.390625 -13.953125 11.550781 -13.515625 12.375 -12.640625 C 13.195312 -11.765625 13.609375 -10.492188 13.609375 -8.828125 C 13.609375 -7.941406 13.492188 -7.007812 13.265625 -6.03125 L 3.359375 -6.03125 C 3.242188 -5.632812 3.1875 -5.191406 3.1875 -4.703125 C 3.1875 -3.722656 3.441406 -2.957031 3.953125 -2.40625 C 4.460938 -1.851562 5.210938 -1.578125 6.203125 -1.578125 C 7.148438 -1.578125 8.007812 -1.816406 8.78125 -2.296875 C 9.550781 -2.785156 10.09375 -3.4375 10.40625 -4.25 Z M 11.296875 -7.859375 C 11.347656 -8.273438 11.375 -8.625 11.375 -8.90625 C 11.375 -9.894531 11.125 -10.640625 10.625 -11.140625 C 10.125 -11.640625 9.40625 -11.890625 8.46875 -11.890625 C 7.394531 -11.890625 6.441406 -11.546875 5.609375 -10.859375 C 4.785156 -10.171875 4.164062 -9.171875 3.75 -7.859375 Z M 11.296875 -7.859375 "/></g></g></g><g fill="#ffffff" fill-opacity="1"><g transform="translate(705.441638, 356.944141)"><g/></g></g><g fill="#ffffff" fill-opacity="1"><g transform="translate(711.765091, 356.944141)"><g><path d="M 5.546875 -11.671875 L 3.671875 -2.84375 C 3.640625 -2.726562 3.625 -2.617188 3.625 -2.515625 C 3.625 -2.273438 3.707031 -2.09375 3.875 -1.96875 C 4.050781 -1.84375 4.34375 -1.78125 4.75 -1.78125 L 5.625 -1.78125 L 5.234375 0 C 4.523438 0.113281 3.941406 0.171875 3.484375 0.171875 C 2.722656 0.171875 2.15625 0.0195312 1.78125 -0.28125 C 1.414062 -0.582031 1.234375 -1.039062 1.234375 -1.65625 C 1.234375 -1.945312 1.273438 -2.300781 1.359375 -2.71875 L 3.265625 -11.671875 L 1.4375 -11.671875 L 1.828125 -13.5625 L 3.671875 -13.5625 L 4.46875 -17.34375 L 6.75 -17.34375 L 5.953125 -13.5625 L 8.125 -13.5625 L 7.71875 -11.671875 Z M 5.546875 -11.671875 "/></g></g></g><g fill="#ffffff" fill-opacity="1"><g transform="translate(718.948535, 356.944141)"><g><path d="M 11.359375 0 L 9.078125 0 L 10.96875 -8.859375 C 11.050781 -9.328125 11.09375 -9.738281 11.09375 -10.09375 C 11.09375 -10.675781 10.914062 -11.117188 10.5625 -11.421875 C 10.207031 -11.734375 9.71875 -11.890625 9.09375 -11.890625 C 7.851562 -11.890625 6.796875 -11.5 5.921875 -10.71875 C 5.054688 -9.945312 4.472656 -8.835938 4.171875 -7.390625 L 2.59375 0 L 0.3125 0 L 4.265625 -18.609375 L 6.546875 -18.609375 L 5.09375 -11.75 L 5.140625 -11.75 C 6.492188 -13.21875 8.039062 -13.953125 9.78125 -13.953125 C 10.882812 -13.953125 11.773438 -13.648438 12.453125 -13.046875 C 13.140625 -12.453125 13.484375 -11.644531 13.484375 -10.625 C 13.484375 -10.1875 13.429688 -9.722656 13.328125 -9.234375 Z M 11.359375 0 "/></g></g></g><g fill="#ffffff" fill-opacity="1"><g transform="translate(733.239541, 356.944141)"><g><path d="M 12.71875 -4.25 C 12.164062 -2.820312 11.289062 -1.6875 10.09375 -0.84375 C 8.90625 -0.0078125 7.488281 0.40625 5.84375 0.40625 C 4.28125 0.40625 3.046875 -0.0351562 2.140625 -0.921875 C 1.234375 -1.816406 0.78125 -3.007812 0.78125 -4.5 C 0.78125 -6.9375 1.539062 -9.117188 3.0625 -11.046875 C 4.582031 -12.984375 6.523438 -13.953125 8.890625 -13.953125 C 10.390625 -13.953125 11.550781 -13.515625 12.375 -12.640625 C 13.195312 -11.765625 13.609375 -10.492188 13.609375 -8.828125 C 13.609375 -7.941406 13.492188 -7.007812 13.265625 -6.03125 L 3.359375 -6.03125 C 3.242188 -5.632812 3.1875 -5.191406 3.1875 -4.703125 C 3.1875 -3.722656 3.441406 -2.957031 3.953125 -2.40625 C 4.460938 -1.851562 5.210938 -1.578125 6.203125 -1.578125 C 7.148438 -1.578125 8.007812 -1.816406 8.78125 -2.296875 C 9.550781 -2.785156 10.09375 -3.4375 10.40625 -4.25 Z M 11.296875 -7.859375 C 11.347656 -8.273438 11.375 -8.625 11.375 -8.90625 C 11.375 -9.894531 11.125 -10.640625 10.625 -11.140625 C 10.125 -11.640625 9.40625 -11.890625 8.46875 -11.890625 C 7.394531 -11.890625 6.441406 -11.546875 5.609375 -10.859375 C 4.785156 -10.171875 4.164062 -9.171875 3.75 -7.859375 Z M 11.296875 -7.859375 "/></g></g></g><g fill="#ffffff" fill-opacity="1"><g transform="translate(747.593781, 356.944141)"><g><path d="M 11.5625 -13.5625 L 14.09375 -13.5625 L 5.65625 1.09375 C 4.519531 3.070312 3.597656 4.304688 2.890625 4.796875 C 2.179688 5.296875 1.394531 5.546875 0.53125 5.546875 C -0.0195312 5.546875 -0.550781 5.476562 -1.0625 5.34375 L -0.625 3.296875 C -0.09375 3.429688 0.367188 3.5 0.765625 3.5 C 1.210938 3.5 1.609375 3.351562 1.953125 3.0625 C 2.296875 2.769531 2.742188 2.148438 3.296875 1.203125 L 3.78125 0.375 L 1.71875 -13.5625 L 4.25 -13.5625 L 5.5625 -2.515625 L 5.609375 -2.515625 Z M 11.5625 -13.5625 "/></g></g></g><g fill="#ffffff" fill-opacity="1"><g transform="translate(760.443039, 356.944141)"><g/></g></g><g fill="#ffffff" fill-opacity="1"><g transform="translate(766.766493, 356.944141)"><g><path d="M 2.59375 0 L 0.3125 0 L 3.203125 -13.5625 L 5.359375 -13.5625 L 4.875 -11.296875 L 4.921875 -11.296875 C 6.285156 -13.066406 7.742188 -13.953125 9.296875 -13.953125 C 9.535156 -13.953125 9.726562 -13.925781 9.875 -13.875 L 9.359375 -11.484375 C 9.085938 -11.492188 8.800781 -11.5 8.5 -11.5 C 7.488281 -11.5 6.582031 -11.148438 5.78125 -10.453125 C 4.976562 -9.753906 4.472656 -8.898438 4.265625 -7.890625 Z M 2.59375 0 "/></g></g></g><g fill="#ffffff" fill-opacity="1"><g transform="translate(775.138746, 356.944141)"><g><path d="M 8.953125 0 L 9.359375 -1.96875 L 9.328125 -2.03125 C 8.109375 -0.414062 6.5 0.390625 4.5 0.390625 C 3.382812 0.390625 2.5 0.109375 1.84375 -0.453125 C 1.195312 -1.015625 0.875 -1.785156 0.875 -2.765625 C 0.875 -3.054688 0.914062 -3.40625 1 -3.8125 L 3.078125 -13.5625 L 5.359375 -13.5625 L 3.4375 -4.5625 C 3.351562 -4.144531 3.3125 -3.785156 3.3125 -3.484375 C 3.3125 -2.828125 3.503906 -2.34375 3.890625 -2.03125 C 4.273438 -1.726562 4.769531 -1.578125 5.375 -1.578125 C 6.539062 -1.578125 7.539062 -1.972656 8.375 -2.765625 C 9.21875 -3.554688 9.796875 -4.664062 10.109375 -6.09375 L 11.703125 -13.5625 L 13.984375 -13.5625 L 11.09375 0 Z M 8.953125 0 "/></g></g></g><g fill="#ffffff" fill-opacity="1"><g transform="translate(789.328576, 356.944141)"><g><path d="M 11.359375 0 L 9.078125 0 L 10.84375 -8.34375 C 10.96875 -8.9375 11.03125 -9.441406 11.03125 -9.859375 C 11.03125 -10.535156 10.847656 -11.039062 10.484375 -11.375 C 10.128906 -11.71875 9.625 -11.890625 8.96875 -11.890625 C 7.738281 -11.890625 6.703125 -11.488281 5.859375 -10.6875 C 5.023438 -9.882812 4.460938 -8.785156 4.171875 -7.390625 L 2.59375 0 L 0.3125 0 L 3.203125 -13.5625 L 5.359375 -13.5625 L 4.953125 -11.640625 L 5 -11.640625 C 6.382812 -13.179688 7.976562 -13.953125 9.78125 -13.953125 C 10.925781 -13.953125 11.828125 -13.65625 12.484375 -13.0625 C 13.148438 -12.46875 13.484375 -11.640625 13.484375 -10.578125 C 13.484375 -10.171875 13.429688 -9.722656 13.328125 -9.234375 Z M 11.359375 0 "/></g></g></g><g fill="#ffffff" fill-opacity="1"><g transform="translate(803.619582, 356.944141)"><g/></g></g><g fill="#ffffff" fill-opacity="1"><g transform="translate(809.943036, 356.944141)"><g><path d="M 8.46875 -11.96875 C 6.9375 -11.96875 5.671875 -11.265625 4.671875 -9.859375 C 3.671875 -8.460938 3.171875 -6.859375 3.171875 -5.046875 C 3.171875 -4.054688 3.429688 -3.234375 3.953125 -2.578125 C 4.484375 -1.921875 5.203125 -1.59375 6.109375 -1.59375 C 7.640625 -1.59375 8.90625 -2.289062 9.90625 -3.6875 C 10.914062 -5.082031 11.421875 -6.6875 11.421875 -8.5 C 11.421875 -9.488281 11.15625 -10.3125 10.625 -10.96875 C 10.09375 -11.632812 9.375 -11.96875 8.46875 -11.96875 Z M 8.84375 -13.9375 C 10.394531 -13.9375 11.609375 -13.445312 12.484375 -12.46875 C 13.359375 -11.5 13.796875 -10.25 13.796875 -8.71875 C 13.796875 -6.375 13.046875 -4.269531 11.546875 -2.40625 C 10.046875 -0.550781 8.109375 0.375 5.734375 0.375 C 4.179688 0.375 2.96875 -0.109375 2.09375 -1.078125 C 1.21875 -2.054688 0.78125 -3.304688 0.78125 -4.828125 C 0.78125 -7.179688 1.53125 -9.285156 3.03125 -11.140625 C 4.539062 -13.003906 6.476562 -13.9375 8.84375 -13.9375 Z M 8.84375 -13.9375 "/></g></g></g><g fill="#ffffff" fill-opacity="1"><g transform="translate(824.423707, 356.944141)"><g><path d="M 8.953125 0 L 9.359375 -1.96875 L 9.328125 -2.03125 C 8.109375 -0.414062 6.5 0.390625 4.5 0.390625 C 3.382812 0.390625 2.5 0.109375 1.84375 -0.453125 C 1.195312 -1.015625 0.875 -1.785156 0.875 -2.765625 C 0.875 -3.054688 0.914062 -3.40625 1 -3.8125 L 3.078125 -13.5625 L 5.359375 -13.5625 L 3.4375 -4.5625 C 3.351562 -4.144531 3.3125 -3.785156 3.3125 -3.484375 C 3.3125 -2.828125 3.503906 -2.34375 3.890625 -2.03125 C 4.273438 -1.726562 4.769531 -1.578125 5.375 -1.578125 C 6.539062 -1.578125 7.539062 -1.972656 8.375 -2.765625 C 9.21875 -3.554688 9.796875 -4.664062 10.109375 -6.09375 L 11.703125 -13.5625 L 13.984375 -13.5625 L 11.09375 0 Z M 8.953125 0 "/></g></g></g><g fill="#ffffff" fill-opacity="1"><g transform="translate(838.613537, 356.944141)"><g><path d="M 5.546875 -11.671875 L 3.671875 -2.84375 C 3.640625 -2.726562 3.625 -2.617188 3.625 -2.515625 C 3.625 -2.273438 3.707031 -2.09375 3.875 -1.96875 C 4.050781 -1.84375 4.34375 -1.78125 4.75 -1.78125 L 5.625 -1.78125 L 5.234375 0 C 4.523438 0.113281 3.941406 0.171875 3.484375 0.171875 C 2.722656 0.171875 2.15625 0.0195312 1.78125 -0.28125 C 1.414062 -0.582031 1.234375 -1.039062 1.234375 -1.65625 C 1.234375 -1.945312 1.273438 -2.300781 1.359375 -2.71875 L 3.265625 -11.671875 L 1.4375 -11.671875 L 1.828125 -13.5625 L 3.671875 -13.5625 L 4.46875 -17.34375 L 6.75 -17.34375 L 5.953125 -13.5625 L 8.125 -13.5625 L 7.71875 -11.671875 Z M 5.546875 -11.671875 "/></g></g></g><g fill="#ffffff" fill-opacity="1"><g transform="translate(845.796981, 356.944141)"><g><path d="M 3.5625 0 L 0.859375 0 L 1.4375 -2.75 L 4.140625 -2.75 Z M 3.5625 0 "/></g></g></g></svg>