<svg xmlns="http://www.w3.org/2000/svg" xmlns:xlink="http://www.w3.org/1999/xlink" width="1000" zoomAndPan="magnify" viewBox="0 0 750 149.999998" height="200" preserveAspectRatio="xMidYMid meet" version="1.0"><defs><g/><clipPath id="30e9de857a"><path d="M 0 11.148438 L 749.988281 11.148438 L 749.988281 105.082031 L 0 105.082031 Z M 0 11.148438 " clip-rule="nonzero"/></clipPath><clipPath id="9f6f68783f"><path d="M 45 11.148438 L 705 11.148438 C 716.933594 11.148438 728.378906 15.890625 736.820312 24.328125 C 745.257812 32.769531 750 44.214844 750 56.148438 L 750 60.082031 C 750 72.015625 745.257812 83.460938 736.820312 91.902344 C 728.378906 100.339844 716.933594 105.082031 705 105.082031 L 45 105.082031 C 33.066406 105.082031 21.621094 100.339844 13.179688 91.902344 C 4.742188 83.460938 0 72.015625 0 60.082031 L 0 56.148438 C 0 44.214844 4.742188 32.769531 13.179688 24.328125 C 21.621094 15.890625 33.066406 11.148438 45 11.148438 Z M 45 11.148438 " clip-rule="nonzero"/></clipPath><radialGradient gradientTransform="matrix(1, 0, 0, 1, -0.00281554, 11.149248)" gradientUnits="userSpaceOnUse" r="377.929736" cx="374.999867" id="7bbf4e8683" cy="46.966025" fx="374.999867" fy="46.966025"><stop stop-opacity="1" stop-color="rgb(0.0839233%, 0%, 0.114441%)" offset="0"/><stop stop-opacity="1" stop-color="rgb(0.253296%, 0%, 0.343323%)" offset="0.00390625"/><stop stop-opacity="1" stop-color="rgb(0.424194%, 0%, 0.57373%)" offset="0.0078125"/><stop stop-opacity="1" stop-color="rgb(0.593567%, 0%, 0.802612%)" offset="0.0117188"/><stop stop-opacity="1" stop-color="rgb(0.762939%, 0%, 1.03302%)" offset="0.015625"/><stop stop-opacity="1" stop-color="rgb(0.933838%, 0%, 1.261902%)" offset="0.0195312"/><stop stop-opacity="1" stop-color="rgb(1.10321%, 0%, 1.49231%)" offset="0.0234375"/><stop stop-opacity="1" stop-color="rgb(1.272583%, 0%, 1.721191%)" offset="0.0273438"/><stop stop-opacity="1" stop-color="rgb(1.443481%, 0%, 1.951599%)" offset="0.03125"/><stop stop-opacity="1" stop-color="rgb(1.612854%, 0%, 2.180481%)" offset="0.0351562"/><stop stop-opacity="1" stop-color="rgb(1.782227%, 0%, 2.410889%)" offset="0.0390625"/><stop stop-opacity="1" stop-color="rgb(1.953125%, 0%, 2.639771%)" offset="0.0429688"/><stop stop-opacity="1" stop-color="rgb(2.122498%, 0%, 2.870178%)" offset="0.046875"/><stop stop-opacity="1" stop-color="rgb(2.293396%, 0%, 3.09906%)" offset="0.0507812"/><stop stop-opacity="1" stop-color="rgb(2.462769%, 0%, 3.329468%)" offset="0.0546875"/><stop stop-opacity="1" stop-color="rgb(2.632141%, 0%, 3.55835%)" offset="0.0585938"/><stop stop-opacity="1" stop-color="rgb(2.80304%, 0%, 3.788757%)" offset="0.0625"/><stop stop-opacity="1" stop-color="rgb(2.972412%, 0%, 4.017639%)" offset="0.0664062"/><stop stop-opacity="1" stop-color="rgb(3.141785%, 0%, 4.248047%)" offset="0.0703125"/><stop stop-opacity="1" stop-color="rgb(3.312683%, 0%, 4.478455%)" offset="0.0742188"/><stop stop-opacity="1" stop-color="rgb(3.482056%, 0%, 4.707336%)" offset="0.078125"/><stop stop-opacity="1" stop-color="rgb(3.651428%, 0%, 4.937744%)" offset="0.0820312"/><stop stop-opacity="1" stop-color="rgb(3.822327%, 0%, 5.166626%)" offset="0.0859375"/><stop stop-opacity="1" stop-color="rgb(3.991699%, 0%, 5.397034%)" offset="0.0898438"/><stop stop-opacity="1" stop-color="rgb(4.162598%, 0%, 5.625916%)" offset="0.09375"/><stop stop-opacity="1" stop-color="rgb(4.33197%, 0%, 5.856323%)" offset="0.0976562"/><stop stop-opacity="1" stop-color="rgb(4.501343%, 0%, 6.085205%)" offset="0.101562"/><stop stop-opacity="1" stop-color="rgb(4.672241%, 0%, 6.315613%)" offset="0.105469"/><stop stop-opacity="1" stop-color="rgb(4.841614%, 0%, 6.544495%)" offset="0.109375"/><stop stop-opacity="1" stop-color="rgb(5.010986%, 0%, 6.774902%)" offset="0.113281"/><stop stop-opacity="1" stop-color="rgb(5.181885%, 0%, 7.003784%)" offset="0.117188"/><stop stop-opacity="1" stop-color="rgb(5.351257%, 0%, 7.234192%)" offset="0.121094"/><stop stop-opacity="1" stop-color="rgb(5.52063%, 0%, 7.463074%)" offset="0.125"/><stop stop-opacity="1" stop-color="rgb(5.691528%, 0%, 7.693481%)" offset="0.128906"/><stop stop-opacity="1" stop-color="rgb(5.860901%, 0%, 7.922363%)" offset="0.132812"/><stop stop-opacity="1" stop-color="rgb(6.030273%, 0%, 8.152771%)" offset="0.136719"/><stop stop-opacity="1" stop-color="rgb(6.201172%, 0%, 8.383179%)" offset="0.140625"/><stop stop-opacity="1" stop-color="rgb(6.370544%, 0%, 8.612061%)" offset="0.144531"/><stop stop-opacity="1" stop-color="rgb(6.541443%, 0%, 8.842468%)" offset="0.148438"/><stop stop-opacity="1" stop-color="rgb(6.710815%, 0%, 9.07135%)" offset="0.152344"/><stop stop-opacity="1" stop-color="rgb(6.880188%, 0%, 9.301758%)" offset="0.15625"/><stop stop-opacity="1" stop-color="rgb(7.051086%, 0%, 9.53064%)" offset="0.160156"/><stop stop-opacity="1" stop-color="rgb(7.220459%, 0%, 9.761047%)" offset="0.164062"/><stop stop-opacity="1" stop-color="rgb(7.389832%, 0%, 9.989929%)" offset="0.167969"/><stop stop-opacity="1" stop-color="rgb(7.56073%, 0%, 10.220337%)" offset="0.171875"/><stop stop-opacity="1" stop-color="rgb(7.730103%, 0%, 10.449219%)" offset="0.175781"/><stop stop-opacity="1" stop-color="rgb(7.899475%, 0%, 10.679626%)" offset="0.179688"/><stop stop-opacity="1" stop-color="rgb(8.070374%, 0%, 10.908508%)" offset="0.183594"/><stop stop-opacity="1" stop-color="rgb(8.239746%, 0%, 11.138916%)" offset="0.1875"/><stop stop-opacity="1" stop-color="rgb(8.410645%, 0%, 11.367798%)" offset="0.191406"/><stop stop-opacity="1" stop-color="rgb(8.580017%, 0%, 11.598206%)" offset="0.195312"/><stop stop-opacity="1" stop-color="rgb(8.74939%, 0%, 11.827087%)" offset="0.199219"/><stop stop-opacity="1" stop-color="rgb(8.920288%, 0%, 12.057495%)" offset="0.203125"/><stop stop-opacity="1" stop-color="rgb(9.089661%, 0%, 12.286377%)" offset="0.207031"/><stop stop-opacity="1" stop-color="rgb(9.259033%, 0%, 12.516785%)" offset="0.210938"/><stop stop-opacity="1" stop-color="rgb(9.429932%, 0%, 12.747192%)" offset="0.214844"/><stop stop-opacity="1" stop-color="rgb(9.599304%, 0%, 12.976074%)" offset="0.21875"/><stop stop-opacity="1" stop-color="rgb(9.768677%, 0%, 13.206482%)" offset="0.222656"/><stop stop-opacity="1" stop-color="rgb(9.939575%, 0%, 13.435364%)" offset="0.226562"/><stop stop-opacity="1" stop-color="rgb(10.108948%, 0%, 13.665771%)" offset="0.230469"/><stop stop-opacity="1" stop-color="rgb(10.27832%, 0%, 13.894653%)" offset="0.234375"/><stop stop-opacity="1" stop-color="rgb(10.449219%, 0%, 14.125061%)" offset="0.238281"/><stop stop-opacity="1" stop-color="rgb(10.618591%, 0%, 14.353943%)" offset="0.242188"/><stop stop-opacity="1" stop-color="rgb(10.78949%, 0%, 14.584351%)" offset="0.246094"/><stop stop-opacity="1" stop-color="rgb(10.958862%, 0%, 14.813232%)" offset="0.25"/><stop stop-opacity="1" stop-color="rgb(11.128235%, 0%, 15.04364%)" offset="0.253906"/><stop stop-opacity="1" stop-color="rgb(11.299133%, 0%, 15.272522%)" offset="0.257812"/><stop stop-opacity="1" stop-color="rgb(11.468506%, 0%, 15.50293%)" offset="0.261719"/><stop stop-opacity="1" stop-color="rgb(11.637878%, 0%, 15.731812%)" offset="0.265625"/><stop stop-opacity="1" stop-color="rgb(11.808777%, 0%, 15.962219%)" offset="0.269531"/><stop stop-opacity="1" stop-color="rgb(11.978149%, 0%, 16.191101%)" offset="0.273438"/><stop stop-opacity="1" stop-color="rgb(12.147522%, 0%, 16.421509%)" offset="0.277344"/><stop stop-opacity="1" stop-color="rgb(12.31842%, 0%, 16.651917%)" offset="0.28125"/><stop stop-opacity="1" stop-color="rgb(12.487793%, 0%, 16.880798%)" offset="0.285156"/><stop stop-opacity="1" stop-color="rgb(12.658691%, 0%, 17.111206%)" offset="0.289062"/><stop stop-opacity="1" stop-color="rgb(12.828064%, 0%, 17.340088%)" offset="0.292969"/><stop stop-opacity="1" stop-color="rgb(12.997437%, 0%, 17.570496%)" offset="0.296875"/><stop stop-opacity="1" stop-color="rgb(13.168335%, 0%, 17.799377%)" offset="0.300781"/><stop stop-opacity="1" stop-color="rgb(13.337708%, 0%, 18.029785%)" offset="0.304688"/><stop stop-opacity="1" stop-color="rgb(13.50708%, 0%, 18.258667%)" offset="0.308594"/><stop stop-opacity="1" stop-color="rgb(13.677979%, 0%, 18.489075%)" offset="0.3125"/><stop stop-opacity="1" stop-color="rgb(13.847351%, 0%, 18.717957%)" offset="0.316406"/><stop stop-opacity="1" stop-color="rgb(14.016724%, 0%, 18.948364%)" offset="0.320312"/><stop stop-opacity="1" stop-color="rgb(14.187622%, 0%, 19.177246%)" offset="0.324219"/><stop stop-opacity="1" stop-color="rgb(14.356995%, 0%, 19.407654%)" offset="0.328125"/><stop stop-opacity="1" stop-color="rgb(14.526367%, 0%, 19.636536%)" offset="0.332031"/><stop stop-opacity="1" stop-color="rgb(14.697266%, 0%, 19.866943%)" offset="0.335938"/><stop stop-opacity="1" stop-color="rgb(14.866638%, 0%, 20.095825%)" offset="0.339844"/><stop stop-opacity="1" stop-color="rgb(15.037537%, 0%, 20.326233%)" offset="0.34375"/><stop stop-opacity="1" stop-color="rgb(15.206909%, 0%, 20.555115%)" offset="0.347656"/><stop stop-opacity="1" stop-color="rgb(15.376282%, 0%, 20.785522%)" offset="0.351562"/><stop stop-opacity="1" stop-color="rgb(15.54718%, 0%, 21.01593%)" offset="0.355469"/><stop stop-opacity="1" stop-color="rgb(15.716553%, 0%, 21.244812%)" offset="0.359375"/><stop stop-opacity="1" stop-color="rgb(15.885925%, 0%, 21.47522%)" offset="0.363281"/><stop stop-opacity="1" stop-color="rgb(16.056824%, 0%, 21.704102%)" offset="0.367188"/><stop stop-opacity="1" stop-color="rgb(16.226196%, 0%, 21.934509%)" offset="0.371094"/><stop stop-opacity="1" stop-color="rgb(16.395569%, 0%, 22.163391%)" offset="0.375"/><stop stop-opacity="1" stop-color="rgb(16.566467%, 0%, 22.393799%)" offset="0.378906"/><stop stop-opacity="1" stop-color="rgb(16.73584%, 0%, 22.622681%)" offset="0.382812"/><stop stop-opacity="1" stop-color="rgb(16.906738%, 0%, 22.853088%)" offset="0.386719"/><stop stop-opacity="1" stop-color="rgb(17.076111%, 0%, 23.08197%)" offset="0.390625"/><stop stop-opacity="1" stop-color="rgb(17.245483%, 0%, 23.312378%)" offset="0.394531"/><stop stop-opacity="1" stop-color="rgb(17.416382%, 0%, 23.54126%)" offset="0.398438"/><stop stop-opacity="1" stop-color="rgb(17.585754%, 0%, 23.771667%)" offset="0.402344"/><stop stop-opacity="1" stop-color="rgb(17.755127%, 0%, 24.000549%)" offset="0.40625"/><stop stop-opacity="1" stop-color="rgb(17.926025%, 0%, 24.230957%)" offset="0.410156"/><stop stop-opacity="1" stop-color="rgb(18.095398%, 0%, 24.459839%)" offset="0.414062"/><stop stop-opacity="1" stop-color="rgb(18.264771%, 0%, 24.690247%)" offset="0.417969"/><stop stop-opacity="1" stop-color="rgb(18.435669%, 0%, 24.920654%)" offset="0.421875"/><stop stop-opacity="1" stop-color="rgb(18.605042%, 0%, 25.149536%)" offset="0.425781"/><stop stop-opacity="1" stop-color="rgb(18.774414%, 0%, 25.379944%)" offset="0.429688"/><stop stop-opacity="1" stop-color="rgb(18.945312%, 0%, 25.608826%)" offset="0.433594"/><stop stop-opacity="1" stop-color="rgb(19.114685%, 0%, 25.839233%)" offset="0.4375"/><stop stop-opacity="1" stop-color="rgb(19.285583%, 0%, 26.068115%)" offset="0.441406"/><stop stop-opacity="1" stop-color="rgb(19.454956%, 0%, 26.298523%)" offset="0.445312"/><stop stop-opacity="1" stop-color="rgb(19.624329%, 0%, 26.527405%)" offset="0.449219"/><stop stop-opacity="1" stop-color="rgb(19.795227%, 0%, 26.757812%)" offset="0.453125"/><stop stop-opacity="1" stop-color="rgb(19.9646%, 0%, 26.986694%)" offset="0.457031"/><stop stop-opacity="1" stop-color="rgb(20.133972%, 0%, 27.217102%)" offset="0.460938"/><stop stop-opacity="1" stop-color="rgb(20.304871%, 0%, 27.445984%)" offset="0.464844"/><stop stop-opacity="1" stop-color="rgb(20.474243%, 0%, 27.676392%)" offset="0.46875"/><stop stop-opacity="1" stop-color="rgb(20.643616%, 0%, 27.905273%)" offset="0.472656"/><stop stop-opacity="1" stop-color="rgb(20.814514%, 0%, 28.135681%)" offset="0.476562"/><stop stop-opacity="1" stop-color="rgb(20.983887%, 0%, 28.364563%)" offset="0.480469"/><stop stop-opacity="1" stop-color="rgb(21.154785%, 0%, 28.594971%)" offset="0.484375"/><stop stop-opacity="1" stop-color="rgb(21.324158%, 0%, 28.825378%)" offset="0.488281"/><stop stop-opacity="1" stop-color="rgb(21.49353%, 0%, 29.05426%)" offset="0.492188"/><stop stop-opacity="1" stop-color="rgb(21.664429%, 0%, 29.284668%)" offset="0.496094"/><stop stop-opacity="1" stop-color="rgb(21.833801%, 0%, 29.51355%)" offset="0.5"/><stop stop-opacity="1" stop-color="rgb(22.003174%, 0%, 29.743958%)" offset="0.503906"/><stop stop-opacity="1" stop-color="rgb(22.174072%, 0%, 29.972839%)" offset="0.507812"/><stop stop-opacity="1" stop-color="rgb(22.343445%, 0%, 30.203247%)" offset="0.511719"/><stop stop-opacity="1" stop-color="rgb(22.512817%, 0%, 30.432129%)" offset="0.515625"/><stop stop-opacity="1" stop-color="rgb(22.683716%, 0%, 30.662537%)" offset="0.519531"/><stop stop-opacity="1" stop-color="rgb(22.853088%, 0%, 30.891418%)" offset="0.523438"/><stop stop-opacity="1" stop-color="rgb(23.022461%, 0%, 31.121826%)" offset="0.527344"/><stop stop-opacity="1" stop-color="rgb(23.193359%, 0%, 31.350708%)" offset="0.53125"/><stop stop-opacity="1" stop-color="rgb(23.362732%, 0%, 31.581116%)" offset="0.535156"/><stop stop-opacity="1" stop-color="rgb(23.53363%, 0%, 31.809998%)" offset="0.539062"/><stop stop-opacity="1" stop-color="rgb(23.703003%, 0%, 32.040405%)" offset="0.542969"/><stop stop-opacity="1" stop-color="rgb(23.872375%, 0%, 32.269287%)" offset="0.546875"/><stop stop-opacity="1" stop-color="rgb(24.043274%, 0%, 32.499695%)" offset="0.550781"/><stop stop-opacity="1" stop-color="rgb(24.212646%, 0%, 32.728577%)" offset="0.554688"/><stop stop-opacity="1" stop-color="rgb(24.382019%, 0%, 32.958984%)" offset="0.558594"/><stop stop-opacity="1" stop-color="rgb(24.552917%, 0%, 33.189392%)" offset="0.5625"/><stop stop-opacity="1" stop-color="rgb(24.72229%, 0%, 33.418274%)" offset="0.566406"/><stop stop-opacity="1" stop-color="rgb(24.891663%, 0%, 33.648682%)" offset="0.570312"/><stop stop-opacity="1" stop-color="rgb(25.062561%, 0%, 33.877563%)" offset="0.574219"/><stop stop-opacity="1" stop-color="rgb(25.231934%, 0%, 34.107971%)" offset="0.578125"/><stop stop-opacity="1" stop-color="rgb(25.402832%, 0%, 34.336853%)" offset="0.582031"/><stop stop-opacity="1" stop-color="rgb(25.572205%, 0%, 34.567261%)" offset="0.585938"/><stop stop-opacity="1" stop-color="rgb(25.741577%, 0%, 34.796143%)" offset="0.589844"/><stop stop-opacity="1" stop-color="rgb(25.912476%, 0%, 35.02655%)" offset="0.59375"/><stop stop-opacity="1" stop-color="rgb(26.081848%, 0%, 35.255432%)" offset="0.597656"/><stop stop-opacity="1" stop-color="rgb(26.251221%, 0%, 35.48584%)" offset="0.601562"/><stop stop-opacity="1" stop-color="rgb(26.422119%, 0%, 35.714722%)" offset="0.605469"/><stop stop-opacity="1" stop-color="rgb(26.591492%, 0%, 35.945129%)" offset="0.609375"/><stop stop-opacity="1" stop-color="rgb(26.760864%, 0%, 36.174011%)" offset="0.613281"/><stop stop-opacity="1" stop-color="rgb(26.931763%, 0%, 36.404419%)" offset="0.617188"/><stop stop-opacity="1" stop-color="rgb(27.101135%, 0%, 36.633301%)" offset="0.621094"/><stop stop-opacity="1" stop-color="rgb(27.270508%, 0%, 36.863708%)" offset="0.625"/><stop stop-opacity="1" stop-color="rgb(27.441406%, 0%, 37.094116%)" offset="0.628906"/><stop stop-opacity="1" stop-color="rgb(27.610779%, 0%, 37.322998%)" offset="0.632812"/><stop stop-opacity="1" stop-color="rgb(27.781677%, 0%, 37.553406%)" offset="0.636719"/><stop stop-opacity="1" stop-color="rgb(27.95105%, 0%, 37.782288%)" offset="0.640625"/><stop stop-opacity="1" stop-color="rgb(28.120422%, 0%, 38.012695%)" offset="0.644531"/><stop stop-opacity="1" stop-color="rgb(28.291321%, 0%, 38.241577%)" offset="0.648438"/><stop stop-opacity="1" stop-color="rgb(28.460693%, 0%, 38.471985%)" offset="0.652344"/><stop stop-opacity="1" stop-color="rgb(28.630066%, 0%, 38.700867%)" offset="0.65625"/><stop stop-opacity="1" stop-color="rgb(28.800964%, 0%, 38.931274%)" offset="0.660156"/><stop stop-opacity="1" stop-color="rgb(28.970337%, 0%, 39.160156%)" offset="0.664062"/><stop stop-opacity="1" stop-color="rgb(29.139709%, 0%, 39.390564%)" offset="0.667969"/><stop stop-opacity="1" stop-color="rgb(29.310608%, 0%, 39.619446%)" offset="0.671875"/><stop stop-opacity="1" stop-color="rgb(29.47998%, 0%, 39.849854%)" offset="0.675781"/><stop stop-opacity="1" stop-color="rgb(29.650879%, 0%, 40.078735%)" offset="0.679688"/><stop stop-opacity="1" stop-color="rgb(29.820251%, 0%, 40.309143%)" offset="0.683594"/><stop stop-opacity="1" stop-color="rgb(29.989624%, 0%, 40.538025%)" offset="0.6875"/><stop stop-opacity="1" stop-color="rgb(30.160522%, 0%, 40.768433%)" offset="0.691406"/><stop stop-opacity="1" stop-color="rgb(30.329895%, 0%, 40.997314%)" offset="0.695312"/><stop stop-opacity="1" stop-color="rgb(30.499268%, 0%, 41.227722%)" offset="0.699219"/><stop stop-opacity="1" stop-color="rgb(30.670166%, 0%, 41.45813%)" offset="0.703125"/><stop stop-opacity="1" stop-color="rgb(30.839539%, 0%, 41.687012%)" offset="0.707031"/><stop stop-opacity="1" stop-color="rgb(31.008911%, 0%, 41.917419%)" offset="0.710938"/><stop stop-opacity="1" stop-color="rgb(31.17981%, 0%, 42.146301%)" offset="0.714844"/><stop stop-opacity="1" stop-color="rgb(31.349182%, 0%, 42.376709%)" offset="0.71875"/><stop stop-opacity="1" stop-color="rgb(31.518555%, 0%, 42.605591%)" offset="0.722656"/><stop stop-opacity="1" stop-color="rgb(31.689453%, 0%, 42.835999%)" offset="0.726562"/><stop stop-opacity="1" stop-color="rgb(31.858826%, 0%, 43.06488%)" offset="0.730469"/><stop stop-opacity="1" stop-color="rgb(32.029724%, 0%, 43.295288%)" offset="0.734375"/><stop stop-opacity="1" stop-color="rgb(32.199097%, 0%, 43.52417%)" offset="0.738281"/><stop stop-opacity="1" stop-color="rgb(32.368469%, 0%, 43.754578%)" offset="0.742188"/><stop stop-opacity="1" stop-color="rgb(32.539368%, 0%, 43.983459%)" offset="0.746094"/><stop stop-opacity="1" stop-color="rgb(32.70874%, 0%, 44.213867%)" offset="0.75"/><stop stop-opacity="1" stop-color="rgb(32.878113%, 0%, 44.442749%)" offset="0.753906"/><stop stop-opacity="1" stop-color="rgb(33.049011%, 0%, 44.673157%)" offset="0.757812"/><stop stop-opacity="1" stop-color="rgb(33.218384%, 0%, 44.902039%)" offset="0.761719"/><stop stop-opacity="1" stop-color="rgb(33.387756%, 0%, 45.132446%)" offset="0.765625"/><stop stop-opacity="1" stop-color="rgb(33.558655%, 0%, 45.362854%)" offset="0.769531"/><stop stop-opacity="1" stop-color="rgb(33.728027%, 0%, 45.591736%)" offset="0.773438"/><stop stop-opacity="1" stop-color="rgb(33.898926%, 0%, 45.822144%)" offset="0.777344"/><stop stop-opacity="1" stop-color="rgb(34.068298%, 0%, 46.051025%)" offset="0.78125"/><stop stop-opacity="1" stop-color="rgb(34.237671%, 0%, 46.281433%)" offset="0.785156"/><stop stop-opacity="1" stop-color="rgb(34.408569%, 0%, 46.510315%)" offset="0.789062"/><stop stop-opacity="1" stop-color="rgb(34.577942%, 0%, 46.740723%)" offset="0.792969"/><stop stop-opacity="1" stop-color="rgb(34.747314%, 0%, 46.969604%)" offset="0.796875"/><stop stop-opacity="1" stop-color="rgb(34.918213%, 0%, 47.200012%)" offset="0.800781"/><stop stop-opacity="1" stop-color="rgb(35.087585%, 0%, 47.428894%)" offset="0.804688"/><stop stop-opacity="1" stop-color="rgb(35.256958%, 0%, 47.659302%)" offset="0.808594"/><stop stop-opacity="1" stop-color="rgb(35.427856%, 0%, 47.888184%)" offset="0.8125"/><stop stop-opacity="1" stop-color="rgb(35.597229%, 0%, 48.118591%)" offset="0.816406"/><stop stop-opacity="1" stop-color="rgb(35.766602%, 0%, 48.347473%)" offset="0.820312"/><stop stop-opacity="1" stop-color="rgb(35.9375%, 0%, 48.577881%)" offset="0.824219"/><stop stop-opacity="1" stop-color="rgb(36.106873%, 0%, 48.806763%)" offset="0.828125"/><stop stop-opacity="1" stop-color="rgb(36.277771%, 0%, 49.03717%)" offset="0.832031"/><stop stop-opacity="1" stop-color="rgb(36.447144%, 0%, 49.266052%)" offset="0.835938"/><stop stop-opacity="1" stop-color="rgb(36.616516%, 0%, 49.49646%)" offset="0.839844"/><stop stop-opacity="1" stop-color="rgb(36.787415%, 0%, 49.726868%)" offset="0.84375"/><stop stop-opacity="1" stop-color="rgb(36.956787%, 0%, 49.95575%)" offset="0.847656"/><stop stop-opacity="1" stop-color="rgb(37.12616%, 0%, 50.186157%)" offset="0.851562"/><stop stop-opacity="1" stop-color="rgb(37.297058%, 0%, 50.415039%)" offset="0.855469"/><stop stop-opacity="1" stop-color="rgb(37.466431%, 0%, 50.645447%)" offset="0.859375"/><stop stop-opacity="1" stop-color="rgb(37.635803%, 0%, 50.874329%)" offset="0.863281"/><stop stop-opacity="1" stop-color="rgb(37.806702%, 0%, 51.104736%)" offset="0.867188"/><stop stop-opacity="1" stop-color="rgb(37.976074%, 0%, 51.333618%)" offset="0.871094"/><stop stop-opacity="1" stop-color="rgb(38.146973%, 0%, 51.564026%)" offset="0.875"/><stop stop-opacity="1" stop-color="rgb(38.316345%, 0%, 51.792908%)" offset="0.878906"/><stop stop-opacity="1" stop-color="rgb(38.485718%, 0%, 52.023315%)" offset="0.882812"/><stop stop-opacity="1" stop-color="rgb(38.656616%, 0%, 52.252197%)" offset="0.886719"/><stop stop-opacity="1" stop-color="rgb(38.825989%, 0%, 52.482605%)" offset="0.890625"/><stop stop-opacity="1" stop-color="rgb(38.995361%, 0%, 52.711487%)" offset="0.894531"/><stop stop-opacity="1" stop-color="rgb(39.16626%, 0%, 52.941895%)" offset="0.898438"/><stop stop-opacity="1" stop-color="rgb(39.335632%, 0%, 53.170776%)" offset="0.902344"/><stop stop-opacity="1" stop-color="rgb(39.505005%, 0%, 53.401184%)" offset="0.90625"/><stop stop-opacity="1" stop-color="rgb(39.675903%, 0%, 53.631592%)" offset="0.910156"/><stop stop-opacity="1" stop-color="rgb(39.845276%, 0%, 53.860474%)" offset="0.914062"/><stop stop-opacity="1" stop-color="rgb(40.014648%, 0%, 54.090881%)" offset="0.917969"/><stop stop-opacity="1" stop-color="rgb(40.185547%, 0%, 54.319763%)" offset="0.921875"/><stop stop-opacity="1" stop-color="rgb(40.354919%, 0%, 54.550171%)" offset="0.925781"/><stop stop-opacity="1" stop-color="rgb(40.525818%, 0%, 54.779053%)" offset="0.929688"/><stop stop-opacity="1" stop-color="rgb(40.69519%, 0%, 55.00946%)" offset="0.933594"/><stop stop-opacity="1" stop-color="rgb(40.864563%, 0%, 55.238342%)" offset="0.9375"/><stop stop-opacity="1" stop-color="rgb(41.035461%, 0%, 55.46875%)" offset="0.941406"/><stop stop-opacity="1" stop-color="rgb(41.204834%, 0%, 55.697632%)" offset="0.945312"/><stop stop-opacity="1" stop-color="rgb(41.374207%, 0%, 55.92804%)" offset="0.949219"/><stop stop-opacity="1" stop-color="rgb(41.545105%, 0%, 56.156921%)" offset="0.953125"/><stop stop-opacity="1" stop-color="rgb(41.714478%, 0%, 56.387329%)" offset="0.957031"/><stop stop-opacity="1" stop-color="rgb(41.88385%, 0%, 56.616211%)" offset="0.960938"/><stop stop-opacity="1" stop-color="rgb(42.054749%, 0%, 56.846619%)" offset="0.964844"/><stop stop-opacity="1" stop-color="rgb(42.224121%, 0%, 57.0755%)" offset="0.96875"/><stop stop-opacity="1" stop-color="rgb(42.39502%, 0%, 57.305908%)" offset="0.972656"/><stop stop-opacity="1" stop-color="rgb(42.564392%, 0%, 57.536316%)" offset="0.976562"/><stop stop-opacity="1" stop-color="rgb(42.733765%, 0%, 57.765198%)" offset="0.980469"/><stop stop-opacity="1" stop-color="rgb(42.904663%, 0%, 57.995605%)" offset="0.984375"/><stop stop-opacity="1" stop-color="rgb(43.074036%, 0%, 58.224487%)" offset="0.988281"/><stop stop-opacity="1" stop-color="rgb(43.243408%, 0%, 58.454895%)" offset="0.992188"/><stop stop-opacity="1" stop-color="rgb(43.414307%, 0%, 58.683777%)" offset="0.996094"/><stop stop-opacity="1" stop-color="rgb(43.499756%, 0%, 58.799744%)" offset="1"/></radialGradient></defs><rect x="-75" width="900" fill="#ffffff" y="-15" height="179.999997" fill-opacity="1"/><rect x="-75" width="900" fill="#ffffff" y="-15" height="179.999997" fill-opacity="1"/><g clip-path="url(#30e9de857a)"><g clip-path="url(#9f6f68783f)"><path fill="url(#7bbf4e8683)" d="M 0 11.148438 L 0 105.082031 L 749.988281 105.082031 L 749.988281 11.148438 Z M 0 11.148438 " fill-rule="nonzero"/></g></g><g fill="#ffffff" fill-opacity="1"><g transform="translate(130.413305, 78.507376)"><g><path d="M 7.5625 0 L 7.5625 -15.0625 L 0.265625 -45.703125 L 9.3125 -45.703125 L 11.859375 -30.21875 L 14.421875 -45.703125 L 23.46875 -45.703125 L 16.171875 -15.0625 L 16.171875 0 Z M 7.5625 0 "/></g></g></g><g fill="#ffffff" fill-opacity="1"><g transform="translate(154.13231, 78.507376)"><g><path d="M 2.015625 0 L 2.015625 -45.703125 L 20.328125 -45.703125 L 20.328125 -36.875 L 11.328125 -36.875 L 11.328125 -27.984375 L 19.953125 -27.984375 L 19.953125 -19.359375 L 11.328125 -19.359375 L 11.328125 -8.890625 L 20.90625 -8.890625 L 20.90625 0 Z M 2.015625 0 "/></g></g></g><g fill="#ffffff" fill-opacity="1"><g transform="translate(176.043144, 78.507376)"><g><path d="M 12.875 0.421875 C 8.726562 0.421875 5.734375 -0.601562 3.890625 -2.65625 C 2.046875 -4.71875 1.125 -8.035156 1.125 -12.609375 L 1.125 -17.078125 L 10.109375 -17.078125 L 10.109375 -11.390625 C 10.109375 -9.117188 10.835938 -7.984375 12.296875 -7.984375 C 13.109375 -7.984375 13.671875 -8.222656 13.984375 -8.703125 C 14.304688 -9.179688 14.46875 -9.988281 14.46875 -11.125 C 14.46875 -12.613281 14.289062 -13.84375 13.9375 -14.8125 C 13.582031 -15.789062 13.128906 -16.609375 12.578125 -17.265625 C 12.035156 -17.921875 11.050781 -18.941406 9.625 -20.328125 L 5.6875 -24.265625 C 2.644531 -27.242188 1.125 -30.539062 1.125 -34.15625 C 1.125 -38.0625 2.015625 -41.03125 3.796875 -43.0625 C 5.585938 -45.101562 8.207031 -46.125 11.65625 -46.125 C 15.769531 -46.125 18.726562 -45.03125 20.53125 -42.84375 C 22.34375 -40.664062 23.25 -37.253906 23.25 -32.609375 L 13.9375 -32.609375 L 13.890625 -35.75 C 13.890625 -36.351562 13.71875 -36.832031 13.375 -37.1875 C 13.039062 -37.539062 12.570312 -37.71875 11.96875 -37.71875 C 11.257812 -37.71875 10.726562 -37.519531 10.375 -37.125 C 10.019531 -36.738281 9.84375 -36.210938 9.84375 -35.546875 C 9.84375 -34.054688 10.691406 -32.507812 12.390625 -30.90625 L 17.71875 -25.796875 C 18.957031 -24.597656 19.984375 -23.457031 20.796875 -22.375 C 21.617188 -21.289062 22.273438 -20.007812 22.765625 -18.53125 C 23.265625 -17.0625 23.515625 -15.316406 23.515625 -13.296875 C 23.515625 -8.796875 22.6875 -5.382812 21.03125 -3.0625 C 19.382812 -0.738281 16.664062 0.421875 12.875 0.421875 Z M 12.875 0.421875 "/></g></g></g><g fill="#ffffff" fill-opacity="1"><g transform="translate(200.559875, 78.507376)"><g><path d="M 3.25 -12.453125 L 1.4375 -45.703125 L 10.75 -45.703125 L 8.890625 -12.453125 Z M 1.4375 0 L 1.4375 -7.765625 L 10.75 -7.765625 L 10.75 0 Z M 1.4375 0 "/></g></g></g><g fill="#ffffff" fill-opacity="1"><g transform="translate(212.738457, 78.507376)"><g/></g></g><g fill="#ffffff" fill-opacity="1"><g transform="translate(225.182967, 78.507376)"><g><path d="M 2.015625 -45.703125 L 14.421875 -45.703125 C 17.753906 -45.703125 20.171875 -44.882812 21.671875 -43.25 C 23.179688 -41.625 23.9375 -38.96875 23.9375 -35.28125 L 23.9375 -33.25 C 23.9375 -28.882812 22.378906 -26.28125 19.265625 -25.4375 C 21.171875 -24.9375 22.515625 -23.78125 23.296875 -21.96875 C 24.078125 -20.164062 24.46875 -17.773438 24.46875 -14.796875 C 24.46875 -9.929688 23.738281 -6.25 22.28125 -3.75 C 20.832031 -1.25 18.210938 0 14.421875 0 L 2.015625 0 Z M 12.828125 -28.515625 C 13.609375 -28.515625 14.140625 -28.804688 14.421875 -29.390625 C 14.703125 -29.972656 14.84375 -30.800781 14.84375 -31.875 L 14.84375 -36.4375 C 14.84375 -37.925781 14.1875 -38.671875 12.875 -38.671875 L 10.953125 -38.671875 L 10.953125 -28.515625 Z M 11.859375 -8.03125 C 14.234375 -8.03125 15.421875 -9.164062 15.421875 -11.4375 L 15.421875 -17.125 C 15.421875 -18.507812 15.21875 -19.554688 14.8125 -20.265625 C 14.40625 -20.972656 13.6875 -21.328125 12.65625 -21.328125 L 10.953125 -21.328125 L 10.953125 -8.09375 Z M 11.859375 -8.03125 "/></g></g></g><g fill="#ffffff" fill-opacity="1"><g transform="translate(250.656963, 78.507376)"><g><path d="M 12.921875 0.421875 C 9.234375 0.421875 6.429688 -0.703125 4.515625 -2.953125 C 2.609375 -5.203125 1.65625 -8.367188 1.65625 -12.453125 L 1.65625 -34.203125 C 1.65625 -38.140625 2.609375 -41.109375 4.515625 -43.109375 C 6.429688 -45.117188 9.234375 -46.125 12.921875 -46.125 C 16.617188 -46.125 19.421875 -45.117188 21.328125 -43.109375 C 23.242188 -41.109375 24.203125 -38.140625 24.203125 -34.203125 L 24.203125 -12.453125 C 24.203125 -8.335938 23.242188 -5.160156 21.328125 -2.921875 C 19.421875 -0.691406 16.617188 0.421875 12.921875 0.421875 Z M 12.921875 -7.984375 C 13.742188 -7.984375 14.296875 -8.335938 14.578125 -9.046875 C 14.859375 -9.753906 15 -10.75 15 -12.03125 L 15 -34.375 C 15 -35.363281 14.863281 -36.164062 14.59375 -36.78125 C 14.332031 -37.40625 13.796875 -37.71875 12.984375 -37.71875 C 11.453125 -37.71875 10.6875 -36.566406 10.6875 -34.265625 L 10.6875 -11.96875 C 10.6875 -10.65625 10.847656 -9.660156 11.171875 -8.984375 C 11.492188 -8.316406 12.078125 -7.984375 12.921875 -7.984375 Z M 12.921875 -7.984375 "/></g></g></g><g fill="#ffffff" fill-opacity="1"><g transform="translate(276.503219, 78.507376)"><g><path d="M 12.921875 0.421875 C 9.234375 0.421875 6.429688 -0.703125 4.515625 -2.953125 C 2.609375 -5.203125 1.65625 -8.367188 1.65625 -12.453125 L 1.65625 -34.203125 C 1.65625 -38.140625 2.609375 -41.109375 4.515625 -43.109375 C 6.429688 -45.117188 9.234375 -46.125 12.921875 -46.125 C 16.617188 -46.125 19.421875 -45.117188 21.328125 -43.109375 C 23.242188 -41.109375 24.203125 -38.140625 24.203125 -34.203125 L 24.203125 -12.453125 C 24.203125 -8.335938 23.242188 -5.160156 21.328125 -2.921875 C 19.421875 -0.691406 16.617188 0.421875 12.921875 0.421875 Z M 12.921875 -7.984375 C 13.742188 -7.984375 14.296875 -8.335938 14.578125 -9.046875 C 14.859375 -9.753906 15 -10.75 15 -12.03125 L 15 -34.375 C 15 -35.363281 14.863281 -36.164062 14.59375 -36.78125 C 14.332031 -37.40625 13.796875 -37.71875 12.984375 -37.71875 C 11.453125 -37.71875 10.6875 -36.566406 10.6875 -34.265625 L 10.6875 -11.96875 C 10.6875 -10.65625 10.847656 -9.660156 11.171875 -8.984375 C 11.492188 -8.316406 12.078125 -7.984375 12.921875 -7.984375 Z M 12.921875 -7.984375 "/></g></g></g><g fill="#ffffff" fill-opacity="1"><g transform="translate(302.349475, 78.507376)"><g><path d="M 2.015625 0 L 2.015625 -45.703125 L 11.0625 -45.703125 L 11.0625 -27.40625 L 15.328125 -45.703125 L 24.53125 -45.703125 L 19.421875 -24.796875 L 25.59375 0 L 16.125 0 L 11.125 -22.125 L 11.125 0 Z M 2.015625 0 "/></g></g></g><g fill="#ffffff" fill-opacity="1"><g transform="translate(327.451213, 78.507376)"><g/></g></g><g fill="#ffffff" fill-opacity="1"><g transform="translate(339.895722, 78.507376)"><g><path d="M 2.015625 0 L 2.015625 -45.703125 L 15.953125 -45.703125 L 19.796875 -17.828125 L 23.625 -45.703125 L 37.671875 -45.703125 L 37.671875 0 L 29.3125 0 L 29.3125 -32.9375 L 24.046875 0 L 15.859375 0 L 10.265625 -32.9375 L 10.265625 0 Z M 2.015625 0 "/></g></g></g><g fill="#ffffff" fill-opacity="1"><g transform="translate(379.569221, 78.507376)"><g><path d="M 7.5625 0 L 7.5625 -15.0625 L 0.265625 -45.703125 L 9.3125 -45.703125 L 11.859375 -30.21875 L 14.421875 -45.703125 L 23.46875 -45.703125 L 16.171875 -15.0625 L 16.171875 0 Z M 7.5625 0 "/></g></g></g><g fill="#ffffff" fill-opacity="1"><g transform="translate(403.288226, 78.507376)"><g/></g></g><g fill="#ffffff" fill-opacity="1"><g transform="translate(415.732735, 78.507376)"><g><path d="M 12.875 0.421875 C 8.726562 0.421875 5.734375 -0.601562 3.890625 -2.65625 C 2.046875 -4.71875 1.125 -8.035156 1.125 -12.609375 L 1.125 -17.078125 L 10.109375 -17.078125 L 10.109375 -11.390625 C 10.109375 -9.117188 10.835938 -7.984375 12.296875 -7.984375 C 13.109375 -7.984375 13.671875 -8.222656 13.984375 -8.703125 C 14.304688 -9.179688 14.46875 -9.988281 14.46875 -11.125 C 14.46875 -12.613281 14.289062 -13.84375 13.9375 -14.8125 C 13.582031 -15.789062 13.128906 -16.609375 12.578125 -17.265625 C 12.035156 -17.921875 11.050781 -18.941406 9.625 -20.328125 L 5.6875 -24.265625 C 2.644531 -27.242188 1.125 -30.539062 1.125 -34.15625 C 1.125 -38.0625 2.015625 -41.03125 3.796875 -43.0625 C 5.585938 -45.101562 8.207031 -46.125 11.65625 -46.125 C 15.769531 -46.125 18.726562 -45.03125 20.53125 -42.84375 C 22.34375 -40.664062 23.25 -37.253906 23.25 -32.609375 L 13.9375 -32.609375 L 13.890625 -35.75 C 13.890625 -36.351562 13.71875 -36.832031 13.375 -37.1875 C 13.039062 -37.539062 12.570312 -37.71875 11.96875 -37.71875 C 11.257812 -37.71875 10.726562 -37.519531 10.375 -37.125 C 10.019531 -36.738281 9.84375 -36.210938 9.84375 -35.546875 C 9.84375 -34.054688 10.691406 -32.507812 12.390625 -30.90625 L 17.71875 -25.796875 C 18.957031 -24.597656 19.984375 -23.457031 20.796875 -22.375 C 21.617188 -21.289062 22.273438 -20.007812 22.765625 -18.53125 C 23.265625 -17.0625 23.515625 -15.316406 23.515625 -13.296875 C 23.515625 -8.796875 22.6875 -5.382812 21.03125 -3.0625 C 19.382812 -0.738281 16.664062 0.421875 12.875 0.421875 Z M 12.875 0.421875 "/></g></g></g><g fill="#ffffff" fill-opacity="1"><g transform="translate(440.249467, 78.507376)"><g><path d="M 2.015625 0 L 2.015625 -45.703125 L 11.171875 -45.703125 L 11.171875 -7.765625 L 20.59375 -7.765625 L 20.59375 0 Z M 2.015625 0 "/></g></g></g><g fill="#ffffff" fill-opacity="1"><g transform="translate(461.362574, 78.507376)"><g><path d="M 12.921875 0.421875 C 9.234375 0.421875 6.429688 -0.703125 4.515625 -2.953125 C 2.609375 -5.203125 1.65625 -8.367188 1.65625 -12.453125 L 1.65625 -34.203125 C 1.65625 -38.140625 2.609375 -41.109375 4.515625 -43.109375 C 6.429688 -45.117188 9.234375 -46.125 12.921875 -46.125 C 16.617188 -46.125 19.421875 -45.117188 21.328125 -43.109375 C 23.242188 -41.109375 24.203125 -38.140625 24.203125 -34.203125 L 24.203125 -12.453125 C 24.203125 -8.335938 23.242188 -5.160156 21.328125 -2.921875 C 19.421875 -0.691406 16.617188 0.421875 12.921875 0.421875 Z M 12.921875 -7.984375 C 13.742188 -7.984375 14.296875 -8.335938 14.578125 -9.046875 C 14.859375 -9.753906 15 -10.75 15 -12.03125 L 15 -34.375 C 15 -35.363281 14.863281 -36.164062 14.59375 -36.78125 C 14.332031 -37.40625 13.796875 -37.71875 12.984375 -37.71875 C 11.453125 -37.71875 10.6875 -36.566406 10.6875 -34.265625 L 10.6875 -11.96875 C 10.6875 -10.65625 10.847656 -9.660156 11.171875 -8.984375 C 11.492188 -8.316406 12.078125 -7.984375 12.921875 -7.984375 Z M 12.921875 -7.984375 "/></g></g></g><g fill="#ffffff" fill-opacity="1"><g transform="translate(487.20883, 78.507376)"><g><path d="M 5.953125 0 L 5.953125 -36.921875 L 0.53125 -36.921875 L 0.53125 -45.703125 L 20.53125 -45.703125 L 20.53125 -36.921875 L 15.109375 -36.921875 L 15.109375 0 Z M 5.953125 0 "/></g></g></g><g fill="#ffffff" fill-opacity="1"><g transform="translate(508.268758, 78.507376)"><g/></g></g><g fill="#ffffff" fill-opacity="1"><g transform="translate(520.713267, 78.507376)"><g><path d="M 2.015625 0 L 2.015625 -45.703125 L 11.4375 -45.703125 L 15.640625 -23.828125 L 15.640625 -45.703125 L 24.46875 -45.703125 L 24.46875 0 L 15.53125 0 L 10.953125 -22.875 L 10.953125 0 Z M 2.015625 0 "/></g></g></g><g fill="#ffffff" fill-opacity="1"><g transform="translate(547.19771, 78.507376)"><g><path d="M 12.921875 0.421875 C 9.234375 0.421875 6.429688 -0.703125 4.515625 -2.953125 C 2.609375 -5.203125 1.65625 -8.367188 1.65625 -12.453125 L 1.65625 -34.203125 C 1.65625 -38.140625 2.609375 -41.109375 4.515625 -43.109375 C 6.429688 -45.117188 9.234375 -46.125 12.921875 -46.125 C 16.617188 -46.125 19.421875 -45.117188 21.328125 -43.109375 C 23.242188 -41.109375 24.203125 -38.140625 24.203125 -34.203125 L 24.203125 -12.453125 C 24.203125 -8.335938 23.242188 -5.160156 21.328125 -2.921875 C 19.421875 -0.691406 16.617188 0.421875 12.921875 0.421875 Z M 12.921875 -7.984375 C 13.742188 -7.984375 14.296875 -8.335938 14.578125 -9.046875 C 14.859375 -9.753906 15 -10.75 15 -12.03125 L 15 -34.375 C 15 -35.363281 14.863281 -36.164062 14.59375 -36.78125 C 14.332031 -37.40625 13.796875 -37.71875 12.984375 -37.71875 C 11.453125 -37.71875 10.6875 -36.566406 10.6875 -34.265625 L 10.6875 -11.96875 C 10.6875 -10.65625 10.847656 -9.660156 11.171875 -8.984375 C 11.492188 -8.316406 12.078125 -7.984375 12.921875 -7.984375 Z M 12.921875 -7.984375 "/></g></g></g><g fill="#ffffff" fill-opacity="1"><g transform="translate(573.043966, 78.507376)"><g><path d="M 5.59375 0 L 0.6875 -45.703125 L 9.625 -45.703125 L 12.1875 -16.859375 L 14.734375 -45.703125 L 23.25 -45.703125 L 25.703125 -16.859375 L 28.140625 -45.703125 L 37.1875 -45.703125 L 32.1875 0 L 21.234375 0 L 18.9375 -22.03125 L 16.765625 0 Z M 5.59375 0 "/></g></g></g><g fill="#ffffff" fill-opacity="1"><g transform="translate(108.865441, 128.921702)"><g><path d="M 2.765625 -1.6875 L 9.890625 -1.6875 L 9.546875 0 L 0.53125 0 L 3.5 -14.046875 L 5.390625 -14.046875 Z M 2.765625 -1.6875 "/></g></g></g><g fill="#ffffff" fill-opacity="1"><g transform="translate(119.742911, 128.921702)"><g><path d="M 1.953125 0 L 0.234375 0 L 2.421875 -10.234375 L 4.140625 -10.234375 Z M 2.8125 -12.09375 L 3.21875 -14.046875 L 4.9375 -14.046875 L 4.53125 -12.09375 Z M 2.8125 -12.09375 "/></g></g></g><g fill="#ffffff" fill-opacity="1"><g transform="translate(124.040419, 128.921702)"><g><path d="M 2.421875 -10.234375 L 4.046875 -10.234375 L 3.734375 -8.78125 L 3.765625 -8.78125 C 4.804688 -9.945312 5.972656 -10.53125 7.265625 -10.53125 C 8.503906 -10.53125 9.28125 -9.972656 9.59375 -8.859375 C 10.65625 -9.972656 11.8125 -10.53125 13.0625 -10.53125 C 13.820312 -10.53125 14.4375 -10.304688 14.90625 -9.859375 C 15.382812 -9.410156 15.625 -8.804688 15.625 -8.046875 C 15.625 -7.734375 15.585938 -7.410156 15.515625 -7.078125 L 14.015625 0 L 12.296875 0 L 13.703125 -6.609375 C 13.765625 -6.929688 13.796875 -7.238281 13.796875 -7.53125 C 13.796875 -7.976562 13.679688 -8.332031 13.453125 -8.59375 C 13.222656 -8.851562 12.878906 -8.984375 12.421875 -8.984375 C 11.710938 -8.984375 11.054688 -8.71875 10.453125 -8.1875 C 9.859375 -7.65625 9.476562 -7.003906 9.3125 -6.234375 L 7.984375 0 L 6.265625 0 L 7.78125 -7.078125 C 7.820312 -7.296875 7.84375 -7.492188 7.84375 -7.671875 C 7.84375 -8.085938 7.726562 -8.410156 7.5 -8.640625 C 7.269531 -8.867188 6.953125 -8.984375 6.546875 -8.984375 C 5.660156 -8.984375 4.914062 -8.648438 4.3125 -7.984375 C 3.71875 -7.316406 3.328125 -6.515625 3.140625 -5.578125 L 1.953125 0 L 0.234375 0 Z M 2.421875 -10.234375 "/></g></g></g><g fill="#ffffff" fill-opacity="1"><g transform="translate(140.2659, 128.921702)"><g><path d="M 1.953125 0 L 0.234375 0 L 2.421875 -10.234375 L 4.140625 -10.234375 Z M 2.8125 -12.09375 L 3.21875 -14.046875 L 4.9375 -14.046875 L 4.53125 -12.09375 Z M 2.8125 -12.09375 "/></g></g></g><g fill="#ffffff" fill-opacity="1"><g transform="translate(144.563408, 128.921702)"><g><path d="M 4.1875 -8.8125 L 2.765625 -2.15625 C 2.742188 -2.0625 2.734375 -1.976562 2.734375 -1.90625 C 2.734375 -1.71875 2.796875 -1.578125 2.921875 -1.484375 C 3.054688 -1.390625 3.273438 -1.34375 3.578125 -1.34375 L 4.234375 -1.34375 L 3.953125 0 C 3.410156 0.09375 2.96875 0.140625 2.625 0.140625 C 2.050781 0.140625 1.625 0.0234375 1.34375 -0.203125 C 1.070312 -0.429688 0.9375 -0.78125 0.9375 -1.25 C 0.9375 -1.46875 0.96875 -1.734375 1.03125 -2.046875 L 2.46875 -8.8125 L 1.078125 -8.8125 L 1.390625 -10.234375 L 2.765625 -10.234375 L 3.375 -13.09375 L 5.09375 -13.09375 L 4.484375 -10.234375 L 6.125 -10.234375 L 5.828125 -8.8125 Z M 4.1875 -8.8125 "/></g></g></g><g fill="#ffffff" fill-opacity="1"><g transform="translate(149.987818, 128.921702)"><g><path d="M 9.59375 -3.203125 C 9.175781 -2.128906 8.519531 -1.273438 7.625 -0.640625 C 6.726562 -0.00390625 5.65625 0.3125 4.40625 0.3125 C 3.226562 0.3125 2.296875 -0.0195312 1.609375 -0.6875 C 0.929688 -1.363281 0.59375 -2.269531 0.59375 -3.40625 C 0.59375 -5.238281 1.164062 -6.882812 2.3125 -8.34375 C 3.457031 -9.800781 4.921875 -10.53125 6.703125 -10.53125 C 7.835938 -10.53125 8.710938 -10.195312 9.328125 -9.53125 C 9.953125 -8.875 10.265625 -7.914062 10.265625 -6.65625 C 10.265625 -6 10.179688 -5.300781 10.015625 -4.5625 L 2.53125 -4.5625 C 2.445312 -4.25 2.40625 -3.910156 2.40625 -3.546875 C 2.40625 -2.804688 2.597656 -2.226562 2.984375 -1.8125 C 3.367188 -1.394531 3.9375 -1.1875 4.6875 -1.1875 C 5.40625 -1.1875 6.050781 -1.367188 6.625 -1.734375 C 7.207031 -2.109375 7.617188 -2.597656 7.859375 -3.203125 Z M 8.515625 -5.9375 C 8.566406 -6.25 8.59375 -6.507812 8.59375 -6.71875 C 8.59375 -7.46875 8.398438 -8.03125 8.015625 -8.40625 C 7.640625 -8.789062 7.097656 -8.984375 6.390625 -8.984375 C 5.578125 -8.984375 4.859375 -8.71875 4.234375 -8.1875 C 3.617188 -7.664062 3.148438 -6.914062 2.828125 -5.9375 Z M 8.515625 -5.9375 "/></g></g></g><g fill="#ffffff" fill-opacity="1"><g transform="translate(160.827089, 128.921702)"><g><path d="M 8.8125 0 L 7.1875 0 L 7.484375 -1.40625 L 7.4375 -1.40625 C 6.519531 -0.269531 5.414062 0.296875 4.125 0.296875 C 3.039062 0.296875 2.191406 -0.0664062 1.578125 -0.796875 C 0.972656 -1.523438 0.671875 -2.484375 0.671875 -3.671875 C 0.671875 -5.535156 1.203125 -7.144531 2.265625 -8.5 C 3.328125 -9.851562 4.625 -10.53125 6.15625 -10.53125 C 7.46875 -10.53125 8.390625 -9.945312 8.921875 -8.78125 L 8.984375 -8.875 L 10.0625 -14.046875 L 11.78125 -14.046875 Z M 2.421875 -3.75 C 2.421875 -3 2.597656 -2.382812 2.953125 -1.90625 C 3.304688 -1.425781 3.816406 -1.1875 4.484375 -1.1875 C 5.648438 -1.1875 6.570312 -1.707031 7.25 -2.75 C 7.925781 -3.789062 8.265625 -5.003906 8.265625 -6.390625 C 8.265625 -7.285156 8.085938 -7.941406 7.734375 -8.359375 C 7.390625 -8.773438 6.882812 -8.984375 6.21875 -8.984375 C 5.0625 -8.984375 4.140625 -8.457031 3.453125 -7.40625 C 2.765625 -6.363281 2.421875 -5.144531 2.421875 -3.75 Z M 2.421875 -3.75 "/></g></g></g><g fill="#ffffff" fill-opacity="1"><g transform="translate(171.971959, 128.921702)"><g/></g></g><g fill="#ffffff" fill-opacity="1"><g transform="translate(176.746968, 128.921702)"><g><path d="M 7.609375 -7.3125 C 7.640625 -7.445312 7.65625 -7.582031 7.65625 -7.71875 C 7.65625 -8.144531 7.484375 -8.46875 7.140625 -8.6875 C 6.796875 -8.914062 6.289062 -9.03125 5.625 -9.03125 C 4.957031 -9.03125 4.382812 -8.878906 3.90625 -8.578125 C 3.4375 -8.273438 3.203125 -7.890625 3.203125 -7.421875 C 3.203125 -7.097656 3.296875 -6.851562 3.484375 -6.6875 C 3.679688 -6.519531 3.953125 -6.390625 4.296875 -6.296875 L 6.296875 -5.78125 C 7.148438 -5.570312 7.765625 -5.269531 8.140625 -4.875 C 8.515625 -4.476562 8.703125 -3.988281 8.703125 -3.40625 C 8.703125 -2.269531 8.238281 -1.367188 7.3125 -0.703125 C 6.382812 -0.046875 5.265625 0.28125 3.953125 0.28125 C 2.796875 0.28125 1.867188 0.046875 1.171875 -0.421875 C 0.484375 -0.898438 0.140625 -1.5625 0.140625 -2.40625 C 0.140625 -2.707031 0.179688 -3 0.265625 -3.28125 L 1.921875 -3.28125 C 1.890625 -3.101562 1.875 -2.941406 1.875 -2.796875 C 1.875 -2.304688 2.070312 -1.914062 2.46875 -1.625 C 2.863281 -1.34375 3.429688 -1.203125 4.171875 -1.203125 C 4.972656 -1.203125 5.617188 -1.34375 6.109375 -1.625 C 6.609375 -1.90625 6.859375 -2.332031 6.859375 -2.90625 C 6.859375 -3.25 6.75 -3.523438 6.53125 -3.734375 C 6.3125 -3.941406 5.972656 -4.101562 5.515625 -4.21875 L 3.265625 -4.796875 C 2.703125 -4.953125 2.253906 -5.210938 1.921875 -5.578125 C 1.585938 -5.953125 1.421875 -6.421875 1.421875 -6.984375 C 1.421875 -8.046875 1.859375 -8.898438 2.734375 -9.546875 C 3.609375 -10.203125 4.691406 -10.53125 5.984375 -10.53125 C 6.960938 -10.53125 7.765625 -10.300781 8.390625 -9.84375 C 9.015625 -9.382812 9.328125 -8.757812 9.328125 -7.96875 C 9.328125 -7.75 9.300781 -7.53125 9.25 -7.3125 Z M 7.609375 -7.3125 "/></g></g></g><g fill="#ffffff" fill-opacity="1"><g transform="translate(186.526187, 128.921702)"><g><path d="M 9.59375 -3.203125 C 9.175781 -2.128906 8.519531 -1.273438 7.625 -0.640625 C 6.726562 -0.00390625 5.65625 0.3125 4.40625 0.3125 C 3.226562 0.3125 2.296875 -0.0195312 1.609375 -0.6875 C 0.929688 -1.363281 0.59375 -2.269531 0.59375 -3.40625 C 0.59375 -5.238281 1.164062 -6.882812 2.3125 -8.34375 C 3.457031 -9.800781 4.921875 -10.53125 6.703125 -10.53125 C 7.835938 -10.53125 8.710938 -10.195312 9.328125 -9.53125 C 9.953125 -8.875 10.265625 -7.914062 10.265625 -6.65625 C 10.265625 -6 10.179688 -5.300781 10.015625 -4.5625 L 2.53125 -4.5625 C 2.445312 -4.25 2.40625 -3.910156 2.40625 -3.546875 C 2.40625 -2.804688 2.597656 -2.226562 2.984375 -1.8125 C 3.367188 -1.394531 3.9375 -1.1875 4.6875 -1.1875 C 5.40625 -1.1875 6.050781 -1.367188 6.625 -1.734375 C 7.207031 -2.109375 7.617188 -2.597656 7.859375 -3.203125 Z M 8.515625 -5.9375 C 8.566406 -6.25 8.59375 -6.507812 8.59375 -6.71875 C 8.59375 -7.46875 8.398438 -8.03125 8.015625 -8.40625 C 7.640625 -8.789062 7.097656 -8.984375 6.390625 -8.984375 C 5.578125 -8.984375 4.859375 -8.71875 4.234375 -8.1875 C 3.617188 -7.664062 3.148438 -6.914062 2.828125 -5.9375 Z M 8.515625 -5.9375 "/></g></g></g><g fill="#ffffff" fill-opacity="1"><g transform="translate(197.365457, 128.921702)"><g><path d="M 1.6875 -7.109375 C 1.945312 -8.210938 2.46875 -9.054688 3.25 -9.640625 C 4.039062 -10.234375 5.117188 -10.53125 6.484375 -10.53125 C 7.429688 -10.53125 8.234375 -10.332031 8.890625 -9.9375 C 9.554688 -9.539062 9.890625 -8.988281 9.890625 -8.28125 C 9.890625 -8.082031 9.867188 -7.878906 9.828125 -7.671875 L 8.578125 -1.78125 C 8.554688 -1.695312 8.546875 -1.628906 8.546875 -1.578125 C 8.546875 -1.304688 8.695312 -1.171875 9 -1.171875 C 9.15625 -1.171875 9.351562 -1.195312 9.59375 -1.25 L 9.328125 0 C 8.960938 0.125 8.617188 0.1875 8.296875 0.1875 C 7.304688 0.1875 6.8125 -0.191406 6.8125 -0.953125 C 6.8125 -1.046875 6.828125 -1.179688 6.859375 -1.359375 C 5.835938 -0.253906 4.515625 0.296875 2.890625 0.296875 C 2.066406 0.296875 1.40625 0.0859375 0.90625 -0.328125 C 0.40625 -0.742188 0.15625 -1.351562 0.15625 -2.15625 C 0.15625 -3.070312 0.476562 -3.878906 1.125 -4.578125 C 1.769531 -5.285156 2.703125 -5.710938 3.921875 -5.859375 L 6.71875 -6.1875 C 7.300781 -6.25 7.679688 -6.441406 7.859375 -6.765625 C 8.046875 -7.097656 8.140625 -7.441406 8.140625 -7.796875 C 8.140625 -8.222656 7.972656 -8.546875 7.640625 -8.765625 C 7.304688 -8.984375 6.832031 -9.09375 6.21875 -9.09375 C 4.625 -9.09375 3.644531 -8.429688 3.28125 -7.109375 Z M 7.578125 -5.21875 C 7.316406 -4.988281 6.328125 -4.773438 4.609375 -4.578125 C 3.734375 -4.472656 3.082031 -4.242188 2.65625 -3.890625 C 2.226562 -3.535156 2.015625 -3.03125 2.015625 -2.375 C 2.015625 -1.957031 2.144531 -1.644531 2.40625 -1.4375 C 2.675781 -1.238281 3.039062 -1.140625 3.5 -1.140625 C 4.351562 -1.140625 5.148438 -1.367188 5.890625 -1.828125 C 6.628906 -2.285156 7.070312 -2.859375 7.21875 -3.546875 Z M 7.578125 -5.21875 "/></g></g></g><g fill="#ffffff" fill-opacity="1"><g transform="translate(208.118777, 128.921702)"><g><path d="M 4.1875 -8.8125 L 2.765625 -2.15625 C 2.742188 -2.0625 2.734375 -1.976562 2.734375 -1.90625 C 2.734375 -1.71875 2.796875 -1.578125 2.921875 -1.484375 C 3.054688 -1.390625 3.273438 -1.34375 3.578125 -1.34375 L 4.234375 -1.34375 L 3.953125 0 C 3.410156 0.09375 2.96875 0.140625 2.625 0.140625 C 2.050781 0.140625 1.625 0.0234375 1.34375 -0.203125 C 1.070312 -0.429688 0.9375 -0.78125 0.9375 -1.25 C 0.9375 -1.46875 0.96875 -1.734375 1.03125 -2.046875 L 2.46875 -8.8125 L 1.078125 -8.8125 L 1.390625 -10.234375 L 2.765625 -10.234375 L 3.375 -13.09375 L 5.09375 -13.09375 L 4.484375 -10.234375 L 6.125 -10.234375 L 5.828125 -8.8125 Z M 4.1875 -8.8125 "/></g></g></g><g fill="#ffffff" fill-opacity="1"><g transform="translate(213.543187, 128.921702)"><g><path d="M 7.609375 -7.3125 C 7.640625 -7.445312 7.65625 -7.582031 7.65625 -7.71875 C 7.65625 -8.144531 7.484375 -8.46875 7.140625 -8.6875 C 6.796875 -8.914062 6.289062 -9.03125 5.625 -9.03125 C 4.957031 -9.03125 4.382812 -8.878906 3.90625 -8.578125 C 3.4375 -8.273438 3.203125 -7.890625 3.203125 -7.421875 C 3.203125 -7.097656 3.296875 -6.851562 3.484375 -6.6875 C 3.679688 -6.519531 3.953125 -6.390625 4.296875 -6.296875 L 6.296875 -5.78125 C 7.148438 -5.570312 7.765625 -5.269531 8.140625 -4.875 C 8.515625 -4.476562 8.703125 -3.988281 8.703125 -3.40625 C 8.703125 -2.269531 8.238281 -1.367188 7.3125 -0.703125 C 6.382812 -0.046875 5.265625 0.28125 3.953125 0.28125 C 2.796875 0.28125 1.867188 0.046875 1.171875 -0.421875 C 0.484375 -0.898438 0.140625 -1.5625 0.140625 -2.40625 C 0.140625 -2.707031 0.179688 -3 0.265625 -3.28125 L 1.921875 -3.28125 C 1.890625 -3.101562 1.875 -2.941406 1.875 -2.796875 C 1.875 -2.304688 2.070312 -1.914062 2.46875 -1.625 C 2.863281 -1.34375 3.429688 -1.203125 4.171875 -1.203125 C 4.972656 -1.203125 5.617188 -1.34375 6.109375 -1.625 C 6.609375 -1.90625 6.859375 -2.332031 6.859375 -2.90625 C 6.859375 -3.25 6.75 -3.523438 6.53125 -3.734375 C 6.3125 -3.941406 5.972656 -4.101562 5.515625 -4.21875 L 3.265625 -4.796875 C 2.703125 -4.953125 2.253906 -5.210938 1.921875 -5.578125 C 1.585938 -5.953125 1.421875 -6.421875 1.421875 -6.984375 C 1.421875 -8.046875 1.859375 -8.898438 2.734375 -9.546875 C 3.609375 -10.203125 4.691406 -10.53125 5.984375 -10.53125 C 6.960938 -10.53125 7.765625 -10.300781 8.390625 -9.84375 C 9.015625 -9.382812 9.328125 -8.757812 9.328125 -7.96875 C 9.328125 -7.75 9.300781 -7.53125 9.25 -7.3125 Z M 7.609375 -7.3125 "/></g></g></g><g fill="#ffffff" fill-opacity="1"><g transform="translate(223.322406, 128.921702)"><g/></g></g><g fill="#ffffff" fill-opacity="1"><g transform="translate(228.097415, 128.921702)"><g><path d="M 1.6875 -7.109375 C 1.945312 -8.210938 2.46875 -9.054688 3.25 -9.640625 C 4.039062 -10.234375 5.117188 -10.53125 6.484375 -10.53125 C 7.429688 -10.53125 8.234375 -10.332031 8.890625 -9.9375 C 9.554688 -9.539062 9.890625 -8.988281 9.890625 -8.28125 C 9.890625 -8.082031 9.867188 -7.878906 9.828125 -7.671875 L 8.578125 -1.78125 C 8.554688 -1.695312 8.546875 -1.628906 8.546875 -1.578125 C 8.546875 -1.304688 8.695312 -1.171875 9 -1.171875 C 9.15625 -1.171875 9.351562 -1.195312 9.59375 -1.25 L 9.328125 0 C 8.960938 0.125 8.617188 0.1875 8.296875 0.1875 C 7.304688 0.1875 6.8125 -0.191406 6.8125 -0.953125 C 6.8125 -1.046875 6.828125 -1.179688 6.859375 -1.359375 C 5.835938 -0.253906 4.515625 0.296875 2.890625 0.296875 C 2.066406 0.296875 1.40625 0.0859375 0.90625 -0.328125 C 0.40625 -0.742188 0.15625 -1.351562 0.15625 -2.15625 C 0.15625 -3.070312 0.476562 -3.878906 1.125 -4.578125 C 1.769531 -5.285156 2.703125 -5.710938 3.921875 -5.859375 L 6.71875 -6.1875 C 7.300781 -6.25 7.679688 -6.441406 7.859375 -6.765625 C 8.046875 -7.097656 8.140625 -7.441406 8.140625 -7.796875 C 8.140625 -8.222656 7.972656 -8.546875 7.640625 -8.765625 C 7.304688 -8.984375 6.832031 -9.09375 6.21875 -9.09375 C 4.625 -9.09375 3.644531 -8.429688 3.28125 -7.109375 Z M 7.578125 -5.21875 C 7.316406 -4.988281 6.328125 -4.773438 4.609375 -4.578125 C 3.734375 -4.472656 3.082031 -4.242188 2.65625 -3.890625 C 2.226562 -3.535156 2.015625 -3.03125 2.015625 -2.375 C 2.015625 -1.957031 2.144531 -1.644531 2.40625 -1.4375 C 2.675781 -1.238281 3.039062 -1.140625 3.5 -1.140625 C 4.351562 -1.140625 5.148438 -1.367188 5.890625 -1.828125 C 6.628906 -2.285156 7.070312 -2.859375 7.21875 -3.546875 Z M 7.578125 -5.21875 "/></g></g></g><g fill="#ffffff" fill-opacity="1"><g transform="translate(238.850735, 128.921702)"><g><path d="M 8.75 -10.234375 L 10.71875 -10.234375 L 4.65625 0 L 2.8125 0 L 1.234375 -10.234375 L 3.21875 -10.234375 L 4.109375 -1.90625 L 4.15625 -1.90625 Z M 8.75 -10.234375 "/></g></g></g><g fill="#ffffff" fill-opacity="1"><g transform="translate(248.544003, 128.921702)"><g><path d="M 1.6875 -7.109375 C 1.945312 -8.210938 2.46875 -9.054688 3.25 -9.640625 C 4.039062 -10.234375 5.117188 -10.53125 6.484375 -10.53125 C 7.429688 -10.53125 8.234375 -10.332031 8.890625 -9.9375 C 9.554688 -9.539062 9.890625 -8.988281 9.890625 -8.28125 C 9.890625 -8.082031 9.867188 -7.878906 9.828125 -7.671875 L 8.578125 -1.78125 C 8.554688 -1.695312 8.546875 -1.628906 8.546875 -1.578125 C 8.546875 -1.304688 8.695312 -1.171875 9 -1.171875 C 9.15625 -1.171875 9.351562 -1.195312 9.59375 -1.25 L 9.328125 0 C 8.960938 0.125 8.617188 0.1875 8.296875 0.1875 C 7.304688 0.1875 6.8125 -0.191406 6.8125 -0.953125 C 6.8125 -1.046875 6.828125 -1.179688 6.859375 -1.359375 C 5.835938 -0.253906 4.515625 0.296875 2.890625 0.296875 C 2.066406 0.296875 1.40625 0.0859375 0.90625 -0.328125 C 0.40625 -0.742188 0.15625 -1.351562 0.15625 -2.15625 C 0.15625 -3.070312 0.476562 -3.878906 1.125 -4.578125 C 1.769531 -5.285156 2.703125 -5.710938 3.921875 -5.859375 L 6.71875 -6.1875 C 7.300781 -6.25 7.679688 -6.441406 7.859375 -6.765625 C 8.046875 -7.097656 8.140625 -7.441406 8.140625 -7.796875 C 8.140625 -8.222656 7.972656 -8.546875 7.640625 -8.765625 C 7.304688 -8.984375 6.832031 -9.09375 6.21875 -9.09375 C 4.625 -9.09375 3.644531 -8.429688 3.28125 -7.109375 Z M 7.578125 -5.21875 C 7.316406 -4.988281 6.328125 -4.773438 4.609375 -4.578125 C 3.734375 -4.472656 3.082031 -4.242188 2.65625 -3.890625 C 2.226562 -3.535156 2.015625 -3.03125 2.015625 -2.375 C 2.015625 -1.957031 2.144531 -1.644531 2.40625 -1.4375 C 2.675781 -1.238281 3.039062 -1.140625 3.5 -1.140625 C 4.351562 -1.140625 5.148438 -1.367188 5.890625 -1.828125 C 6.628906 -2.285156 7.070312 -2.859375 7.21875 -3.546875 Z M 7.578125 -5.21875 "/></g></g></g><g fill="#ffffff" fill-opacity="1"><g transform="translate(259.297323, 128.921702)"><g><path d="M 1.953125 0 L 0.234375 0 L 2.421875 -10.234375 L 4.140625 -10.234375 Z M 2.8125 -12.09375 L 3.21875 -14.046875 L 4.9375 -14.046875 L 4.53125 -12.09375 Z M 2.8125 -12.09375 "/></g></g></g><g fill="#ffffff" fill-opacity="1"><g transform="translate(263.594831, 128.921702)"><g><path d="M 1.953125 0 L 0.234375 0 L 3.21875 -14.046875 L 4.9375 -14.046875 Z M 1.953125 0 "/></g></g></g><g fill="#ffffff" fill-opacity="1"><g transform="translate(267.892339, 128.921702)"><g><path d="M 1.6875 -7.109375 C 1.945312 -8.210938 2.46875 -9.054688 3.25 -9.640625 C 4.039062 -10.234375 5.117188 -10.53125 6.484375 -10.53125 C 7.429688 -10.53125 8.234375 -10.332031 8.890625 -9.9375 C 9.554688 -9.539062 9.890625 -8.988281 9.890625 -8.28125 C 9.890625 -8.082031 9.867188 -7.878906 9.828125 -7.671875 L 8.578125 -1.78125 C 8.554688 -1.695312 8.546875 -1.628906 8.546875 -1.578125 C 8.546875 -1.304688 8.695312 -1.171875 9 -1.171875 C 9.15625 -1.171875 9.351562 -1.195312 9.59375 -1.25 L 9.328125 0 C 8.960938 0.125 8.617188 0.1875 8.296875 0.1875 C 7.304688 0.1875 6.8125 -0.191406 6.8125 -0.953125 C 6.8125 -1.046875 6.828125 -1.179688 6.859375 -1.359375 C 5.835938 -0.253906 4.515625 0.296875 2.890625 0.296875 C 2.066406 0.296875 1.40625 0.0859375 0.90625 -0.328125 C 0.40625 -0.742188 0.15625 -1.351562 0.15625 -2.15625 C 0.15625 -3.070312 0.476562 -3.878906 1.125 -4.578125 C 1.769531 -5.285156 2.703125 -5.710938 3.921875 -5.859375 L 6.71875 -6.1875 C 7.300781 -6.25 7.679688 -6.441406 7.859375 -6.765625 C 8.046875 -7.097656 8.140625 -7.441406 8.140625 -7.796875 C 8.140625 -8.222656 7.972656 -8.546875 7.640625 -8.765625 C 7.304688 -8.984375 6.832031 -9.09375 6.21875 -9.09375 C 4.625 -9.09375 3.644531 -8.429688 3.28125 -7.109375 Z M 7.578125 -5.21875 C 7.316406 -4.988281 6.328125 -4.773438 4.609375 -4.578125 C 3.734375 -4.472656 3.082031 -4.242188 2.65625 -3.890625 C 2.226562 -3.535156 2.015625 -3.03125 2.015625 -2.375 C 2.015625 -1.957031 2.144531 -1.644531 2.40625 -1.4375 C 2.675781 -1.238281 3.039062 -1.140625 3.5 -1.140625 C 4.351562 -1.140625 5.148438 -1.367188 5.890625 -1.828125 C 6.628906 -2.285156 7.070312 -2.859375 7.21875 -3.546875 Z M 7.578125 -5.21875 "/></g></g></g><g fill="#ffffff" fill-opacity="1"><g transform="translate(278.64566, 128.921702)"><g><path d="M 0.234375 0 L 3.21875 -14.046875 L 4.9375 -14.046875 L 3.859375 -8.9375 L 3.890625 -8.9375 C 4.847656 -10 5.929688 -10.53125 7.140625 -10.53125 C 8.191406 -10.53125 9.019531 -10.1875 9.625 -9.5 C 10.238281 -8.820312 10.546875 -7.925781 10.546875 -6.8125 C 10.546875 -5.050781 10 -3.425781 8.90625 -1.9375 C 7.8125 -0.445312 6.441406 0.296875 4.796875 0.296875 C 3.535156 0.296875 2.660156 -0.238281 2.171875 -1.3125 L 2.140625 -1.3125 L 1.859375 0 Z M 8.71875 -6.625 C 8.71875 -7.375 8.535156 -7.953125 8.171875 -8.359375 C 7.816406 -8.773438 7.304688 -8.984375 6.640625 -8.984375 C 5.484375 -8.984375 4.546875 -8.410156 3.828125 -7.265625 C 3.117188 -6.128906 2.765625 -4.910156 2.765625 -3.609375 C 2.765625 -2.867188 2.957031 -2.28125 3.34375 -1.84375 C 3.738281 -1.40625 4.265625 -1.1875 4.921875 -1.1875 C 6.023438 -1.1875 6.929688 -1.75 7.640625 -2.875 C 8.359375 -4.007812 8.71875 -5.257812 8.71875 -6.625 Z M 8.71875 -6.625 "/></g></g></g><g fill="#ffffff" fill-opacity="1"><g transform="translate(289.69503, 128.921702)"><g><path d="M 1.953125 0 L 0.234375 0 L 3.21875 -14.046875 L 4.9375 -14.046875 Z M 1.953125 0 "/></g></g></g><g fill="#ffffff" fill-opacity="1"><g transform="translate(293.992538, 128.921702)"><g><path d="M 9.59375 -3.203125 C 9.175781 -2.128906 8.519531 -1.273438 7.625 -0.640625 C 6.726562 -0.00390625 5.65625 0.3125 4.40625 0.3125 C 3.226562 0.3125 2.296875 -0.0195312 1.609375 -0.6875 C 0.929688 -1.363281 0.59375 -2.269531 0.59375 -3.40625 C 0.59375 -5.238281 1.164062 -6.882812 2.3125 -8.34375 C 3.457031 -9.800781 4.921875 -10.53125 6.703125 -10.53125 C 7.835938 -10.53125 8.710938 -10.195312 9.328125 -9.53125 C 9.953125 -8.875 10.265625 -7.914062 10.265625 -6.65625 C 10.265625 -6 10.179688 -5.300781 10.015625 -4.5625 L 2.53125 -4.5625 C 2.445312 -4.25 2.40625 -3.910156 2.40625 -3.546875 C 2.40625 -2.804688 2.597656 -2.226562 2.984375 -1.8125 C 3.367188 -1.394531 3.9375 -1.1875 4.6875 -1.1875 C 5.40625 -1.1875 6.050781 -1.367188 6.625 -1.734375 C 7.207031 -2.109375 7.617188 -2.597656 7.859375 -3.203125 Z M 8.515625 -5.9375 C 8.566406 -6.25 8.59375 -6.507812 8.59375 -6.71875 C 8.59375 -7.46875 8.398438 -8.03125 8.015625 -8.40625 C 7.640625 -8.789062 7.097656 -8.984375 6.390625 -8.984375 C 5.578125 -8.984375 4.859375 -8.71875 4.234375 -8.1875 C 3.617188 -7.664062 3.148438 -6.914062 2.828125 -5.9375 Z M 8.515625 -5.9375 "/></g></g></g><g fill="#ffffff" fill-opacity="1"><g transform="translate(304.831809, 128.921702)"><g><path d="M 1.09375 -2.078125 L 3.125 -2.078125 L 2.71875 -0.15625 C 2.507812 0.8125 2.148438 1.539062 1.640625 2.03125 C 1.128906 2.53125 0.59375 2.8125 0.03125 2.875 L 0.234375 1.984375 C 0.941406 1.898438 1.425781 1.238281 1.6875 0 L 0.65625 0 Z M 1.09375 -2.078125 "/></g></g></g><g fill="#ffffff" fill-opacity="1"><g transform="translate(310.265769, 128.921702)"><g/></g></g><g fill="#ffffff" fill-opacity="1"><g transform="translate(315.040778, 128.921702)"><g><path d="M 7.609375 -7.3125 C 7.640625 -7.445312 7.65625 -7.582031 7.65625 -7.71875 C 7.65625 -8.144531 7.484375 -8.46875 7.140625 -8.6875 C 6.796875 -8.914062 6.289062 -9.03125 5.625 -9.03125 C 4.957031 -9.03125 4.382812 -8.878906 3.90625 -8.578125 C 3.4375 -8.273438 3.203125 -7.890625 3.203125 -7.421875 C 3.203125 -7.097656 3.296875 -6.851562 3.484375 -6.6875 C 3.679688 -6.519531 3.953125 -6.390625 4.296875 -6.296875 L 6.296875 -5.78125 C 7.148438 -5.570312 7.765625 -5.269531 8.140625 -4.875 C 8.515625 -4.476562 8.703125 -3.988281 8.703125 -3.40625 C 8.703125 -2.269531 8.238281 -1.367188 7.3125 -0.703125 C 6.382812 -0.046875 5.265625 0.28125 3.953125 0.28125 C 2.796875 0.28125 1.867188 0.046875 1.171875 -0.421875 C 0.484375 -0.898438 0.140625 -1.5625 0.140625 -2.40625 C 0.140625 -2.707031 0.179688 -3 0.265625 -3.28125 L 1.921875 -3.28125 C 1.890625 -3.101562 1.875 -2.941406 1.875 -2.796875 C 1.875 -2.304688 2.070312 -1.914062 2.46875 -1.625 C 2.863281 -1.34375 3.429688 -1.203125 4.171875 -1.203125 C 4.972656 -1.203125 5.617188 -1.34375 6.109375 -1.625 C 6.609375 -1.90625 6.859375 -2.332031 6.859375 -2.90625 C 6.859375 -3.25 6.75 -3.523438 6.53125 -3.734375 C 6.3125 -3.941406 5.972656 -4.101562 5.515625 -4.21875 L 3.265625 -4.796875 C 2.703125 -4.953125 2.253906 -5.210938 1.921875 -5.578125 C 1.585938 -5.953125 1.421875 -6.421875 1.421875 -6.984375 C 1.421875 -8.046875 1.859375 -8.898438 2.734375 -9.546875 C 3.609375 -10.203125 4.691406 -10.53125 5.984375 -10.53125 C 6.960938 -10.53125 7.765625 -10.300781 8.390625 -9.84375 C 9.015625 -9.382812 9.328125 -8.757812 9.328125 -7.96875 C 9.328125 -7.75 9.300781 -7.53125 9.25 -7.3125 Z M 7.609375 -7.3125 "/></g></g></g><g fill="#ffffff" fill-opacity="1"><g transform="translate(324.819996, 128.921702)"><g><path d="M 6.390625 -9.03125 C 5.234375 -9.03125 4.273438 -8.5 3.515625 -7.4375 C 2.765625 -6.382812 2.390625 -5.175781 2.390625 -3.8125 C 2.390625 -3.0625 2.585938 -2.4375 2.984375 -1.9375 C 3.378906 -1.445312 3.921875 -1.203125 4.609375 -1.203125 C 5.765625 -1.203125 6.71875 -1.726562 7.46875 -2.78125 C 8.226562 -3.832031 8.609375 -5.046875 8.609375 -6.421875 C 8.609375 -7.160156 8.410156 -7.78125 8.015625 -8.28125 C 7.617188 -8.78125 7.078125 -9.03125 6.390625 -9.03125 Z M 6.671875 -10.515625 C 7.847656 -10.515625 8.765625 -10.144531 9.421875 -9.40625 C 10.078125 -8.675781 10.40625 -7.734375 10.40625 -6.578125 C 10.40625 -4.804688 9.835938 -3.21875 8.703125 -1.8125 C 7.578125 -0.414062 6.117188 0.28125 4.328125 0.28125 C 3.148438 0.28125 2.234375 -0.0820312 1.578125 -0.8125 C 0.921875 -1.550781 0.59375 -2.5 0.59375 -3.65625 C 0.59375 -5.414062 1.160156 -7 2.296875 -8.40625 C 3.429688 -9.8125 4.890625 -10.515625 6.671875 -10.515625 Z M 6.671875 -10.515625 "/></g></g></g><g fill="#ffffff" fill-opacity="1"><g transform="translate(335.754767, 128.921702)"><g/></g></g><g fill="#ffffff" fill-opacity="1"><g transform="translate(340.529776, 128.921702)"><g><path d="M 0.234375 0 L 3.21875 -14.046875 L 4.9375 -14.046875 L 3.859375 -8.9375 L 3.890625 -8.9375 C 4.847656 -10 5.929688 -10.53125 7.140625 -10.53125 C 8.191406 -10.53125 9.019531 -10.1875 9.625 -9.5 C 10.238281 -8.820312 10.546875 -7.925781 10.546875 -6.8125 C 10.546875 -5.050781 10 -3.425781 8.90625 -1.9375 C 7.8125 -0.445312 6.441406 0.296875 4.796875 0.296875 C 3.535156 0.296875 2.660156 -0.238281 2.171875 -1.3125 L 2.140625 -1.3125 L 1.859375 0 Z M 8.71875 -6.625 C 8.71875 -7.375 8.535156 -7.953125 8.171875 -8.359375 C 7.816406 -8.773438 7.304688 -8.984375 6.640625 -8.984375 C 5.484375 -8.984375 4.546875 -8.410156 3.828125 -7.265625 C 3.117188 -6.128906 2.765625 -4.910156 2.765625 -3.609375 C 2.765625 -2.867188 2.957031 -2.28125 3.34375 -1.84375 C 3.738281 -1.40625 4.265625 -1.1875 4.921875 -1.1875 C 6.023438 -1.1875 6.929688 -1.75 7.640625 -2.875 C 8.359375 -4.007812 8.71875 -5.257812 8.71875 -6.625 Z M 8.71875 -6.625 "/></g></g></g><g fill="#ffffff" fill-opacity="1"><g transform="translate(351.579146, 128.921702)"><g><path d="M 6.390625 -9.03125 C 5.234375 -9.03125 4.273438 -8.5 3.515625 -7.4375 C 2.765625 -6.382812 2.390625 -5.175781 2.390625 -3.8125 C 2.390625 -3.0625 2.585938 -2.4375 2.984375 -1.9375 C 3.378906 -1.445312 3.921875 -1.203125 4.609375 -1.203125 C 5.765625 -1.203125 6.71875 -1.726562 7.46875 -2.78125 C 8.226562 -3.832031 8.609375 -5.046875 8.609375 -6.421875 C 8.609375 -7.160156 8.410156 -7.78125 8.015625 -8.28125 C 7.617188 -8.78125 7.078125 -9.03125 6.390625 -9.03125 Z M 6.671875 -10.515625 C 7.847656 -10.515625 8.765625 -10.144531 9.421875 -9.40625 C 10.078125 -8.675781 10.40625 -7.734375 10.40625 -6.578125 C 10.40625 -4.804688 9.835938 -3.21875 8.703125 -1.8125 C 7.578125 -0.414062 6.117188 0.28125 4.328125 0.28125 C 3.148438 0.28125 2.234375 -0.0820312 1.578125 -0.8125 C 0.921875 -1.550781 0.59375 -2.5 0.59375 -3.65625 C 0.59375 -5.414062 1.160156 -7 2.296875 -8.40625 C 3.429688 -9.8125 4.890625 -10.515625 6.671875 -10.515625 Z M 6.671875 -10.515625 "/></g></g></g><g fill="#ffffff" fill-opacity="1"><g transform="translate(362.513917, 128.921702)"><g><path d="M 6.390625 -9.03125 C 5.234375 -9.03125 4.273438 -8.5 3.515625 -7.4375 C 2.765625 -6.382812 2.390625 -5.175781 2.390625 -3.8125 C 2.390625 -3.0625 2.585938 -2.4375 2.984375 -1.9375 C 3.378906 -1.445312 3.921875 -1.203125 4.609375 -1.203125 C 5.765625 -1.203125 6.71875 -1.726562 7.46875 -2.78125 C 8.226562 -3.832031 8.609375 -5.046875 8.609375 -6.421875 C 8.609375 -7.160156 8.410156 -7.78125 8.015625 -8.28125 C 7.617188 -8.78125 7.078125 -9.03125 6.390625 -9.03125 Z M 6.671875 -10.515625 C 7.847656 -10.515625 8.765625 -10.144531 9.421875 -9.40625 C 10.078125 -8.675781 10.40625 -7.734375 10.40625 -6.578125 C 10.40625 -4.804688 9.835938 -3.21875 8.703125 -1.8125 C 7.578125 -0.414062 6.117188 0.28125 4.328125 0.28125 C 3.148438 0.28125 2.234375 -0.0820312 1.578125 -0.8125 C 0.921875 -1.550781 0.59375 -2.5 0.59375 -3.65625 C 0.59375 -5.414062 1.160156 -7 2.296875 -8.40625 C 3.429688 -9.8125 4.890625 -10.515625 6.671875 -10.515625 Z M 6.671875 -10.515625 "/></g></g></g><g fill="#ffffff" fill-opacity="1"><g transform="translate(373.448687, 128.921702)"><g><path d="M 6.671875 0 L 4.453125 -5.125 L 2.671875 -3.65625 L 1.90625 0 L 0.234375 0 L 3.21875 -14.046875 L 4.875 -14.046875 L 3.15625 -5.90625 L 8.390625 -10.234375 L 10.671875 -10.234375 L 5.890625 -6.296875 L 8.734375 0 Z M 6.671875 0 "/></g></g></g><g fill="#ffffff" fill-opacity="1"><g transform="translate(383.227906, 128.921702)"><g/></g></g><g fill="#ffffff" fill-opacity="1"><g transform="translate(388.002915, 128.921702)"><g><path d="M 8.734375 -10.234375 L 10.640625 -10.234375 L 4.265625 0.828125 C 3.410156 2.316406 2.71875 3.25 2.1875 3.625 C 1.65625 4 1.0625 4.1875 0.40625 4.1875 C -0.0195312 4.1875 -0.421875 4.132812 -0.796875 4.03125 L -0.46875 2.5 C -0.0625 2.59375 0.285156 2.640625 0.578125 2.640625 C 0.910156 2.640625 1.207031 2.53125 1.46875 2.3125 C 1.726562 2.09375 2.066406 1.625 2.484375 0.90625 L 2.859375 0.28125 L 1.296875 -10.234375 L 3.203125 -10.234375 L 4.1875 -1.90625 L 4.234375 -1.90625 Z M 8.734375 -10.234375 "/></g></g></g><g fill="#ffffff" fill-opacity="1"><g transform="translate(397.705733, 128.921702)"><g><path d="M 6.390625 -9.03125 C 5.234375 -9.03125 4.273438 -8.5 3.515625 -7.4375 C 2.765625 -6.382812 2.390625 -5.175781 2.390625 -3.8125 C 2.390625 -3.0625 2.585938 -2.4375 2.984375 -1.9375 C 3.378906 -1.445312 3.921875 -1.203125 4.609375 -1.203125 C 5.765625 -1.203125 6.71875 -1.726562 7.46875 -2.78125 C 8.226562 -3.832031 8.609375 -5.046875 8.609375 -6.421875 C 8.609375 -7.160156 8.410156 -7.78125 8.015625 -8.28125 C 7.617188 -8.78125 7.078125 -9.03125 6.390625 -9.03125 Z M 6.671875 -10.515625 C 7.847656 -10.515625 8.765625 -10.144531 9.421875 -9.40625 C 10.078125 -8.675781 10.40625 -7.734375 10.40625 -6.578125 C 10.40625 -4.804688 9.835938 -3.21875 8.703125 -1.8125 C 7.578125 -0.414062 6.117188 0.28125 4.328125 0.28125 C 3.148438 0.28125 2.234375 -0.0820312 1.578125 -0.8125 C 0.921875 -1.550781 0.59375 -2.5 0.59375 -3.65625 C 0.59375 -5.414062 1.160156 -7 2.296875 -8.40625 C 3.429688 -9.8125 4.890625 -10.515625 6.671875 -10.515625 Z M 6.671875 -10.515625 "/></g></g></g><g fill="#ffffff" fill-opacity="1"><g transform="translate(408.640503, 128.921702)"><g><path d="M 6.75 0 L 7.0625 -1.484375 L 7.046875 -1.53125 C 6.128906 -0.3125 4.910156 0.296875 3.390625 0.296875 C 2.554688 0.296875 1.890625 0.0820312 1.390625 -0.34375 C 0.898438 -0.769531 0.65625 -1.347656 0.65625 -2.078125 C 0.65625 -2.304688 0.6875 -2.570312 0.75 -2.875 L 2.328125 -10.234375 L 4.046875 -10.234375 L 2.59375 -3.4375 C 2.53125 -3.125 2.5 -2.851562 2.5 -2.625 C 2.5 -2.132812 2.644531 -1.769531 2.9375 -1.53125 C 3.226562 -1.300781 3.601562 -1.1875 4.0625 -1.1875 C 4.9375 -1.1875 5.691406 -1.484375 6.328125 -2.078125 C 6.960938 -2.679688 7.394531 -3.519531 7.625 -4.59375 L 8.828125 -10.234375 L 10.5625 -10.234375 L 8.375 0 Z M 6.75 0 "/></g></g></g><g fill="#ffffff" fill-opacity="1"><g transform="translate(419.355623, 128.921702)"><g><path d="M 1.953125 0 L 0.234375 0 L 2.421875 -10.234375 L 4.046875 -10.234375 L 3.671875 -8.53125 L 3.71875 -8.53125 C 4.738281 -9.863281 5.835938 -10.53125 7.015625 -10.53125 C 7.191406 -10.53125 7.335938 -10.507812 7.453125 -10.46875 L 7.0625 -8.65625 C 6.851562 -8.675781 6.640625 -8.6875 6.421875 -8.6875 C 5.648438 -8.6875 4.960938 -8.421875 4.359375 -7.890625 C 3.753906 -7.359375 3.375 -6.710938 3.21875 -5.953125 Z M 1.953125 0 "/></g></g></g><g fill="#ffffff" fill-opacity="1"><g transform="translate(425.677735, 128.921702)"><g/></g></g><g fill="#ffffff" fill-opacity="1"><g transform="translate(430.452744, 128.921702)"><g><path d="M 7.609375 -7.3125 C 7.640625 -7.445312 7.65625 -7.582031 7.65625 -7.71875 C 7.65625 -8.144531 7.484375 -8.46875 7.140625 -8.6875 C 6.796875 -8.914062 6.289062 -9.03125 5.625 -9.03125 C 4.957031 -9.03125 4.382812 -8.878906 3.90625 -8.578125 C 3.4375 -8.273438 3.203125 -7.890625 3.203125 -7.421875 C 3.203125 -7.097656 3.296875 -6.851562 3.484375 -6.6875 C 3.679688 -6.519531 3.953125 -6.390625 4.296875 -6.296875 L 6.296875 -5.78125 C 7.148438 -5.570312 7.765625 -5.269531 8.140625 -4.875 C 8.515625 -4.476562 8.703125 -3.988281 8.703125 -3.40625 C 8.703125 -2.269531 8.238281 -1.367188 7.3125 -0.703125 C 6.382812 -0.046875 5.265625 0.28125 3.953125 0.28125 C 2.796875 0.28125 1.867188 0.046875 1.171875 -0.421875 C 0.484375 -0.898438 0.140625 -1.5625 0.140625 -2.40625 C 0.140625 -2.707031 0.179688 -3 0.265625 -3.28125 L 1.921875 -3.28125 C 1.890625 -3.101562 1.875 -2.941406 1.875 -2.796875 C 1.875 -2.304688 2.070312 -1.914062 2.46875 -1.625 C 2.863281 -1.34375 3.429688 -1.203125 4.171875 -1.203125 C 4.972656 -1.203125 5.617188 -1.34375 6.109375 -1.625 C 6.609375 -1.90625 6.859375 -2.332031 6.859375 -2.90625 C 6.859375 -3.25 6.75 -3.523438 6.53125 -3.734375 C 6.3125 -3.941406 5.972656 -4.101562 5.515625 -4.21875 L 3.265625 -4.796875 C 2.703125 -4.953125 2.253906 -5.210938 1.921875 -5.578125 C 1.585938 -5.953125 1.421875 -6.421875 1.421875 -6.984375 C 1.421875 -8.046875 1.859375 -8.898438 2.734375 -9.546875 C 3.609375 -10.203125 4.691406 -10.53125 5.984375 -10.53125 C 6.960938 -10.53125 7.765625 -10.300781 8.390625 -9.84375 C 9.015625 -9.382812 9.328125 -8.757812 9.328125 -7.96875 C 9.328125 -7.75 9.300781 -7.53125 9.25 -7.3125 Z M 7.609375 -7.3125 "/></g></g></g><g fill="#ffffff" fill-opacity="1"><g transform="translate(440.231963, 128.921702)"><g><path d="M 1.953125 0 L 0.234375 0 L 3.21875 -14.046875 L 4.9375 -14.046875 Z M 1.953125 0 "/></g></g></g><g fill="#ffffff" fill-opacity="1"><g transform="translate(444.529471, 128.921702)"><g><path d="M 6.390625 -9.03125 C 5.234375 -9.03125 4.273438 -8.5 3.515625 -7.4375 C 2.765625 -6.382812 2.390625 -5.175781 2.390625 -3.8125 C 2.390625 -3.0625 2.585938 -2.4375 2.984375 -1.9375 C 3.378906 -1.445312 3.921875 -1.203125 4.609375 -1.203125 C 5.765625 -1.203125 6.71875 -1.726562 7.46875 -2.78125 C 8.226562 -3.832031 8.609375 -5.046875 8.609375 -6.421875 C 8.609375 -7.160156 8.410156 -7.78125 8.015625 -8.28125 C 7.617188 -8.78125 7.078125 -9.03125 6.390625 -9.03125 Z M 6.671875 -10.515625 C 7.847656 -10.515625 8.765625 -10.144531 9.421875 -9.40625 C 10.078125 -8.675781 10.40625 -7.734375 10.40625 -6.578125 C 10.40625 -4.804688 9.835938 -3.21875 8.703125 -1.8125 C 7.578125 -0.414062 6.117188 0.28125 4.328125 0.28125 C 3.148438 0.28125 2.234375 -0.0820312 1.578125 -0.8125 C 0.921875 -1.550781 0.59375 -2.5 0.59375 -3.65625 C 0.59375 -5.414062 1.160156 -7 2.296875 -8.40625 C 3.429688 -9.8125 4.890625 -10.515625 6.671875 -10.515625 Z M 6.671875 -10.515625 "/></g></g></g><g fill="#ffffff" fill-opacity="1"><g transform="translate(455.464241, 128.921702)"><g><path d="M 4.1875 -8.8125 L 2.765625 -2.15625 C 2.742188 -2.0625 2.734375 -1.976562 2.734375 -1.90625 C 2.734375 -1.71875 2.796875 -1.578125 2.921875 -1.484375 C 3.054688 -1.390625 3.273438 -1.34375 3.578125 -1.34375 L 4.234375 -1.34375 L 3.953125 0 C 3.410156 0.09375 2.96875 0.140625 2.625 0.140625 C 2.050781 0.140625 1.625 0.0234375 1.34375 -0.203125 C 1.070312 -0.429688 0.9375 -0.78125 0.9375 -1.25 C 0.9375 -1.46875 0.96875 -1.734375 1.03125 -2.046875 L 2.46875 -8.8125 L 1.078125 -8.8125 L 1.390625 -10.234375 L 2.765625 -10.234375 L 3.375 -13.09375 L 5.09375 -13.09375 L 4.484375 -10.234375 L 6.125 -10.234375 L 5.828125 -8.8125 Z M 4.1875 -8.8125 "/></g></g></g><g fill="#ffffff" fill-opacity="1"><g transform="translate(460.888651, 128.921702)"><g/></g></g><g fill="#ffffff" fill-opacity="1"><g transform="translate(465.66366, 128.921702)"><g><path d="M 0.234375 0 L 3.21875 -14.046875 L 4.9375 -14.046875 L 3.859375 -8.9375 L 3.890625 -8.9375 C 4.847656 -10 5.929688 -10.53125 7.140625 -10.53125 C 8.191406 -10.53125 9.019531 -10.1875 9.625 -9.5 C 10.238281 -8.820312 10.546875 -7.925781 10.546875 -6.8125 C 10.546875 -5.050781 10 -3.425781 8.90625 -1.9375 C 7.8125 -0.445312 6.441406 0.296875 4.796875 0.296875 C 3.535156 0.296875 2.660156 -0.238281 2.171875 -1.3125 L 2.140625 -1.3125 L 1.859375 0 Z M 8.71875 -6.625 C 8.71875 -7.375 8.535156 -7.953125 8.171875 -8.359375 C 7.816406 -8.773438 7.304688 -8.984375 6.640625 -8.984375 C 5.484375 -8.984375 4.546875 -8.410156 3.828125 -7.265625 C 3.117188 -6.128906 2.765625 -4.910156 2.765625 -3.609375 C 2.765625 -2.867188 2.957031 -2.28125 3.34375 -1.84375 C 3.738281 -1.40625 4.265625 -1.1875 4.921875 -1.1875 C 6.023438 -1.1875 6.929688 -1.75 7.640625 -2.875 C 8.359375 -4.007812 8.71875 -5.257812 8.71875 -6.625 Z M 8.71875 -6.625 "/></g></g></g><g fill="#ffffff" fill-opacity="1"><g transform="translate(476.713031, 128.921702)"><g><path d="M 9.59375 -3.203125 C 9.175781 -2.128906 8.519531 -1.273438 7.625 -0.640625 C 6.726562 -0.00390625 5.65625 0.3125 4.40625 0.3125 C 3.226562 0.3125 2.296875 -0.0195312 1.609375 -0.6875 C 0.929688 -1.363281 0.59375 -2.269531 0.59375 -3.40625 C 0.59375 -5.238281 1.164062 -6.882812 2.3125 -8.34375 C 3.457031 -9.800781 4.921875 -10.53125 6.703125 -10.53125 C 7.835938 -10.53125 8.710938 -10.195312 9.328125 -9.53125 C 9.953125 -8.875 10.265625 -7.914062 10.265625 -6.65625 C 10.265625 -6 10.179688 -5.300781 10.015625 -4.5625 L 2.53125 -4.5625 C 2.445312 -4.25 2.40625 -3.910156 2.40625 -3.546875 C 2.40625 -2.804688 2.597656 -2.226562 2.984375 -1.8125 C 3.367188 -1.394531 3.9375 -1.1875 4.6875 -1.1875 C 5.40625 -1.1875 6.050781 -1.367188 6.625 -1.734375 C 7.207031 -2.109375 7.617188 -2.597656 7.859375 -3.203125 Z M 8.515625 -5.9375 C 8.566406 -6.25 8.59375 -6.507812 8.59375 -6.71875 C 8.59375 -7.46875 8.398438 -8.03125 8.015625 -8.40625 C 7.640625 -8.789062 7.097656 -8.984375 6.390625 -8.984375 C 5.578125 -8.984375 4.859375 -8.71875 4.234375 -8.1875 C 3.617188 -7.664062 3.148438 -6.914062 2.828125 -5.9375 Z M 8.515625 -5.9375 "/></g></g></g><g fill="#ffffff" fill-opacity="1"><g transform="translate(487.552301, 128.921702)"><g><path d="M 4.1875 -8.8125 L 2.3125 0 L 0.59375 0 L 2.46875 -8.8125 L 1.0625 -8.8125 L 1.359375 -10.234375 L 2.765625 -10.234375 L 3.140625 -11.984375 C 3.296875 -12.753906 3.644531 -13.320312 4.1875 -13.6875 C 4.738281 -14.050781 5.4375 -14.234375 6.28125 -14.234375 C 6.539062 -14.234375 6.800781 -14.222656 7.0625 -14.203125 L 6.734375 -12.671875 C 6.523438 -12.691406 6.289062 -12.703125 6.03125 -12.703125 C 5.6875 -12.703125 5.410156 -12.625 5.203125 -12.46875 C 5.003906 -12.3125 4.863281 -12.023438 4.78125 -11.609375 L 4.484375 -10.234375 L 6.21875 -10.234375 L 5.90625 -8.8125 Z M 4.1875 -8.8125 "/></g></g></g><g fill="#ffffff" fill-opacity="1"><g transform="translate(492.976711, 128.921702)"><g><path d="M 6.390625 -9.03125 C 5.234375 -9.03125 4.273438 -8.5 3.515625 -7.4375 C 2.765625 -6.382812 2.390625 -5.175781 2.390625 -3.8125 C 2.390625 -3.0625 2.585938 -2.4375 2.984375 -1.9375 C 3.378906 -1.445312 3.921875 -1.203125 4.609375 -1.203125 C 5.765625 -1.203125 6.71875 -1.726562 7.46875 -2.78125 C 8.226562 -3.832031 8.609375 -5.046875 8.609375 -6.421875 C 8.609375 -7.160156 8.410156 -7.78125 8.015625 -8.28125 C 7.617188 -8.78125 7.078125 -9.03125 6.390625 -9.03125 Z M 6.671875 -10.515625 C 7.847656 -10.515625 8.765625 -10.144531 9.421875 -9.40625 C 10.078125 -8.675781 10.40625 -7.734375 10.40625 -6.578125 C 10.40625 -4.804688 9.835938 -3.21875 8.703125 -1.8125 C 7.578125 -0.414062 6.117188 0.28125 4.328125 0.28125 C 3.148438 0.28125 2.234375 -0.0820312 1.578125 -0.8125 C 0.921875 -1.550781 0.59375 -2.5 0.59375 -3.65625 C 0.59375 -5.414062 1.160156 -7 2.296875 -8.40625 C 3.429688 -9.8125 4.890625 -10.515625 6.671875 -10.515625 Z M 6.671875 -10.515625 "/></g></g></g><g fill="#ffffff" fill-opacity="1"><g transform="translate(503.911482, 128.921702)"><g><path d="M 1.953125 0 L 0.234375 0 L 2.421875 -10.234375 L 4.046875 -10.234375 L 3.671875 -8.53125 L 3.71875 -8.53125 C 4.738281 -9.863281 5.835938 -10.53125 7.015625 -10.53125 C 7.191406 -10.53125 7.335938 -10.507812 7.453125 -10.46875 L 7.0625 -8.65625 C 6.851562 -8.675781 6.640625 -8.6875 6.421875 -8.6875 C 5.648438 -8.6875 4.960938 -8.421875 4.359375 -7.890625 C 3.753906 -7.359375 3.375 -6.710938 3.21875 -5.953125 Z M 1.953125 0 "/></g></g></g><g fill="#ffffff" fill-opacity="1"><g transform="translate(510.233594, 128.921702)"><g><path d="M 9.59375 -3.203125 C 9.175781 -2.128906 8.519531 -1.273438 7.625 -0.640625 C 6.726562 -0.00390625 5.65625 0.3125 4.40625 0.3125 C 3.226562 0.3125 2.296875 -0.0195312 1.609375 -0.6875 C 0.929688 -1.363281 0.59375 -2.269531 0.59375 -3.40625 C 0.59375 -5.238281 1.164062 -6.882812 2.3125 -8.34375 C 3.457031 -9.800781 4.921875 -10.53125 6.703125 -10.53125 C 7.835938 -10.53125 8.710938 -10.195312 9.328125 -9.53125 C 9.953125 -8.875 10.265625 -7.914062 10.265625 -6.65625 C 10.265625 -6 10.179688 -5.300781 10.015625 -4.5625 L 2.53125 -4.5625 C 2.445312 -4.25 2.40625 -3.910156 2.40625 -3.546875 C 2.40625 -2.804688 2.597656 -2.226562 2.984375 -1.8125 C 3.367188 -1.394531 3.9375 -1.1875 4.6875 -1.1875 C 5.40625 -1.1875 6.050781 -1.367188 6.625 -1.734375 C 7.207031 -2.109375 7.617188 -2.597656 7.859375 -3.203125 Z M 8.515625 -5.9375 C 8.566406 -6.25 8.59375 -6.507812 8.59375 -6.71875 C 8.59375 -7.46875 8.398438 -8.03125 8.015625 -8.40625 C 7.640625 -8.789062 7.097656 -8.984375 6.390625 -8.984375 C 5.578125 -8.984375 4.859375 -8.71875 4.234375 -8.1875 C 3.617188 -7.664062 3.148438 -6.914062 2.828125 -5.9375 Z M 8.515625 -5.9375 "/></g></g></g><g fill="#ffffff" fill-opacity="1"><g transform="translate(521.072864, 128.921702)"><g/></g></g><g fill="#ffffff" fill-opacity="1"><g transform="translate(525.847873, 128.921702)"><g><path d="M 4.1875 -8.8125 L 2.765625 -2.15625 C 2.742188 -2.0625 2.734375 -1.976562 2.734375 -1.90625 C 2.734375 -1.71875 2.796875 -1.578125 2.921875 -1.484375 C 3.054688 -1.390625 3.273438 -1.34375 3.578125 -1.34375 L 4.234375 -1.34375 L 3.953125 0 C 3.410156 0.09375 2.96875 0.140625 2.625 0.140625 C 2.050781 0.140625 1.625 0.0234375 1.34375 -0.203125 C 1.070312 -0.429688 0.9375 -0.78125 0.9375 -1.25 C 0.9375 -1.46875 0.96875 -1.734375 1.03125 -2.046875 L 2.46875 -8.8125 L 1.078125 -8.8125 L 1.390625 -10.234375 L 2.765625 -10.234375 L 3.375 -13.09375 L 5.09375 -13.09375 L 4.484375 -10.234375 L 6.125 -10.234375 L 5.828125 -8.8125 Z M 4.1875 -8.8125 "/></g></g></g><g fill="#ffffff" fill-opacity="1"><g transform="translate(531.272283, 128.921702)"><g><path d="M 8.578125 0 L 6.84375 0 L 8.265625 -6.6875 C 8.335938 -7.039062 8.375 -7.347656 8.375 -7.609375 C 8.375 -8.054688 8.238281 -8.394531 7.96875 -8.625 C 7.707031 -8.863281 7.335938 -8.984375 6.859375 -8.984375 C 5.929688 -8.984375 5.132812 -8.6875 4.46875 -8.09375 C 3.8125 -7.507812 3.367188 -6.671875 3.140625 -5.578125 L 1.953125 0 L 0.234375 0 L 3.21875 -14.046875 L 4.9375 -14.046875 L 3.84375 -8.859375 L 3.875 -8.859375 C 4.90625 -9.972656 6.078125 -10.53125 7.390625 -10.53125 C 8.222656 -10.53125 8.894531 -10.300781 9.40625 -9.84375 C 9.914062 -9.394531 10.171875 -8.785156 10.171875 -8.015625 C 10.171875 -7.679688 10.132812 -7.332031 10.0625 -6.96875 Z M 8.578125 0 "/></g></g></g><g fill="#ffffff" fill-opacity="1"><g transform="translate(542.063803, 128.921702)"><g><path d="M 9.59375 -3.203125 C 9.175781 -2.128906 8.519531 -1.273438 7.625 -0.640625 C 6.726562 -0.00390625 5.65625 0.3125 4.40625 0.3125 C 3.226562 0.3125 2.296875 -0.0195312 1.609375 -0.6875 C 0.929688 -1.363281 0.59375 -2.269531 0.59375 -3.40625 C 0.59375 -5.238281 1.164062 -6.882812 2.3125 -8.34375 C 3.457031 -9.800781 4.921875 -10.53125 6.703125 -10.53125 C 7.835938 -10.53125 8.710938 -10.195312 9.328125 -9.53125 C 9.953125 -8.875 10.265625 -7.914062 10.265625 -6.65625 C 10.265625 -6 10.179688 -5.300781 10.015625 -4.5625 L 2.53125 -4.5625 C 2.445312 -4.25 2.40625 -3.910156 2.40625 -3.546875 C 2.40625 -2.804688 2.597656 -2.226562 2.984375 -1.8125 C 3.367188 -1.394531 3.9375 -1.1875 4.6875 -1.1875 C 5.40625 -1.1875 6.050781 -1.367188 6.625 -1.734375 C 7.207031 -2.109375 7.617188 -2.597656 7.859375 -3.203125 Z M 8.515625 -5.9375 C 8.566406 -6.25 8.59375 -6.507812 8.59375 -6.71875 C 8.59375 -7.46875 8.398438 -8.03125 8.015625 -8.40625 C 7.640625 -8.789062 7.097656 -8.984375 6.390625 -8.984375 C 5.578125 -8.984375 4.859375 -8.71875 4.234375 -8.1875 C 3.617188 -7.664062 3.148438 -6.914062 2.828125 -5.9375 Z M 8.515625 -5.9375 "/></g></g></g><g fill="#ffffff" fill-opacity="1"><g transform="translate(552.903074, 128.921702)"><g><path d="M 8.734375 -10.234375 L 10.640625 -10.234375 L 4.265625 0.828125 C 3.410156 2.316406 2.71875 3.25 2.1875 3.625 C 1.65625 4 1.0625 4.1875 0.40625 4.1875 C -0.0195312 4.1875 -0.421875 4.132812 -0.796875 4.03125 L -0.46875 2.5 C -0.0625 2.59375 0.285156 2.640625 0.578125 2.640625 C 0.910156 2.640625 1.207031 2.53125 1.46875 2.3125 C 1.726562 2.09375 2.066406 1.625 2.484375 0.90625 L 2.859375 0.28125 L 1.296875 -10.234375 L 3.203125 -10.234375 L 4.1875 -1.90625 L 4.234375 -1.90625 Z M 8.734375 -10.234375 "/></g></g></g><g fill="#ffffff" fill-opacity="1"><g transform="translate(562.605892, 128.921702)"><g/></g></g><g fill="#ffffff" fill-opacity="1"><g transform="translate(567.380901, 128.921702)"><g><path d="M 1.953125 0 L 0.234375 0 L 2.421875 -10.234375 L 4.046875 -10.234375 L 3.671875 -8.53125 L 3.71875 -8.53125 C 4.738281 -9.863281 5.835938 -10.53125 7.015625 -10.53125 C 7.191406 -10.53125 7.335938 -10.507812 7.453125 -10.46875 L 7.0625 -8.65625 C 6.851562 -8.675781 6.640625 -8.6875 6.421875 -8.6875 C 5.648438 -8.6875 4.960938 -8.421875 4.359375 -7.890625 C 3.753906 -7.359375 3.375 -6.710938 3.21875 -5.953125 Z M 1.953125 0 "/></g></g></g><g fill="#ffffff" fill-opacity="1"><g transform="translate(573.703013, 128.921702)"><g><path d="M 6.75 0 L 7.0625 -1.484375 L 7.046875 -1.53125 C 6.128906 -0.3125 4.910156 0.296875 3.390625 0.296875 C 2.554688 0.296875 1.890625 0.0820312 1.390625 -0.34375 C 0.898438 -0.769531 0.65625 -1.347656 0.65625 -2.078125 C 0.65625 -2.304688 0.6875 -2.570312 0.75 -2.875 L 2.328125 -10.234375 L 4.046875 -10.234375 L 2.59375 -3.4375 C 2.53125 -3.125 2.5 -2.851562 2.5 -2.625 C 2.5 -2.132812 2.644531 -1.769531 2.9375 -1.53125 C 3.226562 -1.300781 3.601562 -1.1875 4.0625 -1.1875 C 4.9375 -1.1875 5.691406 -1.484375 6.328125 -2.078125 C 6.960938 -2.679688 7.394531 -3.519531 7.625 -4.59375 L 8.828125 -10.234375 L 10.5625 -10.234375 L 8.375 0 Z M 6.75 0 "/></g></g></g><g fill="#ffffff" fill-opacity="1"><g transform="translate(584.418133, 128.921702)"><g><path d="M 8.578125 0 L 6.84375 0 L 8.1875 -6.296875 C 8.28125 -6.742188 8.328125 -7.125 8.328125 -7.4375 C 8.328125 -7.945312 8.191406 -8.332031 7.921875 -8.59375 C 7.648438 -8.851562 7.265625 -8.984375 6.765625 -8.984375 C 5.835938 -8.984375 5.054688 -8.675781 4.421875 -8.0625 C 3.796875 -7.457031 3.367188 -6.628906 3.140625 -5.578125 L 1.953125 0 L 0.234375 0 L 2.421875 -10.234375 L 4.046875 -10.234375 L 3.734375 -8.78125 L 3.765625 -8.78125 C 4.816406 -9.945312 6.023438 -10.53125 7.390625 -10.53125 C 8.242188 -10.53125 8.921875 -10.304688 9.421875 -9.859375 C 9.921875 -9.410156 10.171875 -8.785156 10.171875 -7.984375 C 10.171875 -7.679688 10.132812 -7.34375 10.0625 -6.96875 Z M 8.578125 0 "/></g></g></g><g fill="#ffffff" fill-opacity="1"><g transform="translate(595.209653, 128.921702)"><g/></g></g><g fill="#ffffff" fill-opacity="1"><g transform="translate(599.984662, 128.921702)"><g><path d="M 6.390625 -9.03125 C 5.234375 -9.03125 4.273438 -8.5 3.515625 -7.4375 C 2.765625 -6.382812 2.390625 -5.175781 2.390625 -3.8125 C 2.390625 -3.0625 2.585938 -2.4375 2.984375 -1.9375 C 3.378906 -1.445312 3.921875 -1.203125 4.609375 -1.203125 C 5.765625 -1.203125 6.71875 -1.726562 7.46875 -2.78125 C 8.226562 -3.832031 8.609375 -5.046875 8.609375 -6.421875 C 8.609375 -7.160156 8.410156 -7.78125 8.015625 -8.28125 C 7.617188 -8.78125 7.078125 -9.03125 6.390625 -9.03125 Z M 6.671875 -10.515625 C 7.847656 -10.515625 8.765625 -10.144531 9.421875 -9.40625 C 10.078125 -8.675781 10.40625 -7.734375 10.40625 -6.578125 C 10.40625 -4.804688 9.835938 -3.21875 8.703125 -1.8125 C 7.578125 -0.414062 6.117188 0.28125 4.328125 0.28125 C 3.148438 0.28125 2.234375 -0.0820312 1.578125 -0.8125 C 0.921875 -1.550781 0.59375 -2.5 0.59375 -3.65625 C 0.59375 -5.414062 1.160156 -7 2.296875 -8.40625 C 3.429688 -9.8125 4.890625 -10.515625 6.671875 -10.515625 Z M 6.671875 -10.515625 "/></g></g></g><g fill="#ffffff" fill-opacity="1"><g transform="translate(610.919404, 128.921702)"><g><path d="M 6.75 0 L 7.0625 -1.484375 L 7.046875 -1.53125 C 6.128906 -0.3125 4.910156 0.296875 3.390625 0.296875 C 2.554688 0.296875 1.890625 0.0820312 1.390625 -0.34375 C 0.898438 -0.769531 0.65625 -1.347656 0.65625 -2.078125 C 0.65625 -2.304688 0.6875 -2.570312 0.75 -2.875 L 2.328125 -10.234375 L 4.046875 -10.234375 L 2.59375 -3.4375 C 2.53125 -3.125 2.5 -2.851562 2.5 -2.625 C 2.5 -2.132812 2.644531 -1.769531 2.9375 -1.53125 C 3.226562 -1.300781 3.601562 -1.1875 4.0625 -1.1875 C 4.9375 -1.1875 5.691406 -1.484375 6.328125 -2.078125 C 6.960938 -2.679688 7.394531 -3.519531 7.625 -4.59375 L 8.828125 -10.234375 L 10.5625 -10.234375 L 8.375 0 Z M 6.75 0 "/></g></g></g><g fill="#ffffff" fill-opacity="1"><g transform="translate(621.634524, 128.921702)"><g><path d="M 4.1875 -8.8125 L 2.765625 -2.15625 C 2.742188 -2.0625 2.734375 -1.976562 2.734375 -1.90625 C 2.734375 -1.71875 2.796875 -1.578125 2.921875 -1.484375 C 3.054688 -1.390625 3.273438 -1.34375 3.578125 -1.34375 L 4.234375 -1.34375 L 3.953125 0 C 3.410156 0.09375 2.96875 0.140625 2.625 0.140625 C 2.050781 0.140625 1.625 0.0234375 1.34375 -0.203125 C 1.070312 -0.429688 0.9375 -0.78125 0.9375 -1.25 C 0.9375 -1.46875 0.96875 -1.734375 1.03125 -2.046875 L 2.46875 -8.8125 L 1.078125 -8.8125 L 1.390625 -10.234375 L 2.765625 -10.234375 L 3.375 -13.09375 L 5.09375 -13.09375 L 4.484375 -10.234375 L 6.125 -10.234375 L 5.828125 -8.8125 Z M 4.1875 -8.8125 "/></g></g></g><g fill="#ffffff" fill-opacity="1"><g transform="translate(627.058934, 128.921702)"><g><path d="M 2.6875 0 L 0.65625 0 L 1.09375 -2.078125 L 3.125 -2.078125 Z M 2.6875 0 "/></g></g></g></svg>